<?xml version="1.0" encoding="UTF-8"?>
<svg xmlns="http://www.w3.org/2000/svg" xmlns:xlink="http://www.w3.org/1999/xlink" width="80px" height="80px" viewBox="0 0 80 80" version="1.1">
<g id="surface1">
<path style=" stroke:none;fill-rule:nonzero;fill:rgb(98.431373%,99.215686%,99.215686%);fill-opacity:1;" d="M 0 0 C 26.398438 0 52.800781 0 80 0 C 80 26.398438 80 52.800781 80 80 C 53.601562 80 27.199219 80 0 80 C 0 53.601562 0 27.199219 0 0 Z M 0 0 "/>
<path style=" stroke:none;fill-rule:nonzero;fill:rgb(13.333334%,90.588236%,67.058825%);fill-opacity:1;" d="M 80 15.292969 C 80 36.648438 80 58 80 80 C 58.648438 80 37.292969 80 15.292969 80 C 21.175781 72.941406 21.175781 72.941406 23.847656 72.09375 C 25.207031 72.117188 25.207031 72.117188 26.597656 72.140625 C 28.148438 72.140625 28.148438 72.140625 29.734375 72.140625 C 31.386719 72.195312 31.386719 72.195312 33.074219 72.25 C 34.214844 72.261719 35.355469 72.273438 36.53125 72.28125 C 40.164062 72.320312 43.792969 72.410156 47.425781 72.5 C 49.894531 72.535156 52.359375 72.566406 54.828125 72.597656 C 60.867188 72.675781 66.902344 72.796875 72.941406 72.941406 C 72.910156 71.402344 72.878906 69.867188 72.847656 68.28125 C 72.742188 62.570312 72.671875 56.859375 72.617188 51.148438 C 72.589844 48.675781 72.546875 46.207031 72.496094 43.738281 C 72.425781 40.183594 72.394531 36.628906 72.367188 33.074219 C 72.335938 31.972656 72.304688 30.871094 72.273438 29.734375 C 72.273438 24.226562 72.328125 21.953125 75.84375 17.492188 C 78.824219 15.292969 78.824219 15.292969 80 15.292969 Z M 80 15.292969 "/>
<path style=" stroke:none;fill-rule:nonzero;fill:rgb(11.764706%,90.980393%,67.450982%);fill-opacity:1;" d="M 0 0 C 21.351562 0 42.707031 0 64.707031 0 C 58.824219 7.058594 58.824219 7.058594 56.152344 7.90625 C 55.246094 7.890625 54.339844 7.875 53.402344 7.859375 C 52.367188 7.859375 51.332031 7.859375 50.265625 7.859375 C 48.613281 7.804688 48.613281 7.804688 46.925781 7.75 C 45.785156 7.738281 44.644531 7.726562 43.46875 7.71875 C 39.835938 7.679688 36.207031 7.589844 32.574219 7.5 C 30.105469 7.464844 27.640625 7.433594 25.171875 7.402344 C 19.132812 7.324219 13.097656 7.203125 7.058594 7.058594 C 7.097656 8.597656 7.132812 10.132812 7.171875 11.71875 C 7.296875 17.429688 7.378906 23.140625 7.445312 28.851562 C 7.480469 31.324219 7.53125 33.792969 7.589844 36.261719 C 7.675781 39.816406 7.71875 43.371094 7.75 46.925781 C 7.785156 48.027344 7.820312 49.128906 7.859375 50.265625 C 7.859375 51.300781 7.859375 52.335938 7.859375 53.402344 C 7.882812 54.765625 7.882812 54.765625 7.90625 56.152344 C 7.058594 58.824219 7.058594 58.824219 0 64.707031 C 0 43.351562 0 22 0 0 Z M 0 0 "/>
<path style=" stroke:none;fill-rule:nonzero;fill:rgb(13.725491%,90.980393%,67.450982%);fill-opacity:1;" d="M 77.542969 -0.46875 C 78.757812 -0.238281 78.757812 -0.238281 80 0 C 80.3125 3.460938 80.425781 5.28125 78.378906 8.171875 C 77.269531 9.234375 77.269531 9.234375 76.140625 10.316406 C 75.34375 11.09375 74.546875 11.871094 73.726562 12.671875 C 72.886719 13.464844 72.042969 14.257812 71.175781 15.074219 C 70.335938 15.886719 69.492188 16.703125 68.625 17.542969 C 66.546875 19.554688 64.457031 21.546875 62.351562 23.53125 C 63.964844 27.003906 65.867188 29.929688 68.234375 32.941406 C 64.363281 33.730469 60.492188 34.511719 56.617188 35.292969 C 55.515625 35.519531 54.414062 35.742188 53.277344 35.972656 C 51.695312 36.292969 51.695312 36.292969 50.082031 36.617188 C 49.109375 36.816406 48.136719 37.011719 47.132812 37.214844 C 44.707031 37.648438 44.707031 37.648438 42.351562 37.648438 C 43.230469 28.871094 45.136719 20.367188 47.058594 11.765625 C 49.386719 13.707031 51.71875 15.648438 54.117188 17.648438 C 57.5625 16.105469 59.871094 14.492188 62.421875 11.71875 C 63.070312 11.035156 63.71875 10.355469 64.386719 9.652344 C 65.730469 8.214844 67.066406 6.769531 68.394531 5.320312 C 73.386719 0.101562 73.386719 0.101562 77.542969 -0.46875 Z M 77.542969 -0.46875 "/>
<path style=" stroke:none;fill-rule:nonzero;fill:rgb(14.901961%,91.37255%,67.843139%);fill-opacity:1;" d="M 37.648438 42.351562 C 36.382812 51.066406 34.976562 59.664062 32.941406 68.234375 C 30.613281 66.292969 28.28125 64.351562 25.882812 62.351562 C 20.058594 64.550781 16.347656 69.535156 12.261719 74.023438 C 10.441406 75.933594 10.441406 75.933594 7.058594 78.824219 C 4.640625 78.636719 4.640625 78.636719 2.351562 77.648438 C 1.578125 76.480469 0.800781 75.316406 0 74.117188 C 5.824219 68.292969 11.648438 62.46875 17.648438 56.46875 C 15.851562 52.882812 14.203125 50.160156 11.765625 47.058594 C 13.996094 46.492188 16.226562 45.929688 18.457031 45.367188 C 19.699219 45.054688 20.941406 44.738281 22.21875 44.417969 C 27.5 43.136719 32.195312 42.195312 37.648438 42.351562 Z M 37.648438 42.351562 "/>
<path style=" stroke:none;fill-rule:nonzero;fill:rgb(92.156863%,97.647059%,96.078432%);fill-opacity:1;" d="M 7.058594 7.058594 C 23.753906 7.058594 40.445312 7.058594 57.648438 7.058594 C 57.648438 7.445312 57.648438 7.835938 57.648438 8.234375 C 41.339844 8.234375 25.035156 8.234375 8.234375 8.234375 C 8.257812 14.300781 8.285156 20.367188 8.308594 26.617188 C 8.296875 28.519531 8.28125 30.421875 8.269531 32.378906 C 8.105469 40.898438 8.105469 40.898438 11.320312 48.496094 C 13.515625 50.355469 13.515625 50.355469 15.882812 51.613281 C 16.757812 52.269531 16.757812 52.269531 17.648438 52.941406 C 17.648438 57.648438 17.648438 57.648438 16.152344 59.691406 C 15.472656 60.359375 14.789062 61.023438 14.085938 61.710938 C 12.980469 62.800781 12.980469 62.800781 11.851562 63.914062 C 11.070312 64.660156 10.289062 65.40625 9.484375 66.175781 C 8.320312 67.324219 8.320312 67.324219 7.132812 68.492188 C 1.375 74.117188 1.375 74.117188 0 74.117188 C -0.574219 67.339844 -0.574219 67.339844 0 64.707031 C 0.964844 63.925781 1.929688 63.148438 2.925781 62.34375 C 7.136719 57.332031 6.742188 53.285156 6.714844 46.925781 C 6.730469 45.785156 6.75 44.644531 6.769531 43.46875 C 6.820312 39.835938 6.828125 36.207031 6.839844 32.574219 C 6.867188 30.105469 6.894531 27.640625 6.929688 25.171875 C 7.007812 19.132812 7.03125 13.097656 7.058594 7.058594 Z M 7.058594 7.058594 "/>
<path style=" stroke:none;fill-rule:nonzero;fill:rgb(90.196079%,97.647059%,95.294118%);fill-opacity:1;" d="M 80 5.882812 C 80.574219 12.660156 80.574219 12.660156 80 15.292969 C 78.550781 16.464844 78.550781 16.464844 77.074219 17.65625 C 72.863281 22.667969 73.257812 26.714844 73.285156 33.074219 C 73.269531 34.214844 73.25 35.355469 73.230469 36.53125 C 73.179688 40.164062 73.171875 43.792969 73.160156 47.425781 C 73.132812 49.894531 73.105469 52.359375 73.070312 54.828125 C 73 60.867188 72.960938 66.902344 72.941406 72.941406 C 72.554688 72.941406 72.164062 72.941406 71.765625 72.941406 C 71.375 60.519531 70.988281 48.09375 70.589844 35.292969 C 68.257812 34.90625 65.929688 34.519531 63.53125 34.117188 C 64.695312 33.339844 65.859375 32.566406 67.058594 31.765625 C 65.117188 29.824219 63.175781 27.882812 61.175781 25.882812 C 62.726562 22.453125 64.394531 20.019531 67.0625 17.371094 C 68.078125 16.359375 68.078125 16.359375 69.117188 15.328125 C 69.820312 14.636719 70.523438 13.945312 71.25 13.234375 C 71.960938 12.527344 72.667969 11.820312 73.398438 11.089844 C 78.660156 5.882812 78.660156 5.882812 80 5.882812 Z M 80 5.882812 "/>
<path style=" stroke:none;fill-rule:nonzero;fill:rgb(15.686275%,91.37255%,68.627453%);fill-opacity:1;" d="M 77.28125 -0.367188 C 78.625 -0.1875 78.625 -0.1875 80 0 C 80.332031 2.585938 80.332031 2.585938 80 5.882812 C 77.683594 8.773438 77.683594 8.773438 74.707031 11.542969 C 73.722656 12.472656 72.742188 13.402344 71.726562 14.359375 C 70.964844 15.058594 70.199219 15.753906 69.410156 16.46875 C 68.246094 15.695312 67.082031 14.917969 65.882812 14.117188 C 66.660156 14.117188 67.433594 14.117188 68.234375 14.117188 C 68.550781 12.878906 68.867188 11.644531 69.191406 10.367188 C 72.355469 0.203125 72.355469 0.203125 77.28125 -0.367188 Z M 77.28125 -0.367188 "/>
<path style=" stroke:none;fill-rule:nonzero;fill:rgb(10.196079%,91.764706%,67.058825%);fill-opacity:1;" d="M 12.941406 63.53125 C 12.941406 65.46875 12.941406 67.410156 12.941406 69.410156 C 10.613281 70.578125 10.613281 70.578125 8.234375 71.765625 C 8.234375 72.929688 8.234375 74.09375 8.234375 75.292969 C 7.070312 75.683594 5.90625 76.070312 4.707031 76.46875 C 5.09375 77.246094 5.480469 78.023438 5.882812 78.824219 C 4.328125 78.046875 2.777344 77.269531 1.175781 76.46875 C 1.175781 72.941406 1.175781 72.941406 3.152344 70.539062 C 4.429688 69.289062 4.429688 69.289062 5.734375 68.015625 C 6.582031 67.171875 7.429688 66.332031 8.300781 65.464844 C 10.589844 63.53125 10.589844 63.53125 12.941406 63.53125 Z M 12.941406 63.53125 "/>
<path style=" stroke:none;fill-rule:nonzero;fill:rgb(49.803922%,93.725491%,80.784315%);fill-opacity:1;" d="M 74.117188 0 C 76.058594 0 78 0 80 0 C 80 1.941406 80 3.882812 80 5.882812 C 78.835938 6.464844 78.835938 6.464844 77.648438 7.058594 C 76.871094 6.671875 76.09375 6.28125 75.292969 5.882812 C 75.292969 5.105469 75.292969 4.328125 75.292969 3.53125 C 74.519531 3.53125 73.742188 3.53125 72.941406 3.53125 C 73.328125 2.363281 73.71875 1.199219 74.117188 0 Z M 74.117188 0 "/>
<path style=" stroke:none;fill-rule:nonzero;fill:rgb(20%,91.764706%,70.19608%);fill-opacity:1;" d="M 14.117188 45.882812 C 16.617188 46.324219 16.617188 46.324219 18.824219 47.058594 C 18.046875 47.835938 17.269531 48.613281 16.46875 49.410156 C 17.246094 50.964844 18.023438 52.519531 18.824219 54.117188 C 16.492188 52.175781 14.164062 50.234375 11.765625 48.234375 C 12.542969 47.457031 13.316406 46.683594 14.117188 45.882812 Z M 14.117188 45.882812 "/>
</g>
</svg>
