<?xml version="1.0" encoding="UTF-8"?>
<svg xmlns="http://www.w3.org/2000/svg" xmlns:xlink="http://www.w3.org/1999/xlink" width="40px" height="40px" viewBox="0 0 40 23" version="1.1">
<g id="surface1">
<path style=" stroke:none;fill-rule:nonzero;fill:rgb(14.509805%,18.431373%,24.313726%);fill-opacity:1;" d="M 11.402344 8.351562 C 11.402344 8.828125 11.453125 9.210938 11.546875 9.492188 C 11.648438 9.773438 11.78125 10.082031 11.960938 10.414062 C 12.027344 10.515625 12.054688 10.617188 12.054688 10.707031 C 12.054688 10.835938 11.976562 10.960938 11.804688 11.089844 L 10.984375 11.628906 C 10.867188 11.703125 10.75 11.742188 10.644531 11.742188 C 10.515625 11.742188 10.386719 11.679688 10.253906 11.5625 C 10.074219 11.371094 9.917969 11.167969 9.785156 10.960938 C 9.65625 10.746094 9.523438 10.503906 9.382812 10.207031 C 8.363281 11.386719 7.085938 11.972656 5.546875 11.972656 C 4.453125 11.972656 3.582031 11.667969 2.941406 11.050781 C 2.300781 10.4375 1.976562 9.621094 1.976562 8.597656 C 1.976562 7.507812 2.367188 6.625 3.164062 5.960938 C 3.957031 5.296875 5.015625 4.964844 6.355469 4.964844 C 6.800781 4.964844 7.257812 5 7.738281 5.066406 C 8.222656 5.128906 8.714844 5.230469 9.238281 5.347656 L 9.238281 4.414062 C 9.238281 3.441406 9.03125 2.761719 8.625 2.367188 C 8.207031 1.96875 7.503906 1.777344 6.5 1.777344 C 6.042969 1.777344 5.574219 1.828125 5.09375 1.945312 C 4.609375 2.058594 4.140625 2.199219 3.683594 2.378906 C 3.476562 2.46875 3.320312 2.519531 3.226562 2.546875 C 3.136719 2.570312 3.070312 2.582031 3.019531 2.582031 C 2.835938 2.582031 2.746094 2.457031 2.746094 2.1875 L 2.746094 1.5625 C 2.746094 1.355469 2.773438 1.203125 2.835938 1.113281 C 2.902344 1.023438 3.019531 0.933594 3.203125 0.84375 C 3.660156 0.613281 4.207031 0.421875 4.84375 0.269531 C 5.484375 0.101562 6.160156 0.0273438 6.878906 0.0273438 C 8.429688 0.0273438 9.5625 0.371094 10.292969 1.0625 C 11.011719 1.753906 11.375 2.800781 11.375 4.207031 L 11.375 8.351562 Z M 6.109375 10.296875 C 6.539062 10.296875 6.984375 10.222656 7.453125 10.066406 C 7.921875 9.914062 8.339844 9.632812 8.691406 9.25 C 8.898438 9.003906 9.054688 8.738281 9.132812 8.429688 C 9.210938 8.121094 9.265625 7.75 9.265625 7.316406 L 9.265625 6.78125 C 8.886719 6.691406 8.480469 6.613281 8.066406 6.5625 C 7.648438 6.511719 7.242188 6.484375 6.839844 6.484375 C 5.964844 6.484375 5.328125 6.652344 4.898438 6.996094 C 4.464844 7.34375 4.257812 7.828125 4.257812 8.46875 C 4.257812 9.070312 4.414062 9.515625 4.742188 9.824219 C 5.054688 10.144531 5.507812 10.296875 6.109375 10.296875 Z M 16.578125 11.679688 C 16.34375 11.679688 16.1875 11.640625 16.082031 11.550781 C 15.976562 11.472656 15.886719 11.296875 15.808594 11.050781 L 12.746094 1.164062 C 12.667969 0.910156 12.628906 0.742188 12.628906 0.652344 C 12.628906 0.449219 12.730469 0.332031 12.941406 0.332031 L 14.21875 0.332031 C 14.464844 0.332031 14.636719 0.371094 14.726562 0.460938 C 14.832031 0.539062 14.910156 0.714844 14.988281 0.960938 L 17.175781 9.425781 L 19.210938 0.960938 C 19.277344 0.703125 19.355469 0.539062 19.457031 0.460938 C 19.5625 0.382812 19.746094 0.332031 19.980469 0.332031 L 21.023438 0.332031 C 21.269531 0.332031 21.441406 0.371094 21.542969 0.460938 C 21.648438 0.539062 21.742188 0.714844 21.792969 0.960938 L 23.851562 9.53125 L 26.109375 0.960938 C 26.1875 0.703125 26.277344 0.539062 26.367188 0.460938 C 26.472656 0.382812 26.640625 0.332031 26.875 0.332031 L 28.089844 0.332031 C 28.296875 0.332031 28.414062 0.433594 28.414062 0.652344 C 28.414062 0.714844 28.402344 0.78125 28.390625 0.855469 C 28.375 0.933594 28.351562 1.035156 28.296875 1.175781 L 25.15625 11.066406 C 25.078125 11.320312 24.988281 11.488281 24.882812 11.5625 C 24.777344 11.640625 24.609375 11.691406 24.386719 11.691406 L 23.265625 11.691406 C 23.019531 11.691406 22.847656 11.652344 22.746094 11.5625 C 22.640625 11.472656 22.546875 11.308594 22.496094 11.050781 L 20.476562 2.800781 L 18.46875 11.039062 C 18.402344 11.296875 18.324219 11.460938 18.21875 11.550781 C 18.117188 11.640625 17.933594 11.679688 17.699219 11.679688 Z M 33.328125 12.023438 C 32.652344 12.023438 31.972656 11.949219 31.324219 11.792969 C 30.671875 11.640625 30.164062 11.472656 29.824219 11.28125 C 29.613281 11.167969 29.472656 11.039062 29.417969 10.925781 C 29.367188 10.808594 29.339844 10.679688 29.339844 10.566406 L 29.339844 9.914062 C 29.339844 9.644531 29.445312 9.515625 29.640625 9.515625 C 29.71875 9.515625 29.796875 9.53125 29.875 9.554688 C 29.953125 9.582031 30.070312 9.632812 30.203125 9.683594 C 30.644531 9.875 31.125 10.027344 31.636719 10.132812 C 32.15625 10.234375 32.664062 10.285156 33.1875 10.285156 C 34.007812 10.285156 34.648438 10.144531 35.089844 9.863281 C 35.535156 9.582031 35.769531 9.171875 35.769531 8.648438 C 35.769531 8.289062 35.652344 7.996094 35.414062 7.75 C 35.179688 7.507812 34.738281 7.292969 34.097656 7.085938 L 32.207031 6.511719 C 31.257812 6.21875 30.554688 5.78125 30.121094 5.207031 C 29.691406 4.644531 29.472656 4.015625 29.472656 3.351562 C 29.472656 2.8125 29.589844 2.339844 29.824219 1.929688 C 30.058594 1.523438 30.371094 1.164062 30.761719 0.882812 C 31.152344 0.589844 31.597656 0.371094 32.117188 0.21875 C 32.640625 0.0625 33.1875 0 33.761719 0 C 34.046875 0 34.347656 0.0117188 34.632812 0.0507812 C 34.933594 0.0898438 35.207031 0.140625 35.480469 0.191406 C 35.742188 0.253906 35.988281 0.320312 36.222656 0.398438 C 36.457031 0.472656 36.640625 0.550781 36.773438 0.625 C 36.953125 0.730469 37.085938 0.832031 37.164062 0.945312 C 37.242188 1.050781 37.28125 1.191406 37.28125 1.367188 L 37.28125 1.96875 C 37.28125 2.238281 37.175781 2.378906 36.980469 2.378906 C 36.875 2.378906 36.707031 2.328125 36.484375 2.226562 C 35.742188 1.894531 34.90625 1.726562 33.980469 1.726562 C 33.238281 1.726562 32.652344 1.84375 32.246094 2.085938 C 31.84375 2.328125 31.636719 2.699219 31.636719 3.222656 C 31.636719 3.582031 31.765625 3.890625 32.027344 4.132812 C 32.285156 4.375 32.769531 4.617188 33.460938 4.835938 L 35.3125 5.410156 C 36.25 5.707031 36.929688 6.113281 37.332031 6.640625 C 37.738281 7.164062 37.933594 7.765625 37.933594 8.429688 C 37.933594 8.980469 37.816406 9.480469 37.59375 9.914062 C 37.359375 10.347656 37.046875 10.734375 36.640625 11.039062 C 36.238281 11.359375 35.753906 11.589844 35.195312 11.753906 C 34.609375 11.933594 33.996094 12.023438 33.328125 12.023438 Z M 33.328125 12.023438 "/>
<path style=" stroke:none;fill-rule:evenodd;fill:rgb(100%,60.000002%,0%);fill-opacity:1;" d="M 35.792969 18.242188 C 31.503906 21.351562 25.273438 23 19.914062 23 C 12.40625 23 5.640625 20.273438 0.53125 15.746094 C 0.125 15.390625 0.492188 14.902344 0.972656 15.183594 C 6.5 18.332031 13.320312 20.238281 20.371094 20.238281 C 25.128906 20.238281 30.359375 19.265625 35.167969 17.269531 C 35.886719 16.949219 36.496094 17.730469 35.792969 18.242188 Z M 35.792969 18.242188 "/>
<path style=" stroke:none;fill-rule:evenodd;fill:rgb(100%,60.000002%,0%);fill-opacity:1;" d="M 37.578125 16.246094 C 37.03125 15.554688 33.957031 15.914062 32.5625 16.078125 C 32.144531 16.128906 32.078125 15.773438 32.457031 15.503906 C 34.90625 13.816406 38.9375 14.300781 39.40625 14.863281 C 39.875 15.441406 39.273438 19.394531 36.980469 21.285156 C 36.628906 21.582031 36.289062 21.425781 36.445312 21.042969 C 36.96875 19.777344 38.128906 16.921875 37.578125 16.246094 Z M 37.578125 16.246094 "/>
</g>
</svg>
