<?xml version="1.0" encoding="UTF-8"?>
<svg xmlns="http://www.w3.org/2000/svg" xmlns:xlink="http://www.w3.org/1999/xlink" width="40px" height="40px" viewBox="0 0 40 40" version="1.1">
<g id="surface1">
<path style=" stroke:none;fill-rule:nonzero;fill:rgb(40.392157%,22.745098%,71.764708%);fill-opacity:1;" d="M 40 34.445312 C 40 37.511719 37.511719 40 34.445312 40 L 5.554688 40 C 2.488281 40 0 37.511719 0 34.445312 L 0 5.554688 C 0 2.488281 2.488281 0 5.554688 0 L 34.445312 0 C 37.511719 0 40 2.488281 40 5.554688 Z M 40 34.445312 "/>
<path style=" stroke:none;fill-rule:nonzero;fill:rgb(100%,100%,100%);fill-opacity:1;" d="M 30.035156 21.777344 C 29.3125 20.777344 28.265625 20.089844 26.921875 19.722656 C 26.921875 19.722656 28.054688 19.3125 29.078125 17.777344 C 29.6875 16.800781 30 15.621094 30 14.246094 C 30 11.855469 29.132812 10.023438 27.398438 8.765625 C 25.667969 7.511719 23.710938 6.667969 20.390625 6.667969 L 10 6.667969 L 10 33.332031 L 21.589844 33.332031 C 24.734375 33.3125 27.101562 32.632812 28.710938 31.332031 C 30.3125 30.011719 31.109375 28.054688 31.109375 25.445312 C 31.109375 24 30.753906 22.777344 30.035156 21.777344 Z M 16.667969 11.109375 L 21.390625 11.109375 C 23.078125 11.109375 24.445312 12.476562 24.445312 14.167969 C 24.445312 15.855469 23.078125 17.222656 21.390625 17.222656 L 16.667969 17.222656 Z M 22.222656 28.890625 L 16.667969 28.890625 L 16.667969 22.222656 L 22.222656 22.222656 C 24.066406 22.222656 25.554688 23.710938 25.554688 25.554688 C 25.554688 27.398438 24.066406 28.890625 22.222656 28.890625 Z M 22.222656 28.890625 "/>
</g>
</svg>
