<?xml version="1.0" encoding="UTF-8"?>
<svg xmlns="http://www.w3.org/2000/svg" xmlns:xlink="http://www.w3.org/1999/xlink" width="40px" height="40px" viewBox="0 0 40 40" version="1.1">
<g id="surface1">
<path style=" stroke:none;fill-rule:nonzero;fill:rgb(8.235294%,12.156863%,20.392157%);fill-opacity:1;" d="M 24.414062 11.460938 C 22.964844 11.796875 21.484375 11.964844 20 11.960938 C 18.515625 11.964844 17.035156 11.796875 15.585938 11.460938 C 16.769531 9.597656 18.261719 7.945312 20 6.574219 C 21.734375 7.945312 23.226562 9.597656 24.414062 11.460938 Z M 37.710938 0.710938 C 35.902344 0.238281 34.039062 0 32.167969 0 C 27.835938 -0.00390625 23.601562 1.269531 20 3.664062 C 16.398438 1.269531 12.164062 -0.00390625 7.832031 0 C 5.949219 -0.00390625 4.070312 0.234375 2.25 0.710938 C 1.488281 0.902344 0.738281 1.136719 0 1.414062 C 0.3125 2.195312 0.664062 2.851562 1.042969 3.488281 C 1.890625 3.21875 2.648438 2.992188 3.417969 2.8125 C 8.398438 1.6875 13.625 2.527344 17.988281 5.164062 C 16.101562 6.75 14.492188 8.644531 13.238281 10.761719 C 12.984375 11.164062 12.773438 11.574219 12.546875 12.011719 C 12.320312 12.449219 12.269531 12.574219 12.132812 12.875 C 11.992188 13.175781 11.742188 13.773438 11.578125 14.226562 C 8.523438 22.386719 10.644531 31.578125 16.96875 37.601562 C 17.296875 37.914062 17.636719 38.210938 17.988281 38.511719 C 18.339844 38.8125 18.542969 38.976562 18.832031 39.1875 C 19.121094 39.398438 19.574219 39.738281 19.949219 39.988281 C 20.425781 39.726562 20.804688 39.460938 21.167969 39.1875 C 21.535156 38.914062 21.734375 38.75 22.011719 38.511719 C 22.289062 38.273438 22.703125 37.914062 23.03125 37.601562 C 27.351562 33.484375 29.796875 27.789062 29.792969 21.835938 C 29.796875 19.238281 29.332031 16.660156 28.421875 14.226562 C 28.246094 13.761719 28.058594 13.3125 27.855469 12.863281 C 27.65625 12.414062 27.578125 12.273438 27.441406 12 C 27.304688 11.726562 27 11.175781 26.75 10.75 C 25.492188 8.632812 23.886719 6.738281 22 5.148438 C 26.375 2.53125 31.605469 1.707031 36.582031 2.851562 C 37.351562 3.03125 38.109375 3.257812 38.855469 3.523438 C 39.324219 2.890625 39.667969 2.242188 39.988281 1.574219 C 39.242188 1.171875 38.484375 0.917969 37.710938 0.710938 Z M 37.710938 0.710938 "/>
<path style=" stroke:none;fill-rule:nonzero;fill:rgb(20.392157%,52.156866%,25.098041%);fill-opacity:1;" d="M 27.429688 21.835938 C 27.4375 26.808594 25.523438 31.589844 22.085938 35.199219 C 21.488281 33.308594 21.183594 31.335938 21.179688 29.351562 C 21.171875 24.378906 23.085938 19.59375 26.523438 15.988281 C 27.121094 17.878906 27.429688 19.851562 27.429688 21.835938 "/>
<path style=" stroke:none;fill-rule:nonzero;fill:rgb(49.019608%,73.725492%,25.882354%);fill-opacity:1;" d="M 18.855469 29.351562 C 18.855469 31.335938 18.550781 33.308594 17.949219 35.199219 C 13.070312 30.074219 11.371094 22.71875 13.515625 15.988281 C 16.953125 19.59375 18.863281 24.378906 18.855469 29.351562 "/>
</g>
</svg>
