<?xml version="1.0" encoding="UTF-8"?>
<svg xmlns="http://www.w3.org/2000/svg" xmlns:xlink="http://www.w3.org/1999/xlink" width="40px" height="40px" viewBox="0 0 40 45" version="1.1">
<g id="surface1">
<path style=" stroke:none;fill-rule:nonzero;fill:rgb(63.137257%,47.450981%,86.274511%);fill-opacity:1;" d="M 39.820312 13.320312 C 39.820312 12.570312 39.660156 11.910156 39.335938 11.34375 C 39.019531 10.78125 38.542969 10.316406 37.902344 9.945312 C 32.625 6.902344 27.339844 3.867188 22.066406 0.820312 C 20.640625 0 19.261719 0.03125 17.851562 0.863281 C 15.75 2.101562 5.230469 8.128906 2.097656 9.941406 C 0.804688 10.691406 0.179688 11.832031 0.179688 13.320312 C 0.175781 19.441406 0.179688 25.558594 0.175781 31.679688 C 0.175781 32.414062 0.328125 33.0625 0.640625 33.621094 C 0.957031 34.195312 1.441406 34.679688 2.09375 35.058594 C 5.230469 36.871094 15.75 42.898438 17.851562 44.136719 C 19.261719 44.96875 20.640625 45 22.066406 44.179688 C 27.34375 41.132812 32.625 38.097656 37.90625 35.054688 C 38.558594 34.675781 39.042969 34.195312 39.359375 33.621094 C 39.671875 33.058594 39.824219 32.410156 39.824219 31.679688 C 39.824219 31.679688 39.824219 19.441406 39.820312 13.320312 "/>
<path style=" stroke:none;fill-rule:nonzero;fill:rgb(15.686275%,0%,40.784314%);fill-opacity:1;" d="M 20.0625 22.441406 L 0.640625 33.621094 C 0.957031 34.195312 1.441406 34.679688 2.09375 35.058594 C 5.230469 36.871094 15.75 42.898438 17.851562 44.136719 C 19.261719 44.96875 20.640625 45 22.066406 44.179688 C 27.34375 41.132812 32.625 38.097656 37.90625 35.054688 C 38.558594 34.675781 39.042969 34.195312 39.359375 33.621094 Z M 20.0625 22.441406 "/>
<path style=" stroke:none;fill-rule:nonzero;fill:rgb(22.352941%,0%,56.862748%);fill-opacity:1;" d="M 39.820312 13.320312 C 39.820312 12.570312 39.660156 11.910156 39.335938 11.34375 L 20.0625 22.441406 L 39.359375 33.621094 C 39.671875 33.058594 39.824219 32.410156 39.824219 31.679688 C 39.824219 31.679688 39.824219 19.441406 39.820312 13.320312 "/>
<path style=" stroke:none;fill-rule:nonzero;fill:rgb(100%,100%,100%);fill-opacity:1;" d="M 31.496094 18.261719 L 31.496094 20.351562 L 33.585938 20.351562 L 33.585938 18.261719 L 34.628906 18.261719 L 34.628906 20.351562 L 36.722656 20.351562 L 36.722656 21.394531 L 34.628906 21.394531 L 34.628906 23.484375 L 36.722656 23.484375 L 36.722656 24.53125 L 34.628906 24.53125 L 34.628906 26.621094 L 33.585938 26.621094 L 33.585938 24.53125 L 31.496094 24.53125 L 31.496094 26.621094 L 30.449219 26.621094 L 30.449219 24.53125 L 28.359375 24.53125 L 28.359375 23.484375 L 30.449219 23.484375 L 30.449219 21.394531 L 28.359375 21.394531 L 28.359375 20.351562 L 30.449219 20.351562 L 30.449219 18.261719 Z M 33.585938 21.394531 L 31.496094 21.394531 L 31.496094 23.484375 L 33.585938 23.484375 Z M 33.585938 21.394531 "/>
<path style=" stroke:none;fill-rule:nonzero;fill:rgb(100%,100%,100%);fill-opacity:1;" d="M 20.101562 7.765625 C 25.554688 7.765625 30.316406 10.726562 32.863281 15.125 L 32.839844 15.082031 L 26.425781 18.777344 C 25.160156 16.636719 22.84375 15.191406 20.1875 15.164062 L 20.101562 15.164062 C 16.050781 15.164062 12.765625 18.449219 12.765625 22.5 C 12.761719 23.777344 13.097656 25.03125 13.734375 26.140625 C 14.996094 28.347656 17.375 29.835938 20.101562 29.835938 C 22.847656 29.835938 25.238281 28.328125 26.496094 26.097656 L 26.46875 26.152344 L 32.871094 29.863281 C 30.351562 34.226562 25.65625 37.175781 20.265625 37.234375 L 20.101562 37.234375 C 14.632812 37.234375 9.859375 34.257812 7.316406 29.832031 C 6.074219 27.671875 5.367188 25.167969 5.367188 22.5 C 5.367188 14.363281 11.964844 7.765625 20.101562 7.765625 Z M 20.101562 7.765625 "/>
</g>
</svg>
