<?xml version="1.0" encoding="UTF-8"?>
<svg xmlns="http://www.w3.org/2000/svg" xmlns:xlink="http://www.w3.org/1999/xlink" width="40px" height="40px" viewBox="0 0 40 45" version="1.1">
<g id="surface1">
<path style=" stroke:none;fill-rule:nonzero;fill:rgb(10.588235%,45.09804%,72.941178%);fill-opacity:1;" d="M 3.347656 40.285156 L 0 0.0742188 L 40 0.15625 L 36.457031 40.285156 L 20.152344 44.925781 Z M 3.347656 40.285156 "/>
<path style=" stroke:none;fill-rule:nonzero;fill:rgb(10.980392%,53.333336%,78.039217%);fill-opacity:1;" d="M 20.152344 41.042969 L 20.152344 3.90625 L 36.625 3.957031 L 33.6875 37.183594 Z M 20.152344 41.042969 "/>
<path style=" stroke:none;fill-rule:nonzero;fill:rgb(100%,100%,100%);fill-opacity:1;" d="M 32.53125 8.652344 L 7.191406 8.652344 L 7.878906 13.503906 L 19.902344 13.503906 L 8.070312 18.496094 L 8.757812 23.1875 L 26.191406 23.1875 L 25.558594 29.742188 L 19.65625 30.875 L 14.304688 29.523438 L 13.890625 25.804688 L 8.976562 25.804688 L 9.636719 33.542969 L 20.179688 36.429688 L 30.28125 33.273438 L 31.570312 18.144531 L 20.890625 18.144531 L 32.53125 13.398438 Z M 32.53125 8.652344 "/>
</g>
</svg>
