<?xml version="1.0" encoding="UTF-8"?>
<svg xmlns="http://www.w3.org/2000/svg" xmlns:xlink="http://www.w3.org/1999/xlink" width="40px" height="40px" viewBox="0 0 40 44" version="1.1">
<g id="surface1">
<path style=" stroke:none;fill-rule:nonzero;fill:rgb(0%,56.862748%,88.627452%);fill-opacity:1;" d="M 39.609375 18.554688 C 39.5 18.464844 38.5 17.714844 36.347656 17.714844 C 35.792969 17.714844 35.21875 17.769531 34.660156 17.863281 C 34.253906 15.066406 31.898438 13.714844 31.808594 13.640625 L 31.234375 13.3125 L 30.863281 13.84375 C 30.398438 14.554688 30.046875 15.359375 29.84375 16.179688 C 29.453125 17.769531 29.695312 19.269531 30.507812 20.546875 C 29.527344 21.09375 27.933594 21.222656 27.601562 21.242188 L 1.277344 21.242188 C 0.59375 21.242188 0.0351562 21.789062 0.0351562 22.464844 C 0 24.730469 0.390625 26.996094 1.1875 29.132812 C 2.09375 31.472656 3.449219 33.207031 5.191406 34.269531 C 7.15625 35.457031 10.363281 36.132812 13.976562 36.132812 C 15.605469 36.132812 17.238281 35.984375 18.851562 35.695312 C 21.09375 35.292969 23.242188 34.523438 25.226562 33.410156 C 26.851562 32.480469 28.316406 31.296875 29.5625 29.902344 C 31.660156 27.582031 32.902344 24.988281 33.808594 22.683594 L 34.179688 22.683594 C 36.460938 22.683594 37.867188 21.789062 38.648438 21.023438 C 39.164062 20.546875 39.554688 19.964844 39.832031 19.304688 L 40 18.832031 Z M 39.609375 18.554688 "/>
<path style=" stroke:none;fill-rule:nonzero;fill:rgb(0%,56.862748%,88.627452%);fill-opacity:1;" d="M 3.726562 20.492188 L 7.246094 20.492188 C 7.414062 20.492188 7.5625 20.363281 7.5625 20.183594 L 7.5625 17.074219 C 7.5625 16.910156 7.433594 16.765625 7.246094 16.765625 L 3.726562 16.765625 C 3.558594 16.765625 3.410156 16.894531 3.410156 17.074219 L 3.410156 20.183594 C 3.429688 20.363281 3.558594 20.492188 3.726562 20.492188 Z M 8.582031 20.492188 L 12.105469 20.492188 C 12.269531 20.492188 12.417969 20.363281 12.417969 20.183594 L 12.417969 17.074219 C 12.417969 16.910156 12.289062 16.765625 12.105469 16.765625 L 8.582031 16.765625 C 8.414062 16.765625 8.265625 16.894531 8.265625 17.074219 L 8.265625 20.183594 C 8.285156 20.363281 8.414062 20.492188 8.582031 20.492188 M 13.53125 20.492188 L 17.054688 20.492188 C 17.21875 20.492188 17.367188 20.363281 17.367188 20.183594 L 17.367188 17.074219 C 17.367188 16.910156 17.238281 16.765625 17.054688 16.765625 L 13.53125 16.765625 C 13.363281 16.765625 13.214844 16.894531 13.214844 17.074219 L 13.214844 20.183594 C 13.214844 20.363281 13.34375 20.492188 13.53125 20.492188 Z M 18.40625 20.492188 L 21.925781 20.492188 C 22.09375 20.492188 22.242188 20.363281 22.242188 20.183594 L 22.242188 17.074219 C 22.242188 16.910156 22.113281 16.765625 21.925781 16.765625 L 18.40625 16.765625 C 18.238281 16.765625 18.089844 16.894531 18.089844 17.074219 L 18.089844 20.183594 C 18.089844 20.363281 18.238281 20.492188 18.40625 20.492188 Z M 8.582031 16.054688 L 12.105469 16.054688 C 12.269531 16.054688 12.417969 15.90625 12.417969 15.742188 L 12.417969 12.636719 C 12.417969 12.472656 12.289062 12.324219 12.105469 12.324219 L 8.582031 12.324219 C 8.414062 12.324219 8.265625 12.453125 8.265625 12.636719 L 8.265625 15.742188 C 8.285156 15.90625 8.414062 16.054688 8.582031 16.054688 M 13.53125 16.054688 L 17.054688 16.054688 C 17.21875 16.054688 17.367188 15.90625 17.367188 15.742188 L 17.367188 12.636719 C 17.367188 12.472656 17.238281 12.324219 17.054688 12.324219 L 13.53125 12.324219 C 13.363281 12.324219 13.214844 12.453125 13.214844 12.636719 L 13.214844 15.742188 C 13.214844 15.90625 13.34375 16.054688 13.53125 16.054688 M 18.40625 16.054688 L 21.925781 16.054688 C 22.09375 16.054688 22.242188 15.90625 22.242188 15.742188 L 22.242188 12.636719 C 22.242188 12.472656 22.09375 12.324219 21.925781 12.324219 L 18.40625 12.324219 C 18.238281 12.324219 18.089844 12.453125 18.089844 12.636719 L 18.089844 15.742188 C 18.089844 15.90625 18.238281 16.054688 18.40625 16.054688 M 18.40625 11.59375 L 21.925781 11.59375 C 22.09375 11.59375 22.242188 11.46875 22.242188 11.285156 L 22.242188 8.179688 C 22.242188 8.015625 22.09375 7.867188 21.925781 7.867188 L 18.40625 7.867188 C 18.238281 7.867188 18.089844 7.996094 18.089844 8.179688 L 18.089844 11.285156 C 18.089844 11.449219 18.238281 11.59375 18.40625 11.59375 M 23.316406 20.492188 L 26.839844 20.492188 C 27.007812 20.492188 27.15625 20.363281 27.15625 20.183594 L 27.15625 17.074219 C 27.15625 16.910156 27.023438 16.765625 26.839844 16.765625 L 23.316406 16.765625 C 23.152344 16.765625 23.003906 16.894531 23.003906 17.074219 L 23.003906 20.183594 C 23.019531 20.363281 23.152344 20.492188 23.316406 20.492188 "/>
</g>
</svg>
