<?xml version="1.0" encoding="UTF-8"?>
<svg xmlns="http://www.w3.org/2000/svg" xmlns:xlink="http://www.w3.org/1999/xlink" width="40px" height="40px" viewBox="0 0 40 25" version="1.1">
<g id="surface1">
<path style=" stroke:none;fill-rule:nonzero;fill:rgb(38.431373%,11.764706%,89.803922%);fill-opacity:1;" d="M 2.03125 12.730469 C 1.929688 12.621094 1.804688 12.535156 1.667969 12.476562 C 1.53125 12.417969 1.382812 12.386719 1.234375 12.386719 C 1.085938 12.386719 0.9375 12.417969 0.800781 12.472656 C 0.664062 12.535156 0.539062 12.617188 0.4375 12.726562 C 0.332031 12.832031 0.25 12.953125 0.195312 13.089844 C 0.140625 13.230469 0.113281 13.375 0.113281 13.519531 C 0.109375 13.667969 0.136719 13.8125 0.195312 13.949219 C 0.253906 14.085938 0.335938 14.210938 0.441406 14.3125 C 0.648438 14.53125 0.9375 14.652344 1.238281 14.644531 C 1.539062 14.648438 1.824219 14.527344 2.035156 14.3125 C 2.144531 14.214844 2.226562 14.089844 2.285156 13.953125 C 2.339844 13.816406 2.371094 13.671875 2.371094 13.523438 C 2.371094 13.375 2.339844 13.230469 2.285156 13.09375 C 2.222656 12.953125 2.140625 12.832031 2.03125 12.730469 Z M 15.375 10.160156 C 15.355469 10.871094 15.390625 11.582031 15.476562 12.285156 L 15.4375 12.285156 C 15.347656 12.113281 15.148438 11.789062 14.847656 11.320312 L 7.578125 0 L 5.371094 0 L 5.371094 14.449219 L 7.070312 14.449219 L 7.070312 4.003906 C 7.085938 3.34375 7.058594 2.683594 6.988281 2.019531 L 7.050781 2.019531 C 7.171875 2.335938 7.328125 2.640625 7.515625 2.925781 L 14.980469 14.449219 L 17.070312 14.449219 L 17.070312 0 L 15.375 0 Z M 28.566406 12.863281 L 22.574219 12.863281 L 22.574219 7.855469 L 27.820312 7.855469 L 27.820312 6.332031 L 22.574219 6.332031 L 22.574219 1.53125 L 28.203125 1.53125 L 28.203125 0 L 20.835938 0 L 20.835938 14.449219 L 28.558594 14.449219 Z M 29.867188 0 L 29.867188 1.53125 L 34.042969 1.53125 L 34.042969 14.449219 L 35.738281 14.449219 L 35.738281 1.53125 L 39.960938 1.53125 L 39.960938 0 Z M 13.242188 18.042969 C 12.820312 18.210938 12.4375 18.464844 12.121094 18.792969 C 11.796875 19.136719 11.542969 19.542969 11.375 19.988281 C 11.210938 20.433594 11.136719 20.90625 11.15625 21.375 C 11.125 22.25 11.429688 23.101562 12.015625 23.753906 C 12.308594 24.0625 12.667969 24.296875 13.0625 24.457031 C 13.457031 24.613281 13.882812 24.683594 14.304688 24.664062 C 14.941406 24.6875 15.578125 24.554688 16.152344 24.277344 L 16.160156 23.539062 C 15.632812 23.847656 15.027344 24 14.417969 23.980469 C 14.089844 23.996094 13.761719 23.9375 13.457031 23.816406 C 13.15625 23.691406 12.878906 23.5 12.65625 23.261719 C 12.191406 22.722656 11.949219 22.027344 11.988281 21.320312 C 11.949219 20.570312 12.207031 19.835938 12.703125 19.273438 C 12.941406 19.015625 13.230469 18.8125 13.554688 18.671875 C 13.875 18.535156 14.226562 18.46875 14.578125 18.480469 C 15.132812 18.46875 15.683594 18.605469 16.171875 18.875 L 16.171875 18.082031 C 15.664062 17.878906 15.121094 17.785156 14.578125 17.800781 C 14.121094 17.796875 13.664062 17.875 13.242188 18.042969 Z M 21.191406 20.308594 C 20.761719 19.859375 20.152344 19.617188 19.527344 19.648438 C 19.199219 19.632812 18.875 19.6875 18.566406 19.804688 C 18.261719 19.921875 17.984375 20.097656 17.75 20.324219 C 17.519531 20.574219 17.34375 20.871094 17.230469 21.191406 C 17.113281 21.515625 17.066406 21.855469 17.089844 22.195312 C 17.054688 22.84375 17.28125 23.480469 17.714844 23.964844 C 17.933594 24.195312 18.195312 24.378906 18.488281 24.5 C 18.78125 24.621094 19.097656 24.679688 19.414062 24.667969 C 19.734375 24.679688 20.054688 24.617188 20.355469 24.496094 C 20.65625 24.371094 20.921875 24.183594 21.144531 23.949219 C 21.589844 23.449219 21.820312 22.792969 21.789062 22.125 C 21.824219 21.460938 21.613281 20.8125 21.191406 20.308594 Z M 20.609375 23.554688 C 20.324219 23.882812 19.902344 24.058594 19.46875 24.03125 C 19.25 24.042969 19.03125 24 18.832031 23.917969 C 18.632812 23.832031 18.453125 23.707031 18.304688 23.542969 C 18 23.167969 17.847656 22.691406 17.875 22.210938 C 17.847656 21.714844 18 21.222656 18.304688 20.832031 C 18.449219 20.667969 18.628906 20.539062 18.828125 20.449219 C 19.03125 20.363281 19.25 20.324219 19.464844 20.332031 C 19.683594 20.320312 19.898438 20.359375 20.09375 20.445312 C 20.292969 20.53125 20.46875 20.660156 20.609375 20.824219 C 20.898438 21.222656 21.039062 21.710938 21.007812 22.199219 C 21.039062 22.679688 20.898438 23.164062 20.609375 23.554688 Z M 24.300781 19.996094 C 24.0625 20.210938 23.886719 20.484375 23.800781 20.792969 L 23.800781 19.796875 L 23.003906 19.796875 L 23.003906 24.554688 L 23.800781 24.554688 L 23.800781 22.128906 C 23.777344 21.6875 23.890625 21.25 24.128906 20.875 C 24.214844 20.742188 24.328125 20.625 24.46875 20.546875 C 24.609375 20.46875 24.765625 20.421875 24.925781 20.417969 C 25.128906 20.402344 25.332031 20.457031 25.503906 20.570312 L 25.503906 19.785156 C 25.359375 19.738281 25.203125 19.714844 25.050781 19.722656 C 24.777344 19.71875 24.511719 19.816406 24.300781 19.996094 Z M 30.167969 21.960938 C 30.207031 21.355469 30.023438 20.761719 29.660156 20.28125 C 29.476562 20.078125 29.253906 19.917969 29 19.8125 C 28.75 19.710938 28.480469 19.664062 28.207031 19.679688 C 27.90625 19.667969 27.609375 19.730469 27.332031 19.847656 C 27.058594 19.96875 26.8125 20.148438 26.613281 20.375 C 26.179688 20.878906 25.957031 21.523438 25.984375 22.183594 C 25.945312 22.839844 26.152344 23.492188 26.566406 24.003906 C 26.765625 24.222656 27.015625 24.394531 27.289062 24.507812 C 27.5625 24.621094 27.863281 24.667969 28.160156 24.65625 C 28.75 24.683594 29.332031 24.527344 29.824219 24.203125 L 29.824219 23.488281 C 29.40625 23.828125 28.882812 24.015625 28.339844 24.019531 C 28.132812 24.03125 27.925781 24 27.730469 23.925781 C 27.535156 23.847656 27.355469 23.738281 27.210938 23.589844 C 26.925781 23.25 26.78125 22.8125 26.804688 22.371094 L 30.175781 22.371094 Z M 26.796875 21.738281 C 26.839844 21.363281 27.007812 21.007812 27.265625 20.734375 C 27.503906 20.480469 27.835938 20.339844 28.183594 20.34375 C 28.351562 20.335938 28.515625 20.363281 28.667969 20.425781 C 28.820312 20.492188 28.953125 20.585938 29.0625 20.710938 C 29.285156 21.003906 29.398438 21.363281 29.382812 21.730469 Z M 26.796875 21.738281 "/>
</g>
</svg>
