<?xml version="1.0" encoding="UTF-8"?>
<svg xmlns="http://www.w3.org/2000/svg" xmlns:xlink="http://www.w3.org/1999/xlink" width="40px" height="40px" viewBox="0 0 40 40" version="1.1">
<g id="surface1">
<path style=" stroke:none;fill-rule:nonzero;fill:rgb(0%,0%,0%);fill-opacity:1;" d="M 18.894531 0.261719 C 15.621094 0.421875 12.625 1.324219 9.882812 2.972656 C 8.347656 3.898438 6.527344 5.417969 5.3125 6.765625 C 1.664062 10.847656 0 15.546875 0.257812 21.078125 C 0.410156 24.410156 1.304688 27.375 2.976562 30.160156 C 4.953125 33.4375 8.277344 36.460938 11.621094 38.015625 C 14.253906 39.238281 16.871094 39.792969 20.015625 39.792969 C 24.15625 39.792969 27.628906 38.777344 30.828125 36.632812 C 32.800781 35.320312 34.492188 33.703125 35.96875 31.742188 C 38.734375 28.058594 40 23.820312 39.773438 18.960938 C 39.648438 16.21875 39.074219 13.898438 37.953125 11.566406 C 36.523438 8.597656 34.429688 6.074219 31.683594 4.027344 C 28.707031 1.792969 25.105469 0.472656 21.523438 0.285156 C 20.074219 0.214844 19.835938 0.207031 18.894531 0.261719 Z M 14.15625 12.503906 C 15.214844 12.765625 16.140625 13.320312 16.949219 14.167969 C 18.140625 15.417969 18.804688 17.015625 19.046875 19.199219 C 19.085938 19.542969 19.117188 19.992188 19.117188 20.210938 L 19.117188 20.597656 L 8.058594 20.597656 L 8.097656 21.316406 C 8.214844 23.441406 9.300781 24.878906 11.203125 25.421875 C 11.867188 25.617188 13.277344 25.628906 13.917969 25.453125 C 15.15625 25.121094 16.21875 24.152344 16.398438 23.191406 L 16.433594 22.972656 L 18.875 22.972656 L 18.824219 23.175781 C 18.457031 24.871094 17.386719 26.238281 15.800781 27.039062 C 14.691406 27.597656 12.949219 27.84375 11.4375 27.65625 C 9.894531 27.464844 8.703125 26.910156 7.6875 25.921875 C 6.640625 24.898438 6.058594 23.730469 5.6875 21.914062 C 5.5 20.976562 5.480469 18.929688 5.652344 18.121094 C 6.082031 16.136719 7.144531 14.457031 8.582031 13.480469 C 9.363281 12.945312 10.441406 12.515625 11.320312 12.382812 C 11.960938 12.285156 13.554688 12.351562 14.15625 12.503906 Z M 25.144531 14.980469 C 26.144531 16.445312 26.984375 17.644531 27.015625 17.644531 C 27.042969 17.644531 27.910156 16.457031 28.941406 15.007812 C 29.976562 13.558594 30.847656 12.355469 30.886719 12.34375 C 30.925781 12.332031 31.617188 12.324219 32.421875 12.332031 L 33.882812 12.351562 L 31.335938 15.75 C 29.9375 17.617188 28.75 19.21875 28.699219 19.292969 C 28.609375 19.429688 28.742188 19.628906 31.515625 23.496094 C 33.121094 25.730469 34.457031 27.597656 34.480469 27.636719 C 34.519531 27.699219 34.1875 27.71875 32.902344 27.71875 L 31.277344 27.714844 L 29.167969 24.574219 C 28.011719 22.84375 27.042969 21.429688 27.015625 21.429688 C 26.992188 21.429688 26.015625 22.84375 24.855469 24.574219 L 22.742188 27.714844 L 21.222656 27.71875 C 20.382812 27.71875 19.695312 27.707031 19.695312 27.695312 C 19.695312 27.675781 20.980469 25.867188 22.550781 23.664062 C 24.125 21.464844 25.394531 19.632812 25.382812 19.59375 C 25.363281 19.550781 24.179688 17.925781 22.75 15.976562 C 21.320312 14.023438 20.144531 12.40625 20.144531 12.375 C 20.144531 12.34375 20.84375 12.316406 21.734375 12.316406 L 23.320312 12.316406 Z M 25.144531 14.980469 "/>
<path style=" stroke:none;fill-rule:nonzero;fill:rgb(0%,0%,0%);fill-opacity:1;" d="M 11.671875 14.5 C 10.738281 14.621094 10.042969 14.96875 9.355469 15.65625 C 8.953125 16.046875 8.816406 16.246094 8.574219 16.746094 C 8.296875 17.316406 8.078125 18.074219 8.078125 18.441406 L 8.078125 18.605469 L 16.488281 18.605469 L 16.488281 18.394531 C 16.488281 18.015625 16.242188 17.207031 15.972656 16.6875 C 15.351562 15.488281 14.222656 14.691406 12.867188 14.507812 C 12.328125 14.429688 12.199219 14.429688 11.671875 14.5 Z M 11.671875 14.5 "/>
</g>
</svg>
