<?xml version="1.0" encoding="UTF-8"?>
<svg xmlns="http://www.w3.org/2000/svg" xmlns:xlink="http://www.w3.org/1999/xlink" width="40px" height="40px" viewBox="0 0 40 32" version="1.1">
<g id="surface1">
<path style=" stroke:none;fill-rule:nonzero;fill:rgb(91.764706%,26.274511%,20.784314%);fill-opacity:1;" d="M 25.378906 8.8125 L 26.601562 8.8125 L 30.078125 5.355469 L 30.25 3.886719 C 23.78125 -1.789062 13.902344 -1.175781 8.191406 5.253906 C 6.605469 7.042969 5.453125 9.167969 4.828125 11.46875 C 5.214844 11.308594 5.644531 11.285156 6.046875 11.394531 L 13 10.253906 C 13 10.253906 13.351562 9.671875 13.535156 9.707031 C 16.628906 6.332031 21.835938 5.9375 25.40625 8.8125 Z M 25.378906 8.8125 "/>
<path style=" stroke:none;fill-rule:nonzero;fill:rgb(25.882354%,52.156866%,95.686275%);fill-opacity:1;" d="M 35.03125 11.46875 C 34.230469 8.542969 32.589844 5.910156 30.308594 3.898438 L 25.429688 8.75 C 27.492188 10.425781 28.664062 12.945312 28.613281 15.589844 L 28.613281 16.453125 C 31.015625 16.453125 32.957031 18.386719 32.957031 20.769531 C 32.957031 23.15625 31.011719 25.085938 28.613281 25.085938 L 19.929688 25.085938 L 19.0625 25.960938 L 19.0625 31.136719 L 19.929688 32 L 28.613281 32 C 33.59375 32.039062 38.011719 28.828125 39.492188 24.101562 C 40.964844 19.375 39.15625 14.242188 35.03125 11.46875 Z M 35.03125 11.46875 "/>
<path style=" stroke:none;fill-rule:nonzero;fill:rgb(20.392157%,65.882355%,32.549021%);fill-opacity:1;" d="M 11.230469 31.953125 L 19.917969 31.953125 L 19.917969 25.039062 L 11.230469 25.039062 C 10.613281 25.039062 10 24.90625 9.4375 24.652344 L 8.214844 25.027344 L 4.714844 28.484375 L 4.410156 29.695312 C 6.375 31.171875 8.769531 31.960938 11.230469 31.953125 Z M 11.230469 31.953125 "/>
<path style=" stroke:none;fill-rule:nonzero;fill:rgb(98.431373%,73.725492%,1.960784%);fill-opacity:1;" d="M 11.230469 9.527344 C 6.40625 9.554688 2.132812 12.628906 0.59375 17.171875 C -0.945312 21.71875 0.589844 26.734375 4.414062 29.660156 L 9.449219 24.648438 C 7.265625 23.667969 6.292969 21.109375 7.28125 18.9375 C 8.269531 16.765625 10.839844 15.800781 13.027344 16.78125 C 13.988281 17.214844 14.761719 17.980469 15.195312 18.9375 L 20.234375 13.929688 C 18.089844 11.144531 14.757812 9.515625 11.230469 9.527344 Z M 11.230469 9.527344 "/>
</g>
</svg>
