<?xml version="1.0" encoding="UTF-8"?>
<svg xmlns="http://www.w3.org/2000/svg" xmlns:xlink="http://www.w3.org/1999/xlink" width="41px" height="40px" viewBox="0 0 41 40" version="1.1">
<g id="surface1">
<path style=" stroke:none;fill-rule:nonzero;fill:rgb(8.627451%,8.627451%,7.843138%);fill-opacity:1;" d="M 20.421875 0 C 9.144531 0 0 9.167969 0 20.480469 C 0 29.527344 5.851562 37.203125 13.964844 39.914062 C 14.984375 40.101562 15.359375 39.46875 15.359375 38.929688 C 15.359375 38.441406 15.339844 36.824219 15.332031 35.113281 C 9.652344 36.355469 8.453125 32.699219 8.453125 32.699219 C 7.523438 30.332031 6.183594 29.703125 6.183594 29.703125 C 4.332031 28.429688 6.324219 28.457031 6.324219 28.457031 C 8.375 28.601562 9.457031 30.566406 9.457031 30.566406 C 11.277344 33.699219 14.234375 32.792969 15.398438 32.269531 C 15.582031 30.945312 16.109375 30.042969 16.695312 29.53125 C 12.160156 29.011719 7.390625 27.257812 7.390625 19.410156 C 7.390625 17.175781 8.1875 15.347656 9.496094 13.914062 C 9.28125 13.398438 8.582031 11.3125 9.691406 8.492188 C 9.691406 8.492188 11.40625 7.941406 15.308594 10.59375 C 16.9375 10.140625 18.683594 9.910156 20.421875 9.902344 C 22.15625 9.910156 23.90625 10.140625 25.535156 10.59375 C 29.433594 7.941406 31.148438 8.492188 31.148438 8.492188 C 32.257812 11.3125 31.558594 13.398438 31.347656 13.914062 C 32.65625 15.347656 33.449219 17.175781 33.449219 19.410156 C 33.449219 27.277344 28.671875 29.007812 24.125 29.515625 C 24.855469 30.152344 25.507812 31.398438 25.507812 33.308594 C 25.507812 36.046875 25.484375 38.253906 25.484375 38.929688 C 25.484375 39.472656 25.851562 40.113281 26.886719 39.910156 C 34.996094 37.199219 40.839844 29.523438 40.839844 20.480469 C 40.839844 9.167969 31.699219 0 20.421875 0 "/>
<path style=" stroke:none;fill-rule:nonzero;fill:rgb(8.627451%,8.627451%,7.843138%);fill-opacity:1;" d="M 7.648438 29.175781 C 7.601562 29.277344 7.445312 29.304688 7.296875 29.234375 C 7.148438 29.167969 7.066406 29.03125 7.113281 28.929688 C 7.160156 28.824219 7.320312 28.792969 7.464844 28.863281 C 7.613281 28.929688 7.699219 29.070312 7.648438 29.175781 M 8.652344 30.074219 C 8.554688 30.164062 8.363281 30.121094 8.234375 29.976562 C 8.101562 29.835938 8.078125 29.644531 8.175781 29.550781 C 8.277344 29.460938 8.460938 29.503906 8.59375 29.648438 C 8.730469 29.792969 8.753906 29.980469 8.652344 30.074219 M 9.34375 31.222656 C 9.214844 31.308594 9.011719 31.226562 8.886719 31.046875 C 8.761719 30.863281 8.761719 30.644531 8.886719 30.558594 C 9.015625 30.46875 9.214844 30.550781 9.34375 30.730469 C 9.46875 30.914062 9.46875 31.132812 9.339844 31.222656 M 10.507812 32.554688 C 10.394531 32.679688 10.15625 32.644531 9.980469 32.476562 C 9.804688 32.3125 9.753906 32.078125 9.867188 31.953125 C 9.980469 31.828125 10.21875 31.863281 10.394531 32.03125 C 10.574219 32.195312 10.625 32.433594 10.507812 32.554688 M 12.011719 33.003906 C 11.964844 33.164062 11.734375 33.238281 11.503906 33.167969 C 11.273438 33.097656 11.121094 32.910156 11.167969 32.75 C 11.214844 32.589844 11.445312 32.511719 11.679688 32.585938 C 11.910156 32.65625 12.0625 32.839844 12.011719 33.003906 M 13.726562 33.195312 C 13.734375 33.363281 13.539062 33.503906 13.292969 33.507812 C 13.050781 33.511719 12.851562 33.375 12.851562 33.210938 C 12.851562 33.039062 13.042969 32.898438 13.285156 32.894531 C 13.527344 32.890625 13.726562 33.027344 13.726562 33.195312 M 15.410156 33.128906 C 15.441406 33.296875 15.273438 33.464844 15.03125 33.507812 C 14.792969 33.554688 14.574219 33.449219 14.542969 33.289062 C 14.515625 33.117188 14.6875 32.949219 14.921875 32.90625 C 15.164062 32.863281 15.378906 32.960938 15.410156 33.128906 "/>
</g>
</svg>
