<?xml version="1.0" encoding="UTF-8"?>
<svg xmlns="http://www.w3.org/2000/svg" xmlns:xlink="http://www.w3.org/1999/xlink" width="40px" height="40px" viewBox="0 0 40 40" version="1.1">
<g id="surface1">
<path style=" stroke:none;fill-rule:nonzero;fill:rgb(25.882354%,52.156866%,95.686275%);fill-opacity:1;" d="M 2.726562 35.601562 L 9.089844 35.601562 L 9.089844 20.148438 L 0 13.328125 L 0 32.875 C 0 34.382812 1.21875 35.601562 2.726562 35.601562 Z M 2.726562 35.601562 "/>
<path style=" stroke:none;fill-rule:nonzero;fill:rgb(20.392157%,65.882355%,32.549021%);fill-opacity:1;" d="M 30.910156 35.601562 L 37.273438 35.601562 C 38.78125 35.601562 40 34.382812 40 32.875 L 40 13.328125 L 30.910156 20.148438 Z M 30.910156 35.601562 "/>
<path style=" stroke:none;fill-rule:nonzero;fill:rgb(98.431373%,73.725492%,1.568628%);fill-opacity:1;" d="M 30.910156 8.328125 L 30.910156 20.148438 L 40 13.328125 L 40 9.691406 C 40 6.324219 36.152344 4.398438 33.453125 6.421875 Z M 30.910156 8.328125 "/>
<path style=" stroke:none;fill-rule:evenodd;fill:rgb(91.764706%,26.274511%,20.784314%);fill-opacity:1;" d="M 9.089844 20.148438 L 9.089844 8.328125 L 20 16.511719 L 30.910156 8.328125 L 30.910156 20.148438 L 20 28.328125 Z M 9.089844 20.148438 "/>
<path style=" stroke:none;fill-rule:nonzero;fill:rgb(77.254903%,13.333334%,12.156863%);fill-opacity:1;" d="M 0 9.691406 L 0 13.328125 L 9.089844 20.148438 L 9.089844 8.328125 L 6.546875 6.421875 C 3.847656 4.398438 0 6.324219 0 9.691406 Z M 0 9.691406 "/>
</g>
</svg>
