<?xml version="1.0" encoding="UTF-8"?>
<svg xmlns="http://www.w3.org/2000/svg" xmlns:xlink="http://www.w3.org/1999/xlink" width="80px" height="80px" viewBox="0 0 80 31" version="1.1">
<g id="surface1">
<path style=" stroke:none;fill-rule:evenodd;fill:rgb(21.568628%,50.588238%,76.078433%);fill-opacity:1;" d="M 0.46875 3.152344 L 0.46875 0.0625 L 3.492188 0.0625 L 3.492188 25.40625 L 0.46875 25.40625 Z M 31.28125 16.207031 C 31.347656 20.839844 34.242188 24.503906 37.652344 24.441406 C 41.0625 24.375 43.828125 20.582031 43.761719 16.015625 C 43.699219 11.382812 40.804688 7.71875 37.394531 7.78125 C 33.984375 7.78125 31.21875 11.578125 31.28125 16.207031 Z M 56.4375 10.613281 C 56.5 10.804688 56.308594 10.355469 56.308594 10.355469 Z M 58.496094 29.714844 C 58.625 29.457031 58.816406 29.136719 59.074219 28.683594 Z M 58.625 9.003906 C 58.6875 9.132812 58.6875 9.195312 58.753906 9.324219 L 59.78125 11.835938 Z M 45.949219 21.675781 C 47.816406 23.410156 49.488281 24.246094 51.675781 24.246094 C 53.863281 24.246094 55.859375 23.152344 55.859375 21.09375 C 55.859375 19.359375 54.3125 18.328125 51.546875 17.171875 C 49.230469 16.144531 47.496094 15.4375 46.59375 13.957031 C 46.722656 14.597656 46.785156 15.242188 46.785156 15.949219 C 46.785156 21.609375 42.734375 26.175781 37.652344 26.175781 C 32.632812 26.175781 28.515625 21.609375 28.515625 15.949219 C 28.515625 12.542969 29.996094 9.519531 32.3125 7.652344 L 26.136719 7.652344 L 26.136719 25.40625 L 23.371094 25.40625 L 23.371094 7.71875 L 20.925781 7.71875 L 20.925781 5.851562 L 23.371094 5.851562 C 23.691406 2.121094 26.007812 0 29.160156 0 C 31.21875 0 32.375 0.191406 33.019531 0.515625 L 33.019531 3.34375 L 32.957031 3.34375 C 31.992188 2.445312 30.960938 1.738281 28.710938 1.738281 C 26.910156 1.738281 25.6875 3.214844 26.136719 5.851562 L 36.367188 5.851562 C 36.816406 5.789062 37.203125 5.722656 37.652344 5.722656 C 41.320312 5.722656 44.472656 8.167969 45.886719 11.640625 L 45.886719 11.0625 C 45.886719 7.394531 49.359375 5.851562 53.027344 5.851562 L 53.414062 5.851562 C 54.699219 5.851562 56.5 6.238281 57.660156 6.558594 L 59.847656 11.898438 L 62.933594 19.488281 L 63.320312 20.710938 L 63.707031 19.488281 L 67.628906 9.777344 C 68.339844 7.074219 71.167969 5.917969 74.320312 5.980469 C 75.863281 5.980469 77.023438 6.175781 78.4375 6.625 L 78.4375 9.582031 C 76.703125 8.359375 75.480469 7.589844 73.550781 7.589844 C 71.875 7.589844 69.816406 8.359375 69.816406 10.871094 C 69.753906 12.734375 70.910156 13.121094 74.257812 14.792969 C 76.957031 15.949219 79.46875 17.300781 79.53125 20.324219 C 79.53125 25.40625 74.578125 26.242188 72.132812 26.304688 C 69.945312 26.304688 68.015625 25.789062 66.921875 24.824219 L 66.921875 21.480469 L 67.117188 21.609375 C 69.109375 23.476562 70.78125 24.441406 73.035156 24.441406 C 75.222656 24.441406 77.214844 23.347656 77.214844 21.289062 C 77.214844 19.550781 75.671875 18.523438 72.90625 17.363281 C 70.269531 16.207031 68.53125 15.4375 67.824219 13.570312 C 66.730469 16.207031 61.777344 28.425781 60.617188 31 L 57.851562 31 L 59.074219 28.683594 C 59.71875 27.332031 60.746094 25.277344 61.582031 23.28125 L 56.4375 10.742188 C 56.371094 10.675781 56.308594 10.484375 56.117188 10.097656 C 55.730469 9.195312 55.34375 8.359375 54.25 7.910156 C 53.671875 7.71875 53.027344 7.589844 52.253906 7.589844 C 50.582031 7.589844 48.394531 8.359375 48.394531 10.871094 C 48.332031 12.734375 49.617188 13.121094 52.964844 14.792969 C 55.664062 16.015625 58.171875 17.300781 58.238281 20.324219 C 58.238281 25.40625 53.285156 26.242188 50.839844 26.304688 C 48.910156 26.304688 47.171875 25.855469 46.015625 25.148438 L 46.015625 21.675781 M 9.152344 5.980469 L 9.21875 8.167969 L 9.21875 8.296875 C 9.28125 8.234375 9.28125 8.105469 9.347656 8.039062 C 10.441406 6.816406 11.855469 5.660156 15.199219 5.660156 C 18.417969 5.660156 20.476562 8.359375 20.539062 10.097656 L 20.539062 25.339844 L 17.773438 25.339844 L 17.773438 11.382812 C 17.773438 9.261719 15.90625 7.71875 13.59375 7.71875 C 11.660156 7.71875 9.21875 9.453125 9.152344 11.191406 L 9.152344 25.40625 L 6.386719 25.40625 L 6.386719 5.980469 Z M 9.152344 5.980469 "/>
</g>
</svg>
