<?xml version="1.0" encoding="UTF-8"?>
<svg xmlns="http://www.w3.org/2000/svg" xmlns:xlink="http://www.w3.org/1999/xlink" width="40px" height="40px" viewBox="0 0 40 74" version="1.1">
<g id="surface1">
<path style=" stroke:none;fill-rule:nonzero;fill:rgb(90.588236%,43.529412%,0%);fill-opacity:1;" d="M 38.316406 58.351562 L 38.035156 58.351562 L 38.035156 58.195312 L 38.789062 58.195312 L 38.789062 58.351562 L 38.511719 58.351562 L 38.511719 59.128906 L 38.316406 59.128906 Z M 39.820312 58.390625 L 39.816406 58.390625 L 39.539062 59.128906 L 39.410156 59.128906 L 39.132812 58.390625 L 39.132812 59.128906 L 38.945312 59.128906 L 38.945312 58.195312 L 39.21875 58.195312 L 39.472656 58.859375 L 39.730469 58.195312 L 40 58.195312 L 40 59.128906 L 39.820312 59.128906 Z M 39.820312 58.390625 "/>
<path style=" stroke:none;fill-rule:nonzero;fill:rgb(32.549021%,50.980395%,63.137257%);fill-opacity:1;" d="M 13.226562 39.253906 C 13.226562 39.253906 11.273438 40.382812 14.613281 40.761719 C 18.65625 41.222656 20.722656 41.15625 25.179688 40.316406 C 25.179688 40.316406 26.351562 41.046875 27.988281 41.679688 C 17.996094 45.9375 5.378906 41.433594 13.226562 39.253906 M 12.003906 33.695312 C 12.003906 33.695312 9.816406 35.308594 13.15625 35.652344 C 17.476562 36.09375 20.886719 36.128906 26.789062 35 C 26.789062 35 27.605469 35.824219 28.890625 36.273438 C 16.8125 39.785156 3.359375 36.550781 12.003906 33.695312 "/>
<path style=" stroke:none;fill-rule:nonzero;fill:rgb(90.588236%,43.529412%,0%);fill-opacity:1;" d="M 22.292969 24.269531 C 24.757812 27.089844 21.648438 29.625 21.648438 29.625 C 21.648438 29.625 27.898438 26.417969 25.027344 22.398438 C 22.347656 18.652344 20.289062 16.789062 31.421875 10.371094 C 31.421875 10.371094 13.949219 14.710938 22.292969 24.269531 "/>
<path style=" stroke:none;fill-rule:nonzero;fill:rgb(32.549021%,50.980395%,63.137257%);fill-opacity:1;" d="M 35.507812 43.363281 C 35.507812 43.363281 36.949219 44.546875 33.917969 45.460938 C 28.152344 47.199219 9.917969 47.722656 4.851562 45.53125 C 3.03125 44.742188 6.445312 43.648438 7.519531 43.417969 C 8.640625 43.175781 9.28125 43.222656 9.28125 43.222656 C 7.257812 41.804688 -3.804688 46.007812 3.660156 47.210938 C 24.027344 50.496094 40.789062 45.734375 35.507812 43.363281 M 14.164062 27.941406 C 14.164062 27.941406 4.886719 30.128906 10.878906 30.925781 C 13.40625 31.261719 18.449219 31.1875 23.144531 30.796875 C 26.984375 30.472656 30.835938 29.789062 30.835938 29.789062 C 30.835938 29.789062 29.484375 30.367188 28.503906 31.03125 C 19.085938 33.492188 0.894531 32.347656 6.132812 29.828125 C 10.5625 27.699219 14.164062 27.941406 14.164062 27.941406 M 30.800781 37.1875 C 40.375 32.242188 35.945312 27.484375 32.855469 28.125 C 32.101562 28.285156 31.761719 28.417969 31.761719 28.417969 C 31.761719 28.417969 32.042969 27.980469 32.582031 27.792969 C 38.691406 25.65625 43.394531 34.09375 30.605469 37.4375 C 30.605469 37.4375 30.753906 37.304688 30.800781 37.1875 "/>
<path style=" stroke:none;fill-rule:nonzero;fill:rgb(90.588236%,43.529412%,0%);fill-opacity:1;" d="M 25.027344 0.00390625 C 25.027344 0.00390625 30.328125 5.28125 20 13.390625 C 11.714844 19.898438 18.109375 23.609375 19.996094 27.847656 C 15.160156 23.507812 11.609375 19.6875 13.992188 16.132812 C 17.484375 10.914062 27.167969 8.382812 25.027344 0.00390625 "/>
<path style=" stroke:none;fill-rule:nonzero;fill:rgb(32.549021%,50.980395%,63.137257%);fill-opacity:1;" d="M 15.101562 50.597656 C 24.292969 51.179688 38.40625 50.269531 38.738281 45.945312 C 38.738281 45.945312 38.097656 47.585938 31.144531 48.886719 C 23.300781 50.355469 13.625 50.183594 7.890625 49.246094 C 7.890625 49.242188 9.0625 50.210938 15.101562 50.597656 "/>
<path style=" stroke:none;fill-rule:nonzero;fill:rgb(90.588236%,43.529412%,0%);fill-opacity:1;" d="M 13.597656 67.121094 C 12.730469 67.867188 11.816406 68.289062 10.992188 68.289062 C 9.820312 68.289062 9.1875 67.589844 9.1875 66.46875 C 9.1875 65.253906 9.867188 64.367188 12.589844 64.367188 L 13.597656 64.367188 L 13.597656 67.121094 M 15.988281 69.804688 L 15.988281 61.496094 C 15.988281 59.375 14.773438 57.972656 11.835938 57.972656 C 10.125 57.972656 8.625 58.394531 7.402344 58.929688 L 7.753906 60.402344 C 8.714844 60.050781 9.960938 59.722656 11.179688 59.722656 C 12.871094 59.722656 13.597656 60.402344 13.597656 61.800781 L 13.597656 62.851562 L 12.753906 62.851562 C 8.644531 62.851562 6.792969 64.4375 6.792969 66.816406 C 6.792969 68.871094 8.015625 70.039062 10.3125 70.039062 C 11.789062 70.039062 12.894531 69.433594 13.925781 68.542969 L 14.113281 69.804688 Z M 23.972656 69.804688 L 20.988281 69.804688 L 17.398438 58.183594 L 20.003906 58.183594 L 22.230469 65.324219 L 22.726562 67.472656 C 23.855469 64.367188 24.652344 61.214844 25.050781 58.183594 L 27.585938 58.183594 C 26.90625 62.011719 25.683594 66.210938 23.972656 69.804688 M 35.417969 67.121094 C 34.550781 67.867188 33.632812 68.289062 32.808594 68.289062 C 31.640625 68.289062 31.003906 67.589844 31.003906 66.46875 C 31.003906 65.253906 31.683594 64.367188 34.40625 64.367188 L 35.417969 64.367188 L 35.417969 67.121094 M 37.808594 69.804688 L 37.808594 61.496094 C 37.808594 59.375 36.589844 57.972656 33.65625 57.972656 C 31.941406 57.972656 30.441406 58.394531 29.222656 58.929688 L 29.574219 60.402344 C 30.535156 60.050781 31.78125 59.722656 33 59.722656 C 34.6875 59.722656 35.417969 60.402344 35.417969 61.800781 L 35.417969 62.851562 L 34.570312 62.851562 C 30.464844 62.851562 28.609375 64.4375 28.609375 66.816406 C 28.609375 68.871094 29.832031 70.039062 32.128906 70.039062 C 33.609375 70.039062 34.710938 69.433594 35.746094 68.542969 L 35.933594 69.804688 Z M 4.171875 71.777344 C 3.488281 72.769531 2.386719 73.550781 1.179688 73.996094 L 0 72.613281 C 0.917969 72.144531 1.703125 71.386719 2.070312 70.683594 C 2.386719 70.058594 2.519531 69.25 2.519531 67.316406 L 2.519531 54.050781 L 5.058594 54.050781 L 5.058594 67.136719 C 5.058594 69.71875 4.851562 70.761719 4.171875 71.777344 "/>
</g>
</svg>
