<?xml version="1.0" encoding="UTF-8"?>
<svg xmlns="http://www.w3.org/2000/svg" xmlns:xlink="http://www.w3.org/1999/xlink" width="40px" height="40px" viewBox="0 0 40 65" version="1.1">
<g id="surface1">
<path style=" stroke:none;fill-rule:nonzero;fill:rgb(82.745099%,21.960784%,20%);fill-opacity:1;" d="M 39.171875 26.386719 C 39.171875 37.210938 30.570312 45.996094 19.949219 45.996094 C 9.332031 45.996094 0.730469 37.210938 0.730469 26.386719 C 0.730469 15.558594 9.332031 6.773438 19.949219 6.773438 C 30.570312 6.773438 39.171875 15.558594 39.171875 26.386719 "/>
<path style=" stroke:none;fill-rule:nonzero;fill:rgb(93.725491%,23.921569%,22.745098%);fill-opacity:1;" d="M 1.519531 31.242188 C 1.519531 31.242188 0.125 10.796875 19.019531 10.207031 L 17.703125 8.011719 L 7.457031 11.445312 L 4.527344 14.800781 L 1.96875 19.6875 L 0.511719 25.382812 L 0.945312 29.1875 "/>
<path style=" stroke:none;fill-rule:nonzero;fill:rgb(13.725491%,12.156863%,12.54902%);fill-opacity:1;" d="M 6.789062 13.007812 C 3.425781 16.457031 1.332031 21.203125 1.332031 26.464844 C 1.332031 31.722656 3.425781 36.46875 6.789062 39.917969 C 10.167969 43.367188 14.804688 45.488281 19.949219 45.488281 C 25.097656 45.488281 29.730469 43.367188 33.113281 39.917969 C 36.476562 36.46875 38.566406 31.722656 38.566406 26.464844 C 38.566406 21.203125 36.476562 16.457031 33.113281 13.007812 C 29.730469 9.574219 25.097656 7.441406 19.949219 7.441406 C 14.820312 7.441406 10.167969 9.558594 6.789062 13.007812 Z M 5.9375 40.738281 C 2.355469 37.089844 0.140625 32.03125 0.140625 26.464844 C 0.140625 20.894531 2.355469 15.835938 5.9375 12.171875 C 9.519531 8.523438 14.476562 6.25 19.949219 6.25 C 25.421875 6.25 30.382812 8.523438 33.964844 12.171875 C 37.542969 15.824219 39.761719 20.878906 39.761719 26.464844 C 39.761719 32.03125 37.542969 37.089844 33.964844 40.738281 C 30.382812 44.40625 25.421875 46.664062 19.949219 46.664062 C 14.476562 46.664062 9.519531 44.40625 5.9375 40.738281 Z M 5.9375 40.738281 "/>
<path style=" stroke:none;fill-rule:nonzero;fill:rgb(94.117647%,83.92157%,71.764708%);fill-opacity:1;" d="M 28.042969 26.496094 L 25.113281 26.925781 L 21.160156 27.375 L 18.601562 27.4375 L 16.105469 27.359375 L 14.199219 26.773438 L 12.507812 24.949219 L 11.191406 21.21875 L 10.898438 20.414062 L 9.144531 19.828125 L 8.121094 18.140625 L 7.394531 15.730469 L 8.199219 13.609375 L 10.105469 12.945312 L 11.640625 13.671875 L 12.371094 15.28125 L 13.253906 15.140625 L 13.546875 14.769531 L 13.253906 13.085938 L 13.175781 10.964844 L 13.609375 8.042969 L 13.59375 6.371094 L 14.929688 4.238281 L 17.269531 2.550781 L 21.359375 0.804688 L 25.902344 1.46875 L 29.855469 4.316406 L 31.683594 7.238281 L 32.863281 9.355469 L 33.15625 14.617188 L 32.273438 19.148438 L 30.660156 23.167969 L 29.144531 25.320312 "/>
<path style=" stroke:none;fill-rule:nonzero;fill:rgb(20%,31.37255%,38.039216%);fill-opacity:1;" d="M 25.5625 39.128906 L 15.097656 39.5625 L 15.097656 41.3125 L 15.980469 47.453125 L 15.546875 47.960938 L 8.230469 45.472656 L 7.71875 44.589844 L 6.992188 36.332031 L 5.269531 31.382812 L 4.898438 30.207031 L 10.757812 26.183594 L 12.585938 25.457031 L 14.199219 27.4375 L 15.59375 28.675781 L 17.207031 29.1875 L 17.933594 29.402344 L 18.820312 33.207031 L 19.484375 34.011719 L 21.175781 33.421875 L 19.996094 35.695312 L 26.351562 38.699219 L 25.5625 39.128906 "/>
<path style=" stroke:none;fill-rule:nonzero;fill:rgb(42.745098%,41.960785%,42.745098%);fill-opacity:1;" d="M 8.199219 13.640625 L 10.105469 12.976562 L 11.640625 13.703125 L 12.371094 15.3125 L 13.253906 15.171875 L 13.472656 14.292969 L 13.035156 12.605469 L 13.472656 8.585938 L 13.097656 6.386719 L 14.417969 4.855469 L 17.269531 2.597656 L 16.460938 1.5 L 12.433594 3.480469 L 10.742188 4.792969 L 9.796875 6.835938 L 8.339844 8.816406 L 7.90625 11.152344 L 8.199219 13.640625 "/>
<path style=" stroke:none;fill-rule:nonzero;fill:rgb(86.274511%,85.09804%,84.705883%);fill-opacity:1;" d="M 11.207031 6.773438 C 11.207031 6.773438 12.308594 4.066406 16.695312 2.753906 C 21.082031 1.4375 16.914062 1.808594 16.914062 1.808594 L 12.152344 3.632812 L 10.324219 5.460938 L 9.519531 6.914062 L 11.207031 6.773438 M 9.007812 13.132812 C 9.007812 13.132812 7.472656 8.011719 13.332031 7.285156 L 13.113281 6.402344 L 9.082031 7.347656 L 7.90625 11.152344 L 8.199219 13.640625 L 9.007812 13.132812 "/>
<path style=" stroke:none;fill-rule:nonzero;fill:rgb(96.862745%,89.411765%,80.392158%);fill-opacity:1;" d="M 11.347656 19.921875 L 12.308594 18.992188 C 12.308594 18.992188 12.742188 19.039062 12.820312 19.550781 C 12.898438 20.058594 13.113281 24.667969 16.261719 27.144531 C 16.554688 27.375 13.921875 26.773438 13.921875 26.773438 L 11.578125 23.121094 M 24.816406 18.527344 C 24.816406 18.527344 24.988281 16.316406 25.59375 16.488281 C 26.199219 16.65625 26.199219 17.261719 26.199219 17.261719 C 26.199219 17.261719 24.742188 18.1875 24.816406 18.527344 M 30.894531 10.425781 C 30.894531 10.425781 29.683594 10.671875 29.578125 11.738281 C 29.46875 12.804688 30.894531 11.957031 31.113281 11.878906 M 22.042969 10.5 C 22.042969 10.5 20.429688 10.71875 20.429688 11.738281 C 20.429688 12.761719 22.261719 12.683594 22.773438 12.25 M 12.089844 15.25 C 12.089844 15.25 9.316406 13.5625 9.023438 15.171875 C 8.726562 16.78125 8.078125 17.941406 9.457031 19.628906 L 8.511719 19.332031 L 7.628906 17.074219 L 7.332031 14.878906 L 9.023438 13.132812 L 10.929688 13.269531 L 12.03125 14.152344 L 12.089844 15.25 M 13.410156 10.640625 C 13.410156 10.640625 14.648438 4.207031 20.941406 2.96875 C 26.121094 1.949219 28.847656 3.1875 29.871094 4.363281 C 29.871094 4.363281 25.253906 -1.113281 20.863281 0.558594 C 16.476562 2.242188 13.253906 5.304688 13.332031 7.269531 C 13.457031 10.640625 13.410156 10.640625 13.410156 10.640625 M 30.382812 5.089844 C 30.382812 5.089844 28.257812 5.011719 28.183594 6.914062 C 28.183594 6.914062 28.183594 7.207031 28.320312 7.5 C 28.320312 7.5 30.011719 5.597656 31.035156 6.621094 "/>
<path style=" stroke:none;fill-rule:nonzero;fill:rgb(96.862745%,89.411765%,80.392158%);fill-opacity:1;" d="M 21.097656 7.703125 C 21.097656 7.703125 20.726562 4.792969 18.246094 6.480469 C 16.632812 7.578125 16.789062 9.109375 17.066406 9.402344 C 17.363281 9.699219 17.285156 10.285156 17.5 9.882812 C 17.71875 9.480469 17.65625 8.167969 18.460938 7.796875 C 19.253906 7.425781 20.585938 7.023438 21.097656 7.703125 "/>
<path style=" stroke:none;fill-rule:nonzero;fill:rgb(28.627452%,44.705883%,54.509807%);fill-opacity:1;" d="M 14.214844 27.4375 L 7.332031 30.5 C 7.332031 30.5 10.183594 41.820312 8.726562 45.332031 L 7.703125 44.960938 L 7.625 40.644531 L 5.71875 32.480469 L 4.914062 30.222656 L 12.089844 25.394531 L 14.214844 27.4375 M 14.914062 33.703125 L 15.890625 34.894531 L 15.890625 39.269531 L 14.726562 39.269531 C 14.726562 39.269531 14.585938 36.207031 14.585938 35.835938 C 14.585938 35.464844 14.726562 34.152344 14.726562 34.152344 M 14.945312 39.933594 L 11.640625 40.074219 L 12.585938 40.738281 L 14.929688 41.109375 "/>
<path style=" stroke:none;fill-rule:nonzero;fill:rgb(20%,31.37255%,38.039216%);fill-opacity:1;" d="M 26.214844 39.207031 L 28.925781 39.128906 L 29.59375 45.84375 L 26.816406 46.214844 L 26.214844 39.207031 "/>
<path style=" stroke:none;fill-rule:nonzero;fill:rgb(20%,31.37255%,38.039216%);fill-opacity:1;" d="M 26.941406 39.207031 L 31.035156 38.992188 C 31.035156 38.992188 32.722656 34.753906 32.722656 34.539062 C 32.722656 34.320312 34.179688 28.398438 34.179688 28.398438 L 30.878906 24.964844 L 30.210938 24.375 L 28.460938 26.125 L 28.460938 32.914062 L 26.941406 39.207031 "/>
<path style=" stroke:none;fill-rule:nonzero;fill:rgb(28.627452%,44.705883%,54.509807%);fill-opacity:1;" d="M 28.769531 38.699219 L 26.214844 39.207031 L 26.585938 41.25 C 27.53125 41.683594 29.144531 40.523438 29.144531 40.523438 M 28.847656 25.90625 L 33.980469 29.710938 L 34.117188 27.964844 L 30.242188 24.390625 L 28.847656 25.90625 "/>
<path style=" stroke:none;fill-rule:nonzero;fill:rgb(100%,100%,100%);fill-opacity:1;" d="M 17.484375 53.59375 L 15.964844 47.453125 L 15.207031 42.921875 L 15.082031 39.5625 L 21.949219 39.191406 L 26.214844 39.191406 L 25.824219 46.863281 L 26.492188 52.789062 L 26.414062 53.886719 L 20.847656 54.320312 L 17.484375 53.59375 "/>
<path style=" stroke:none;fill-rule:nonzero;fill:rgb(86.274511%,85.09804%,84.705883%);fill-opacity:1;" d="M 25.265625 39.128906 C 25.265625 39.128906 24.894531 46.726562 25.996094 52.136719 C 25.996094 52.136719 23.792969 53.53125 20.585938 53.886719 L 26.742188 53.667969 L 27.46875 53.238281 L 26.585938 41.265625 L 26.351562 38.699219 "/>
<path style=" stroke:none;fill-rule:nonzero;fill:rgb(100%,100%,100%);fill-opacity:1;" d="M 29.699219 45.269531 L 32.554688 44.464844 L 37.964844 44.171875 L 38.769531 41.683594 L 37.3125 37.367188 L 35.621094 37.152344 L 33.28125 37.878906 L 31.050781 38.976562 L 29.855469 38.757812 L 28.925781 39.128906 "/>
<path style=" stroke:none;fill-rule:nonzero;fill:rgb(86.274511%,85.09804%,84.705883%);fill-opacity:1;" d="M 29.65625 43.800781 C 29.65625 43.800781 31.5625 42.921875 31.855469 42.996094 L 31.050781 38.976562 L 31.996094 38.605469 C 31.996094 38.605469 32.660156 42.410156 32.660156 42.84375 C 32.660156 42.84375 36.753906 43.058594 37.125 43.058594 C 37.125 43.058594 38.011719 41.375 37.792969 39.625 L 38.597656 41.960938 L 38.675781 43.277344 L 37.5 45.023438 L 36.179688 45.316406 L 33.980469 45.238281 L 33.25 44.296875 L 30.691406 44.667969 L 29.886719 44.960938 "/>
<path style=" stroke:none;fill-rule:nonzero;fill:rgb(100%,100%,100%);fill-opacity:1;" d="M 26.769531 38.621094 L 25.160156 34.539062 L 23.46875 32.125 C 23.46875 32.125 23.839844 31.101562 24.351562 31.101562 L 26.042969 31.101562 L 27.65625 31.691406 L 27.515625 34.398438 L 26.769531 38.621094 "/>
<path style=" stroke:none;fill-rule:nonzero;fill:rgb(86.274511%,85.09804%,84.705883%);fill-opacity:1;" d="M 27.097656 37.226562 C 27.097656 37.226562 25.050781 33.285156 25.050781 32.695312 C 25.050781 32.695312 25.421875 31.816406 25.933594 32.03125 C 26.445312 32.25 27.546875 32.835938 27.546875 32.835938 L 27.546875 31.445312 L 25.050781 30.933594 L 23.359375 31.148438 L 26.214844 37.894531 L 26.800781 37.972656 "/>
<path style=" stroke:none;fill-rule:nonzero;fill:rgb(100%,100%,100%);fill-opacity:1;" d="M 18.136719 27.59375 L 16.105469 27.375 L 14.199219 26.789062 L 14.199219 27.453125 L 15.128906 28.472656 L 18.058594 29.789062 "/>
<path style=" stroke:none;fill-rule:nonzero;fill:rgb(86.274511%,85.09804%,84.705883%);fill-opacity:1;" d="M 14.867188 27.808594 C 14.867188 27.808594 17.128906 28.753906 17.875 28.535156 L 17.949219 29.417969 L 15.90625 28.984375 L 14.664062 28.101562 L 14.867188 27.808594 "/>
<path style=" stroke:none;fill-rule:nonzero;fill:rgb(82.745099%,21.960784%,20%);fill-opacity:1;" d="M 29.699219 31.351562 C 28.460938 31.320312 27.328125 31.164062 26.351562 30.886719 C 26.414062 30.484375 26.289062 30.097656 26.398438 29.804688 C 26.679688 29.601562 27.128906 29.601562 27.546875 29.558594 C 27.191406 29.386719 26.679688 29.308594 26.273438 29.417969 C 26.257812 29.140625 26.136719 28.96875 26.058594 28.753906 C 26.753906 28.503906 28.398438 26.882812 29.328125 27.40625 C 29.777344 27.667969 29.964844 29.125 29.996094 29.851562 C 30.027344 30.4375 29.933594 31.027344 29.699219 31.351562 "/>
<path style="fill-rule:nonzero;fill:rgb(0%,0%,0%);fill-opacity:1;stroke-width:2;stroke-linecap:butt;stroke-linejoin:miter;stroke:rgb(82.745099%,21.960784%,20%);stroke-opacity:1;stroke-miterlimit:4;" d="M 190.103214 201.132332 C 182.177038 200.931851 174.925962 199.929447 168.675034 198.15018 C 169.075093 195.56899 168.274975 193.088041 168.975079 191.208534 C 170.775346 189.905409 173.650772 189.905409 176.32617 189.629748 C 174.050832 188.527103 170.775346 188.025901 168.17496 188.727584 C 168.074945 186.948317 167.29983 185.845673 166.799756 184.467368 C 171.250416 182.863522 181.776979 172.463582 187.727862 175.821635 C 190.603288 177.500661 191.803467 186.848077 192.003496 191.509255 C 192.203526 195.268269 191.603437 199.052344 190.103214 201.132332 Z M 190.103214 201.132332 " transform="matrix(0.156227,0,0,0.155875,0,0)"/>
<path style=" stroke:none;fill-rule:nonzero;fill:rgb(82.745099%,21.960784%,20%);fill-opacity:1;" d="M 23.765625 29.324219 C 23.765625 29.417969 23.765625 29.511719 23.75 29.601562 C 23.359375 29.851562 22.742188 29.851562 22.308594 30.066406 C 22.925781 30.097656 23.421875 30.253906 23.855469 30.453125 C 23.839844 30.6875 23.839844 30.933594 23.824219 31.164062 C 23.113281 31.644531 22.460938 32.371094 21.625 32.835938 C 21.222656 33.050781 19.84375 33.609375 19.421875 33.5 C 19.191406 33.4375 19.160156 33.144531 19.066406 32.867188 C 18.867188 32.277344 18.402344 31.320312 18.355469 30.421875 C 18.308594 29.292969 18.183594 27.390625 19.40625 27.625 C 20.398438 27.808594 21.546875 28.257812 22.308594 28.675781 C 22.789062 28.953125 23.050781 29.261719 23.765625 29.324219 "/>
<path style="fill-rule:nonzero;fill:rgb(0%,0%,0%);fill-opacity:1;stroke-width:2;stroke-linecap:butt;stroke-linejoin:miter;stroke:rgb(82.745099%,21.960784%,20%);stroke-opacity:1;stroke-miterlimit:4;" d="M 152.122577 188.126142 C 152.122577 188.727584 152.122577 189.329026 152.022562 189.905409 C 149.522191 191.509255 145.571605 191.509255 142.796193 192.88756 C 146.746779 193.088041 149.922251 194.090445 152.697663 195.36851 C 152.597648 196.872115 152.597648 198.450901 152.497633 199.929447 C 147.946958 203.011839 143.771338 207.673017 138.420544 210.655168 C 135.845162 212.033474 127.018852 215.617067 124.318451 214.915385 C 122.843232 214.514423 122.643202 212.634916 122.043113 210.855649 C 120.767924 207.071575 117.792482 200.931851 117.492438 195.168029 C 117.192393 187.925661 116.392274 175.721394 124.218436 177.225 C 130.569379 178.402825 137.92047 181.284736 142.796193 183.966166 C 145.87165 185.745433 147.546898 187.72518 152.122577 188.126142 Z M 152.122577 188.126142 " transform="matrix(0.156227,0,0,0.155875,0,0)"/>
<path style=" stroke:none;fill-rule:nonzero;fill:rgb(82.745099%,21.960784%,20%);fill-opacity:1;" d="M 24.460938 30.671875 C 24.351562 30.050781 24.230469 29.882812 24.277344 29.339844 C 25.933594 28.242188 26.230469 31.226562 24.460938 30.671875 "/>
<path style="fill-rule:nonzero;fill:rgb(0%,0%,0%);fill-opacity:1;stroke-width:2;stroke-linecap:butt;stroke-linejoin:miter;stroke:rgb(82.745099%,21.960784%,20%);stroke-opacity:1;stroke-miterlimit:4;" d="M 156.573238 196.771875 C 155.873134 192.78732 155.098019 191.709736 155.398063 188.226382 C 165.999637 181.184495 167.899919 200.330409 156.573238 196.771875 Z M 156.573238 196.771875 " transform="matrix(0.156227,0,0,0.155875,0,0)"/>
<path style=" stroke:none;fill-rule:nonzero;fill:rgb(93.725491%,23.921569%,22.745098%);fill-opacity:1;" d="M 26.847656 31.164062 C 26.847656 31.164062 26.335938 30.4375 26.710938 30.222656 C 27.082031 30.003906 27.4375 30.222656 27.65625 29.851562 C 27.871094 29.480469 27.65625 29.261719 27.730469 28.828125 C 27.808594 28.398438 28.167969 28.320312 28.539062 28.242188 C 28.910156 28.164062 29.933594 28.027344 30.074219 28.382812 L 29.640625 27.066406 L 28.753906 26.773438 L 25.980469 28.382812 L 25.839844 29.1875 L 25.839844 30.792969 M 19.160156 33.578125 C 19.066406 32.433594 18.972656 31.304688 18.882812 30.160156 C 18.726562 28.457031 19.285156 28.753906 20.773438 28.753906 C 21.003906 28.753906 22.167969 29.015625 22.246094 29.1875 C 22.648438 30.003906 21.578125 29.820312 22.710938 30.4375 C 23.65625 30.949219 25.34375 30.128906 24.957031 28.96875 C 24.742188 28.707031 23.839844 28.890625 23.515625 28.722656 L 21.796875 27.839844 C 21.066406 27.46875 19.390625 26.910156 18.617188 27.4375 C 16.648438 28.769531 18.742188 32.109375 19.4375 33.5 "/>
<path style=" stroke:none;fill-rule:nonzero;fill:rgb(13.725491%,12.156863%,12.54902%);fill-opacity:1;" d="M 21.097656 7.703125 C 19.097656 7.238281 18.105469 8.539062 17.5 9.882812 C 16.957031 9.757812 17.175781 9.015625 17.316406 8.644531 C 17.671875 7.671875 19.113281 6.355469 20.292969 6.542969 C 20.789062 6.605469 21.46875 7.066406 21.097656 7.703125 M 30.816406 9.960938 L 30.910156 9.960938 C 31.359375 10.886719 31.746094 11.878906 32.320312 12.714844 C 31.933594 13.609375 29.4375 14.382812 29.46875 12.804688 C 30.011719 12.574219 30.941406 12.761719 31.421875 12.449219 C 31.144531 11.691406 30.753906 11.042969 30.816406 9.960938 M 22.105469 9.992188 C 22.539062 10.78125 22.679688 11.601562 23.285156 12.1875 C 23.5625 12.449219 24.089844 12.777344 23.824219 13.519531 C 23.765625 13.6875 23.3125 14.074219 23.050781 14.152344 C 22.105469 14.429688 19.886719 14.214844 20.632812 13.023438 C 21.421875 13.054688 22.476562 13.535156 23.066406 12.960938 C 22.617188 12.25 21.8125 10.828125 22.105469 9.992188 M 30.460938 17.941406 C 29.035156 18.855469 27.4375 19.859375 25.082031 19.628906 C 24.585938 19.195312 24.382812 18.21875 24.878906 17.585938 C 25.128906 18.019531 24.972656 18.824219 25.6875 18.945312 C 27.019531 19.179688 28.570312 18.125 29.53125 17.769531 C 30.121094 16.765625 29.484375 16.410156 28.941406 15.761719 C 27.839844 14.445312 26.382812 12.804688 26.429688 10.84375 C 26.878906 10.515625 26.910156 11.335938 26.972656 11.476562 C 27.546875 12.804688 28.988281 14.523438 30.027344 15.667969 C 30.289062 15.945312 30.707031 16.222656 30.753906 16.410156 C 30.894531 16.9375 30.398438 17.585938 30.460938 17.941406 M 11.578125 16.984375 C 11.128906 16.71875 11.023438 15.605469 10.496094 15.574219 C 9.734375 15.527344 9.875 17.027344 9.875 17.910156 C 9.363281 17.445312 9.269531 15.992188 9.640625 15.25 C 9.207031 15.035156 9.023438 15.480469 8.773438 15.636719 C 9.097656 13.394531 12.074219 14.601562 11.578125 16.984375 M 31.359375 18.882812 C 30.691406 20.152344 29.746094 21.546875 27.792969 21.589844 C 27.746094 21.1875 27.71875 20.554688 27.792969 20.308594 C 29.296875 20.152344 30.226562 19.394531 31.359375 18.882812 M 21.996094 19.703125 C 23.238281 20.355469 25.53125 20.429688 27.234375 20.386719 C 27.328125 20.757812 27.328125 21.21875 27.328125 21.667969 C 25.144531 21.761719 22.570312 21.21875 21.996094 19.703125 M 21.765625 20.910156 C 22.632812 23.078125 25.59375 22.828125 28.089844 22.765625 C 27.980469 23.046875 27.746094 23.386719 27.4375 23.492188 C 26.632812 23.820312 24.429688 24.066406 23.3125 23.476562 C 22.617188 23.105469 22.152344 22.257812 21.765625 21.761719 C 21.59375 21.53125 20.664062 20.925781 21.765625 20.910156 "/>
<path style=" stroke:none;fill-rule:nonzero;fill:rgb(50.588238%,69.01961%,76.862746%);fill-opacity:1;" d="M 30.351562 32.835938 C 29.34375 34.566406 28.367188 36.347656 27.175781 37.863281 C 27.671875 36.394531 27.886719 33.917969 27.964844 32.03125 C 29.019531 31.535156 29.917969 32.140625 30.351562 32.835938 "/>
<path style=" stroke:none;fill-rule:nonzero;fill:rgb(13.725491%,12.156863%,12.54902%);fill-opacity:1;" d="M 35.792969 39.054688 C 34.660156 39.285156 33.871094 40.382812 32.753906 40.304688 C 33.375 39.457031 34.429688 39.085938 35.792969 39.054688 M 36.289062 40.816406 C 35.359375 40.910156 34.273438 41.0625 33.34375 40.988281 C 33.792969 40.304688 35.5 40.554688 36.289062 40.816406 M 36.613281 42.347656 C 35.574219 42.363281 34.289062 42.347656 33.296875 42.269531 C 33.886719 41.636719 35.949219 42.039062 36.613281 42.347656 "/>
<path style=" stroke:none;fill-rule:nonzero;fill:rgb(86.274511%,85.09804%,84.705883%);fill-opacity:1;" d="M 28.398438 46.523438 C 28.554688 47.824219 29.066406 49.136719 29.003906 50.5625 C 28.429688 50.746094 28.105469 50.917969 27.328125 50.917969 C 27.28125 49.710938 27.113281 47.855469 27.160156 46.695312 C 27.53125 46.726562 28.089844 46.429688 28.398438 46.523438 "/>
<path style=" stroke:none;fill-rule:nonzero;fill:rgb(94.117647%,83.92157%,71.764708%);fill-opacity:1;" d="M 26.726562 27.34375 C 26.199219 27.683594 25.765625 28.101562 25.253906 28.472656 C 24.136719 28.535156 23.53125 28.398438 22.726562 27.761719 C 22.742188 27.714844 22.816406 27.730469 22.816406 27.667969 C 24.011719 28.195312 25.53125 27.453125 26.726562 27.34375 "/>
<path style=" stroke:none;fill-rule:nonzero;fill:rgb(50.588238%,69.01961%,76.862746%);fill-opacity:1;" d="M 20.492188 35.433594 C 20.820312 34.027344 22.105469 33.285156 23.269531 32.511719 C 24.460938 34.027344 25.191406 35.976562 25.996094 37.863281 C 24.089844 37.289062 22.152344 36.378906 20.492188 35.433594 "/>
<path style=" stroke:none;fill-rule:nonzero;fill:rgb(13.725491%,12.156863%,12.54902%);fill-opacity:1;" d="M 27.160156 46.710938 C 27.113281 47.871094 27.265625 49.710938 27.328125 50.933594 C 28.105469 50.933594 28.429688 50.761719 29.003906 50.574219 C 29.066406 49.152344 28.554688 47.839844 28.398438 46.539062 C 28.089844 46.429688 27.53125 46.726562 27.160156 46.710938 Z M 15.191406 40.152344 C 15.703125 44.808594 16.429688 48.703125 17.78125 52.835938 C 20.773438 53.746094 24.367188 53.824219 27.019531 53.003906 C 26.539062 50.683594 26.742188 47.855469 26.460938 45.363281 C 26.242188 43.492188 26.351562 41.621094 26.058594 39.71875 C 22.847656 39.054688 18.324219 39.5625 15.191406 40.152344 Z M 26.816406 39.75 C 26.785156 41.746094 26.910156 43.722656 27.066406 45.71875 C 27.839844 45.609375 28.351562 45.535156 29.066406 45.363281 C 28.832031 43.445312 28.863281 41.265625 28.382812 39.5625 C 27.839844 39.578125 27.359375 39.5625 26.816406 39.75 Z M 30.707031 39.425781 C 30.335938 39.347656 29.917969 39.425781 29.578125 39.425781 C 29.746094 41.046875 30.136719 42.84375 30.273438 44.558594 C 30.816406 44.574219 31.113281 44.3125 31.5625 44.234375 C 31.59375 42.734375 31.4375 40.660156 30.707031 39.425781 Z M 36.613281 44.808594 C 37.761719 44.527344 38.476562 43.136719 38.148438 41.699219 C 37.933594 40.738281 37.558594 38.914062 37.140625 38.296875 C 36.847656 37.847656 36.027344 37.242188 35.359375 37.660156 C 34.289062 38.34375 32.414062 38.542969 31.640625 39.363281 C 32.027344 40.660156 32.148438 42.425781 32.304688 44.066406 C 33.636719 44.140625 35.265625 43.695312 36.382812 44.171875 C 35.605469 44.421875 34.613281 44.421875 33.949219 44.792969 C 34.507812 45.054688 35.777344 45.007812 36.613281 44.808594 Z M 25.980469 37.863281 C 25.175781 35.976562 24.445312 34.027344 23.253906 32.511719 C 22.089844 33.285156 20.820312 34.027344 20.476562 35.433594 C 22.152344 36.378906 24.089844 37.289062 25.980469 37.863281 Z M 27.964844 32.03125 C 27.886719 33.917969 27.671875 36.394531 27.175781 37.863281 C 28.367188 36.332031 29.34375 34.566406 30.351562 32.835938 C 29.917969 32.140625 29.019531 31.535156 27.964844 32.03125 Z M 25.71875 31.242188 C 25.265625 31.195312 24.878906 31.769531 24.289062 31.519531 C 24.152344 31.675781 24.027344 31.832031 23.886719 31.984375 C 25.191406 33.5625 25.792969 35.789062 26.800781 37.628906 C 27.34375 35.851562 27.28125 33.917969 27.40625 31.984375 C 26.664062 32.015625 26.246094 31.289062 25.71875 31.242188 Z M 24.277344 29.339844 C 24.230469 29.882812 24.351562 30.050781 24.460938 30.671875 C 26.230469 31.226562 25.933594 28.242188 24.277344 29.339844 Z M 22.308594 28.691406 C 21.546875 28.273438 20.398438 27.824219 19.40625 27.640625 C 18.183594 27.40625 18.308594 29.308594 18.355469 30.4375 C 18.402344 31.335938 18.867188 32.277344 19.066406 32.882812 C 19.160156 33.160156 19.191406 33.453125 19.421875 33.515625 C 19.84375 33.609375 21.238281 33.066406 21.625 32.851562 C 22.460938 32.402344 23.113281 31.675781 23.824219 31.179688 C 23.839844 30.949219 23.839844 30.703125 23.855469 30.46875 C 23.421875 30.253906 22.941406 30.113281 22.308594 30.082031 C 22.726562 29.867188 23.359375 29.867188 23.75 29.617188 C 23.75 29.527344 23.75 29.433594 23.765625 29.339844 C 23.050781 29.261719 22.789062 28.953125 22.308594 28.691406 Z M 15.019531 27.375 C 14.386719 28.027344 16.804688 28.890625 17.5625 28.9375 C 17.5625 28.535156 17.796875 28.148438 17.75 27.855469 C 16.835938 27.699219 15.640625 27.808594 15.019531 27.375 Z M 22.832031 27.667969 C 22.832031 27.730469 22.757812 27.714844 22.742188 27.761719 C 23.5625 28.398438 24.167969 28.535156 25.265625 28.472656 C 25.765625 28.117188 26.214844 27.683594 26.742188 27.34375 C 25.53125 27.453125 24.011719 28.195312 22.832031 27.667969 Z M 29.996094 29.835938 C 29.964844 29.125 29.777344 27.65625 29.328125 27.390625 C 28.398438 26.851562 26.753906 28.488281 26.058594 28.738281 C 26.136719 28.953125 26.257812 29.125 26.273438 29.402344 C 26.695312 29.292969 27.191406 29.371094 27.546875 29.542969 C 27.128906 29.585938 26.679688 29.585938 26.398438 29.789062 C 26.304688 30.082031 26.429688 30.46875 26.351562 30.871094 C 27.328125 31.148438 28.460938 31.289062 29.699219 31.335938 C 29.933594 31.027344 30.027344 30.4375 29.996094 29.835938 Z M 13.953125 27.996094 C 13.75 27.855469 12.402344 26.109375 12.214844 26.183594 C 9.78125 27.144531 7.503906 28.800781 5.472656 30.375 C 7.410156 34.539062 8.199219 39.625 8.339844 44.527344 C 10.558594 45.566406 12.507812 47.066406 15.53125 47.21875 C 15.175781 44.761719 14.867188 42.546875 14.664062 40.230469 C 13.90625 39.902344 12.820312 40.246094 12.105469 40.136719 C 12.105469 39.285156 13.191406 39.765625 13.285156 39.191406 C 13.347656 38.757812 12.679688 38.730469 12.898438 38.046875 C 13.457031 38.25 13.75 38.699219 14.339844 38.867188 C 14.882812 37.691406 14.339844 35.605469 14.417969 34.613281 C 14.433594 34.429688 14.507812 33.59375 14.929688 33.734375 C 15.300781 33.855469 14.914062 35.976562 14.945312 36.902344 C 14.972656 37.769531 14.835938 38.589844 15.191406 39.128906 C 18.105469 38.730469 21.066406 38.480469 24.230469 38.386719 C 23.53125 38.09375 22.710938 37.816406 21.8125 37.304688 C 21.316406 37.027344 19.78125 36.453125 19.640625 35.992188 C 19.40625 35.25 20.230469 34.863281 20.367188 34.226562 C 18.894531 35.03125 18.617188 33.453125 18.261719 32.355469 C 17.949219 31.351562 17.765625 30.59375 17.6875 30.019531 C 16.402344 29.371094 15.035156 28.769531 13.953125 27.996094 Z M 28.707031 26.386719 C 30.738281 25.410156 31.113281 30.050781 30.304688 31.550781 C 30.429688 32 30.847656 32.171875 31.019531 32.574219 C 29.886719 34.597656 28.632812 36.484375 27.46875 38.480469 C 28.320312 37.941406 29.5625 38.386719 30.570312 37.984375 C 30.941406 37.847656 31.203125 36.996094 31.484375 36.316406 C 32.257812 34.460938 33.066406 32.109375 33.421875 30.347656 C 33.5 29.945312 33.730469 29.0625 33.667969 28.707031 C 33.578125 28.054688 32.707031 27.578125 32.257812 27.191406 C 31.4375 26.449219 30.925781 25.8125 30.058594 25.117188 C 29.730469 25.628906 28.988281 25.96875 28.707031 26.386719 Z M 9.316406 8.429688 C 8.355469 9.496094 8.558594 11.476562 8.664062 12.898438 C 10.417969 11.800781 12.726562 12.992188 12.710938 14.847656 C 13.546875 14.832031 13.019531 13.8125 12.867188 13.148438 C 12.371094 10.996094 13.703125 8.675781 12.929688 6.710938 C 11.425781 6.835938 10.199219 7.441406 9.316406 8.429688 Z M 16.230469 2.257812 C 14.042969 2.875 11.238281 4.46875 10.339844 6.433594 C 11.039062 6.324219 11.519531 5.984375 12.199219 5.9375 C 12.464844 5.921875 12.804688 6.046875 13.097656 5.96875 C 13.6875 5.816406 14.199219 4.484375 14.648438 3.992188 C 15.082031 3.511719 15.609375 3.292969 15.964844 2.863281 C 16.199219 2.753906 16.539062 2.753906 16.554688 2.414062 C 16.460938 2.304688 16.355469 2.226562 16.230469 2.257812 Z M 27.625 2.847656 C 25.34375 1.5625 21.5 0.601562 19.082031 1.808594 C 17.128906 2.785156 14.492188 4.390625 13.59375 6.417969 C 14.433594 8.382812 13.347656 10.175781 13.269531 12.171875 C 13.238281 13.238281 13.765625 14.152344 13.8125 15.3125 C 13.515625 15.792969 12.648438 15.835938 12.042969 15.808594 C 11.84375 14.785156 11.488281 13.640625 10.433594 13.519531 C 8.945312 13.347656 7.84375 14.585938 7.78125 15.867188 C 7.703125 17.382812 8.945312 19.890625 10.710938 19.71875 C 11.394531 19.660156 11.5625 18.976562 12.308594 18.976562 C 12.710938 19.78125 11.6875 20.03125 11.578125 20.601562 C 11.546875 20.757812 11.65625 21.328125 11.734375 21.605469 C 12.058594 22.921875 12.773438 24.636719 13.472656 25.644531 C 14.371094 26.925781 16.121094 27.113281 18.011719 27.238281 C 18.355469 26.511719 19.59375 26.570312 20.398438 26.757812 C 19.421875 26.371094 18.523438 25.441406 17.78125 24.621094 C 16.925781 23.679688 16.058594 22.675781 16.011719 21.4375 C 17.640625 23.679688 18.972656 25.644531 21.917969 26.632812 C 24.152344 27.375 26.753906 26.292969 28.476562 25.085938 C 29.1875 24.59375 29.609375 23.789062 30.121094 23.078125 C 32.011719 20.355469 32.894531 16.488281 32.707031 12.730469 C 32.628906 11.183594 32.628906 9.636719 32.105469 8.597656 C 31.5625 7.515625 29.714844 6.527344 28.632812 7.515625 C 28.429688 6.449219 29.53125 5.800781 30.816406 6.1875 C 29.902344 4.996094 28.941406 3.589844 27.625 2.847656 Z M 31.871094 37.816406 C 33.652344 36.933594 36.972656 35.449219 38.070312 37.816406 C 38.492188 38.699219 38.972656 40.167969 39.171875 41.078125 C 39.46875 42.347656 38.847656 45.039062 37.527344 45.457031 C 36.367188 45.828125 35.019531 45.8125 33.621094 45.535156 C 33.453125 45.394531 33.28125 45.164062 33.140625 44.914062 C 32.148438 44.882812 31.203125 44.960938 30.429688 45.378906 C 30.507812 46.121094 30.011719 46.230469 29.53125 46.382812 C 29.1875 47.761719 30.226562 49.554688 29.980469 50.792969 C 29.808594 51.691406 28.707031 51.828125 27.902344 51.984375 C 27.871094 52.480469 27.933594 52.894531 27.996094 53.3125 C 27.808594 53.996094 26.988281 54.378906 26.199219 54.472656 C 23.609375 54.78125 19.6875 54.921875 17.207031 54.023438 C 16.507812 52.324219 15.964844 50.265625 15.394531 48.332031 C 12.976562 48.597656 11.007812 47.296875 9.160156 46.429688 C 8.527344 46.136719 7.640625 45.96875 7.394531 45.457031 C 7.160156 44.960938 7.253906 44.019531 7.191406 43.136719 C 7.054688 40.863281 6.914062 38.667969 6.324219 36.347656 C 6.0625 35.296875 5.582031 34.382812 5.253906 33.378906 C 4.945312 32.449219 4.417969 31.289062 4.277344 30.359375 C 4.078125 28.984375 5.378906 28.90625 6.199219 28.304688 C 7.488281 27.375 8.496094 26.867188 9.890625 26.03125 C 10.308594 25.78125 11.546875 25.164062 11.6875 24.871094 C 11.96875 24.296875 11.207031 23.492188 11.007812 23.046875 C 10.679688 22.332031 10.511719 21.730469 10.464844 21.035156 C 9.300781 20.847656 8.402344 20.152344 7.875 19.378906 C 6.992188 18.082031 6.371094 15.683594 7.144531 13.875 C 7.207031 13.734375 7.503906 13.441406 7.550781 13.222656 C 7.640625 12.789062 7.378906 12.21875 7.363281 11.753906 C 7.285156 9.386719 7.765625 7.347656 9.363281 6.636719 C 10.015625 4.050781 12.339844 3.203125 14.523438 1.917969 C 15.347656 1.4375 16.246094 1.128906 17.175781 0.789062 C 20.507812 -0.433594 25.640625 -0.199219 28.414062 1.886719 C 29.59375 2.769531 31.46875 4.640625 32.132812 6 C 33.917969 9.574219 33.777344 15.558594 32.539062 19.921875 C 32.367188 20.507812 32.132812 21.359375 31.792969 22.070312 C 31.5625 22.566406 30.832031 23.539062 30.910156 23.972656 C 31.003906 24.421875 32.585938 25.613281 32.925781 25.9375 C 33.53125 26.523438 34.691406 27.296875 34.785156 28.042969 C 34.894531 28.828125 34.445312 29.914062 34.210938 30.671875 C 33.46875 33.207031 32.722656 35.542969 31.871094 37.816406 Z M 31.871094 37.816406 "/>
<path style=" stroke:none;fill-rule:nonzero;fill:rgb(96.862745%,89.411765%,80.392158%);fill-opacity:1;" d="M 20.011719 20.246094 C 20.105469 20.121094 20.632812 19.921875 21.375 20.277344 C 21.375 20.277344 20.492188 20.417969 20.570312 21.886719 L 20.199219 21.808594 C 20.214844 21.824219 19.828125 20.492188 20.011719 20.246094 "/>
<path style=" stroke:none;fill-rule:nonzero;fill:rgb(11.372549%,9.803922%,9.803922%);fill-opacity:1;" d="M 26.429688 32.804688 C 26.429688 33.019531 26.246094 33.207031 26.027344 33.207031 C 25.808594 33.207031 25.625 33.019531 25.625 32.804688 C 25.625 32.589844 25.808594 32.402344 26.027344 32.402344 C 26.257812 32.402344 26.429688 32.589844 26.429688 32.804688 M 26.832031 34.675781 C 26.832031 34.894531 26.648438 35.078125 26.429688 35.078125 C 26.214844 35.078125 26.027344 34.894531 26.027344 34.675781 C 26.027344 34.460938 26.214844 34.273438 26.429688 34.273438 C 26.664062 34.273438 26.832031 34.445312 26.832031 34.675781 "/>
<path style=" stroke:none;fill-rule:nonzero;fill:rgb(13.725491%,12.156863%,12.54902%);fill-opacity:1;" d="M 5.71875 58.339844 C 5.597656 58.355469 5.488281 58.371094 5.394531 58.386719 C 5.300781 58.402344 5.207031 58.417969 5.085938 58.449219 C 4.945312 58.480469 4.867188 58.542969 4.835938 58.632812 C 4.804688 58.726562 4.773438 58.820312 4.773438 58.945312 L 4.773438 62.71875 C 4.773438 63.050781 4.699219 63.375 4.558594 63.675781 C 4.417969 63.96875 4.230469 64.203125 3.984375 64.402344 C 3.734375 64.589844 3.457031 64.742188 3.148438 64.835938 C 2.835938 64.929688 2.511719 64.992188 2.171875 64.992188 C 1.566406 64.992188 1.085938 64.851562 0.714844 64.558594 C 0.339844 64.265625 0.15625 63.878906 0.15625 63.367188 C 0.15625 63.074219 0.234375 62.824219 0.402344 62.625 C 0.574219 62.421875 0.804688 62.332031 1.101562 62.332031 C 1.378906 62.332031 1.597656 62.40625 1.765625 62.578125 C 1.9375 62.75 2.015625 62.949219 2.015625 63.179688 C 2.015625 63.382812 1.9375 63.582031 1.796875 63.753906 C 1.660156 63.925781 1.488281 64.09375 1.300781 64.234375 L 1.300781 64.296875 C 1.332031 64.355469 1.394531 64.417969 1.488281 64.464844 C 1.582031 64.511719 1.691406 64.527344 1.78125 64.527344 C 2.171875 64.527344 2.480469 64.386719 2.695312 64.109375 C 2.914062 63.832031 3.023438 63.414062 3.023438 62.855469 L 3.023438 58.988281 C 3.023438 58.882812 3.007812 58.773438 2.976562 58.695312 C 2.945312 58.617188 2.851562 58.558594 2.710938 58.496094 C 2.621094 58.449219 2.496094 58.417969 2.355469 58.386719 C 2.214844 58.355469 2.109375 58.339844 2.015625 58.324219 L 2.015625 57.953125 L 5.671875 57.953125 L 5.671875 58.339844 Z M 11.457031 63.660156 C 11.347656 63.847656 11.207031 64.015625 11.050781 64.1875 C 10.898438 64.355469 10.710938 64.480469 10.511719 64.605469 C 10.292969 64.726562 10.074219 64.820312 9.859375 64.882812 C 9.640625 64.945312 9.378906 64.976562 9.097656 64.976562 C 8.617188 64.976562 8.214844 64.914062 7.859375 64.773438 C 7.519531 64.636719 7.222656 64.464844 7.007812 64.234375 C 6.773438 64 6.621094 63.738281 6.496094 63.429688 C 6.382812 63.105469 6.324219 62.765625 6.324219 62.421875 C 6.324219 62.097656 6.386719 61.773438 6.511719 61.480469 C 6.632812 61.1875 6.804688 60.90625 7.023438 60.675781 C 7.238281 60.445312 7.519531 60.257812 7.859375 60.117188 C 8.214844 59.976562 8.59375 59.902344 8.976562 59.902344 C 9.425781 59.902344 9.796875 59.964844 10.089844 60.074219 C 10.386719 60.179688 10.617188 60.335938 10.804688 60.519531 C 10.992188 60.707031 11.113281 60.921875 11.207031 61.171875 C 11.285156 61.417969 11.332031 61.679688 11.332031 61.960938 L 11.332031 62.269531 L 8.0625 62.269531 C 8.0625 62.933594 8.183594 63.429688 8.449219 63.769531 C 8.695312 64.109375 9.113281 64.28125 9.65625 64.28125 C 9.96875 64.28125 10.230469 64.203125 10.480469 64.03125 C 10.726562 63.863281 10.9375 63.648438 11.097656 63.398438 Z M 9.609375 61.820312 C 9.609375 61.632812 9.59375 61.433594 9.582031 61.234375 C 9.566406 61.03125 9.535156 60.863281 9.472656 60.738281 C 9.410156 60.582031 9.347656 60.476562 9.238281 60.398438 C 9.144531 60.320312 9.023438 60.289062 8.882812 60.289062 C 8.632812 60.289062 8.433594 60.414062 8.292969 60.660156 C 8.136719 60.90625 8.0625 61.308594 8.046875 61.851562 Z M 18.292969 64.804688 L 15.378906 64.804688 L 15.378906 64.449219 C 15.441406 64.449219 15.515625 64.433594 15.59375 64.417969 C 15.6875 64.402344 15.75 64.386719 15.796875 64.371094 C 15.859375 64.339844 15.90625 64.28125 15.9375 64.21875 C 15.964844 64.15625 15.980469 64.046875 15.980469 63.925781 L 15.980469 61.664062 C 15.980469 61.339844 15.921875 61.09375 15.796875 60.921875 C 15.671875 60.753906 15.5 60.675781 15.253906 60.675781 C 15.128906 60.675781 15.003906 60.691406 14.898438 60.738281 C 14.789062 60.769531 14.679688 60.832031 14.570312 60.90625 C 14.476562 60.96875 14.402344 61.03125 14.339844 61.109375 C 14.277344 61.171875 14.230469 61.234375 14.199219 61.292969 L 14.199219 63.878906 C 14.199219 63.984375 14.214844 64.078125 14.246094 64.15625 C 14.277344 64.234375 14.339844 64.296875 14.402344 64.324219 C 14.449219 64.355469 14.507812 64.386719 14.585938 64.402344 L 14.820312 64.449219 L 14.820312 64.804688 L 11.875 64.804688 L 11.875 64.449219 C 11.953125 64.449219 12.027344 64.433594 12.121094 64.417969 C 12.199219 64.402344 12.277344 64.386719 12.339844 64.371094 C 12.449219 64.339844 12.507812 64.28125 12.554688 64.203125 C 12.585938 64.125 12.617188 64.03125 12.617188 63.910156 L 12.617188 61.09375 C 12.617188 61 12.585938 60.890625 12.539062 60.800781 C 12.496094 60.707031 12.417969 60.628906 12.339844 60.566406 C 12.277344 60.535156 12.214844 60.492188 12.121094 60.476562 C 12.027344 60.441406 11.929688 60.425781 11.828125 60.429688 L 11.828125 60.074219 L 14.136719 59.949219 L 14.214844 60.027344 L 14.214844 60.722656 L 14.230469 60.722656 C 14.34375 60.628906 14.453125 60.53125 14.554688 60.429688 C 14.671875 60.328125 14.789062 60.238281 14.914062 60.148438 C 15.035156 60.074219 15.191406 60.011719 15.378906 59.949219 C 15.5625 59.886719 15.78125 59.871094 15.996094 59.871094 C 16.523438 59.871094 16.914062 60.027344 17.175781 60.320312 C 17.4375 60.613281 17.5625 61.015625 17.5625 61.511719 L 17.5625 63.878906 C 17.5625 64 17.578125 64.09375 17.609375 64.15625 C 17.640625 64.234375 17.71875 64.28125 17.8125 64.324219 C 17.859375 64.339844 17.917969 64.371094 17.996094 64.386719 C 18.074219 64.402344 18.152344 64.417969 18.261719 64.433594 L 18.261719 64.804688 Z M 24.957031 64.804688 L 22.679688 64.804688 C 22.4375 64.378906 22.179688 63.960938 21.902344 63.550781 C 21.671875 63.210938 21.453125 62.886719 21.253906 62.609375 L 20.972656 62.855469 L 20.972656 63.910156 C 20.972656 64.015625 20.988281 64.125 21.019531 64.1875 C 21.050781 64.265625 21.113281 64.3125 21.222656 64.355469 C 21.285156 64.386719 21.347656 64.402344 21.421875 64.417969 C 21.5 64.433594 21.578125 64.449219 21.65625 64.449219 L 21.65625 64.804688 L 18.648438 64.804688 L 18.648438 64.449219 C 18.726562 64.449219 18.804688 64.433594 18.894531 64.417969 C 18.972656 64.402344 19.050781 64.386719 19.113281 64.371094 C 19.222656 64.339844 19.285156 64.28125 19.332031 64.203125 C 19.363281 64.125 19.390625 64.03125 19.390625 63.910156 L 19.390625 58.527344 C 19.390625 58.417969 19.363281 58.308594 19.316406 58.203125 C 19.269531 58.09375 19.207031 58 19.113281 57.9375 C 19.050781 57.90625 18.957031 57.859375 18.835938 57.84375 C 18.710938 57.816406 18.601562 57.800781 18.492188 57.800781 L 18.492188 57.441406 L 20.894531 57.320312 L 20.972656 57.398438 L 20.972656 62.378906 C 21.207031 62.160156 21.484375 61.914062 21.78125 61.636719 C 22.074219 61.355469 22.324219 61.125 22.492188 60.9375 C 22.601562 60.832031 22.664062 60.753906 22.664062 60.691406 C 22.679688 60.628906 22.679688 60.597656 22.679688 60.582031 C 22.679688 60.519531 22.632812 60.476562 22.523438 60.445312 C 22.414062 60.414062 22.277344 60.367188 22.058594 60.335938 L 22.058594 59.996094 L 24.507812 59.996094 L 24.507812 60.335938 C 24.183594 60.429688 23.933594 60.503906 23.765625 60.582031 C 23.59375 60.660156 23.40625 60.769531 23.207031 60.890625 C 23.074219 60.980469 22.945312 61.074219 22.816406 61.171875 C 22.695312 61.261719 22.554688 61.386719 22.382812 61.527344 C 22.695312 61.992188 22.988281 62.40625 23.253906 62.792969 C 23.515625 63.179688 23.792969 63.597656 24.089844 64.03125 C 24.183594 64.1875 24.304688 64.28125 24.460938 64.339844 C 24.617188 64.386719 24.757812 64.417969 24.910156 64.433594 L 24.910156 64.804688 Z M 28.058594 64.804688 L 25.003906 64.804688 L 25.003906 64.449219 C 25.082031 64.449219 25.175781 64.433594 25.253906 64.417969 C 25.328125 64.402344 25.40625 64.386719 25.453125 64.371094 C 25.5625 64.339844 25.625 64.28125 25.671875 64.203125 C 25.71875 64.125 25.734375 64.03125 25.734375 63.910156 L 25.734375 61.09375 C 25.734375 60.984375 25.703125 60.875 25.65625 60.800781 C 25.613281 60.714844 25.550781 60.644531 25.46875 60.597656 C 25.40625 60.566406 25.328125 60.519531 25.207031 60.488281 C 25.082031 60.460938 24.972656 60.429688 24.878906 60.429688 L 24.878906 60.074219 L 27.25 59.949219 L 27.328125 60.027344 L 27.328125 63.863281 C 27.328125 63.96875 27.359375 64.0625 27.40625 64.15625 C 27.453125 64.234375 27.53125 64.296875 27.609375 64.324219 C 27.671875 64.355469 27.746094 64.386719 27.824219 64.402344 C 27.902344 64.417969 27.980469 64.433594 28.074219 64.449219 L 28.074219 64.804688 Z M 27.359375 58.230469 C 27.359375 58.480469 27.265625 58.679688 27.082031 58.851562 C 26.894531 59.019531 26.664062 59.113281 26.414062 59.113281 C 26.152344 59.113281 25.933594 59.019531 25.734375 58.851562 C 25.546875 58.679688 25.453125 58.464844 25.453125 58.230469 C 25.453125 57.984375 25.546875 57.785156 25.734375 57.597656 C 25.917969 57.429688 26.152344 57.335938 26.414062 57.335938 C 26.679688 57.335938 26.894531 57.429688 27.082031 57.597656 C 27.265625 57.769531 27.359375 57.984375 27.359375 58.230469 Z M 34.894531 64.804688 L 31.980469 64.804688 L 31.980469 64.449219 C 32.042969 64.449219 32.121094 64.433594 32.195312 64.417969 C 32.289062 64.402344 32.351562 64.386719 32.398438 64.371094 C 32.460938 64.339844 32.507812 64.28125 32.539062 64.21875 C 32.570312 64.15625 32.585938 64.046875 32.585938 63.925781 L 32.585938 61.664062 C 32.585938 61.339844 32.523438 61.09375 32.398438 60.921875 C 32.273438 60.753906 32.105469 60.675781 31.855469 60.675781 C 31.730469 60.675781 31.609375 60.691406 31.5 60.738281 C 31.390625 60.785156 31.28125 60.832031 31.171875 60.90625 C 31.082031 60.96875 31.003906 61.03125 30.941406 61.109375 C 30.878906 61.171875 30.832031 61.234375 30.800781 61.292969 L 30.800781 63.878906 C 30.800781 63.984375 30.816406 64.078125 30.847656 64.15625 C 30.878906 64.234375 30.941406 64.296875 31.003906 64.324219 C 31.050781 64.355469 31.113281 64.386719 31.1875 64.402344 L 31.421875 64.449219 L 31.421875 64.804688 L 28.476562 64.804688 L 28.476562 64.449219 C 28.554688 64.449219 28.632812 64.433594 28.722656 64.417969 C 28.800781 64.402344 28.878906 64.386719 28.941406 64.371094 C 29.050781 64.339844 29.113281 64.28125 29.160156 64.203125 C 29.1875 64.125 29.21875 64.03125 29.21875 63.910156 L 29.21875 61.09375 C 29.21875 61 29.1875 60.890625 29.144531 60.800781 C 29.097656 60.707031 29.019531 60.628906 28.941406 60.566406 C 28.878906 60.535156 28.816406 60.492188 28.722656 60.476562 C 28.628906 60.441406 28.53125 60.425781 28.429688 60.429688 L 28.429688 60.074219 L 30.738281 59.949219 L 30.816406 60.027344 L 30.816406 60.722656 L 30.832031 60.722656 C 30.945312 60.628906 31.054688 60.53125 31.15625 60.429688 C 31.273438 60.328125 31.390625 60.238281 31.515625 60.148438 C 31.640625 60.074219 31.792969 60.011719 31.980469 59.949219 C 32.164062 59.886719 32.382812 59.871094 32.601562 59.871094 C 33.125 59.871094 33.515625 60.027344 33.777344 60.320312 C 34.042969 60.613281 34.164062 61.015625 34.164062 61.511719 L 34.164062 63.878906 C 34.164062 64 34.179688 64.09375 34.210938 64.15625 C 34.242188 64.234375 34.320312 64.28125 34.414062 64.324219 C 34.460938 64.339844 34.523438 64.371094 34.597656 64.386719 C 34.675781 64.402344 34.753906 64.417969 34.863281 64.433594 L 34.863281 64.804688 Z M 37.574219 64.976562 C 37.265625 64.976562 36.957031 64.929688 36.660156 64.835938 C 36.367188 64.742188 36.132812 64.652344 35.964844 64.542969 L 35.824219 64.867188 L 35.453125 64.867188 L 35.390625 63.074219 L 35.746094 63.074219 C 35.792969 63.210938 35.871094 63.382812 35.996094 63.566406 C 36.101562 63.753906 36.242188 63.910156 36.382812 64.0625 C 36.542969 64.207031 36.71875 64.332031 36.910156 64.433594 C 37.109375 64.527344 37.3125 64.589844 37.53125 64.589844 C 37.824219 64.589844 38.039062 64.527344 38.179688 64.417969 C 38.320312 64.3125 38.398438 64.125 38.398438 63.894531 C 38.398438 63.769531 38.367188 63.660156 38.304688 63.566406 C 38.242188 63.492188 38.148438 63.414062 38.039062 63.351562 C 37.917969 63.289062 37.777344 63.226562 37.621094 63.179688 C 37.46875 63.136719 37.28125 63.089844 37.0625 63.011719 C 36.847656 62.949219 36.660156 62.886719 36.507812 62.808594 C 36.351562 62.75 36.179688 62.640625 36.027344 62.5 C 35.886719 62.378906 35.761719 62.222656 35.683594 62.050781 C 35.589844 61.882812 35.5625 61.664062 35.5625 61.417969 C 35.5625 60.96875 35.746094 60.597656 36.132812 60.320312 C 36.523438 60.042969 37.019531 59.902344 37.636719 59.902344 C 37.933594 59.902344 38.195312 59.933594 38.445312 59.996094 C 38.691406 60.058594 38.894531 60.117188 39.0625 60.195312 L 39.171875 59.917969 L 39.542969 59.917969 L 39.621094 61.558594 L 39.28125 61.558594 C 39.171875 61.21875 38.972656 60.9375 38.707031 60.691406 C 38.429688 60.445312 38.132812 60.320312 37.824219 60.320312 C 37.574219 60.320312 37.375 60.367188 37.234375 60.476562 C 37.09375 60.582031 37.019531 60.722656 37.019531 60.90625 C 37.019531 61.15625 37.125 61.324219 37.328125 61.433594 C 37.527344 61.542969 37.824219 61.652344 38.195312 61.742188 C 38.769531 61.898438 39.1875 62.097656 39.46875 62.347656 C 39.730469 62.609375 39.871094 62.933594 39.871094 63.320312 C 39.871094 63.847656 39.667969 64.265625 39.25 64.542969 C 38.785156 64.820312 38.242188 64.976562 37.574219 64.976562 Z M 37.574219 64.976562 "/>
</g>
</svg>
