<?xml version="1.0" encoding="UTF-8"?>
<svg xmlns="http://www.w3.org/2000/svg" xmlns:xlink="http://www.w3.org/1999/xlink" width="40px" height="40px" viewBox="0 0 40 65" version="1.1">
<g id="surface1">
<path style=" stroke:none;fill-rule:nonzero;fill:rgb(0%,0%,0%);fill-opacity:1;" d="M 31.535156 35.96875 C 29.003906 35.96875 26.738281 37.089844 25.183594 38.855469 L 21.207031 36.039062 C 21.628906 34.875 21.871094 33.628906 21.871094 32.320312 C 21.871094 31.039062 21.636719 29.808594 21.226562 28.664062 L 25.199219 25.878906 C 26.75 27.632812 29.011719 28.746094 31.535156 28.746094 C 36.203125 28.746094 40 24.949219 40 20.285156 C 40 15.617188 36.203125 11.820312 31.535156 11.820312 C 26.867188 11.820312 23.066406 15.617188 23.066406 20.285156 C 23.066406 21.117188 23.195312 21.925781 23.421875 22.6875 L 19.449219 25.476562 C 17.789062 23.417969 15.398438 21.980469 12.675781 21.542969 L 12.675781 16.753906 C 16.511719 15.949219 19.402344 12.542969 19.402344 8.472656 C 19.402344 3.804688 15.601562 0.0078125 10.933594 0.0078125 C 6.265625 0.0078125 2.46875 3.804688 2.46875 8.472656 C 2.46875 12.488281 5.285156 15.851562 9.042969 16.714844 L 9.042969 21.5625 C 3.914062 22.464844 0 26.9375 0 32.320312 C 0 37.730469 3.953125 42.21875 9.117188 43.089844 L 9.117188 48.210938 C 5.320312 49.042969 2.46875 52.429688 2.46875 56.472656 C 2.46875 61.136719 6.265625 64.933594 10.933594 64.933594 C 15.601562 64.933594 19.402344 61.136719 19.402344 56.472656 C 19.402344 52.429688 16.550781 49.042969 12.753906 48.210938 L 12.753906 43.089844 C 15.367188 42.648438 17.734375 41.273438 19.410156 39.21875 L 23.414062 42.054688 C 23.191406 42.808594 23.066406 43.605469 23.066406 44.433594 C 23.066406 49.101562 26.867188 52.898438 31.535156 52.898438 C 36.203125 52.898438 40 49.101562 40 44.433594 C 40 39.765625 36.203125 35.96875 31.535156 35.96875 Z M 31.535156 16.179688 C 33.796875 16.179688 35.636719 18.019531 35.636719 20.285156 C 35.636719 22.546875 33.796875 24.386719 31.535156 24.386719 C 29.269531 24.386719 27.429688 22.546875 27.429688 20.285156 C 27.429688 18.019531 29.269531 16.179688 31.535156 16.179688 Z M 6.832031 8.472656 C 6.832031 6.210938 8.671875 4.371094 10.933594 4.371094 C 13.199219 4.371094 15.039062 6.210938 15.039062 8.472656 C 15.039062 10.734375 13.199219 12.578125 10.933594 12.578125 C 8.671875 12.578125 6.832031 10.734375 6.832031 8.472656 Z M 15.039062 56.472656 C 15.039062 58.734375 13.199219 60.574219 10.933594 60.574219 C 8.671875 60.574219 6.832031 58.734375 6.832031 56.472656 C 6.832031 54.207031 8.671875 52.367188 10.933594 52.367188 C 13.199219 52.367188 15.039062 54.207031 15.039062 56.472656 Z M 10.933594 38.042969 C 7.777344 38.042969 5.210938 35.476562 5.210938 32.320312 C 5.210938 29.164062 7.777344 26.597656 10.933594 26.597656 C 14.09375 26.597656 16.660156 29.164062 16.660156 32.320312 C 16.660156 35.476562 14.09375 38.042969 10.933594 38.042969 Z M 31.535156 48.539062 C 29.269531 48.539062 27.429688 46.695312 27.429688 44.433594 C 27.429688 42.171875 29.269531 40.332031 31.535156 40.332031 C 33.796875 40.332031 35.636719 42.171875 35.636719 44.433594 C 35.636719 46.695312 33.796875 48.539062 31.535156 48.539062 Z M 31.535156 48.539062 "/>
</g>
</svg>
