<?xml version="1.0" encoding="UTF-8"?>
<svg xmlns="http://www.w3.org/2000/svg" xmlns:xlink="http://www.w3.org/1999/xlink" width="40px" height="40px" viewBox="0 0 40 38" version="1.1">
<g id="surface1">
<path style=" stroke:none;fill-rule:nonzero;fill:rgb(19.607843%,42.745098%,90.196079%);fill-opacity:1;" d="M 12.824219 37.375 C 11.898438 37.375 11.019531 36.972656 10.425781 36.242188 L 1.394531 25.28125 C 0.800781 24.550781 0.566406 23.617188 0.800781 22.710938 L 4.027344 9.023438 C 4.230469 8.117188 4.851562 7.386719 5.703125 6.984375 L 18.761719 0.886719 C 19.175781 0.683594 19.640625 0.582031 20.101562 0.582031 C 20.566406 0.582031 21.03125 0.683594 21.445312 0.886719 L 34.503906 6.957031 C 35.355469 7.363281 35.972656 8.09375 36.179688 9 L 39.40625 22.683594 C 39.613281 23.589844 39.40625 24.523438 38.8125 25.253906 L 29.78125 36.21875 C 29.1875 36.921875 28.308594 37.351562 27.378906 37.351562 Z M 12.824219 37.375 "/>
<path style=" stroke:none;fill-rule:nonzero;fill:rgb(100%,100%,100%);fill-opacity:1;" d="M 20.078125 1.210938 C 20.4375 1.210938 20.800781 1.289062 21.136719 1.4375 L 34.195312 7.511719 C 34.863281 7.839844 35.378906 8.445312 35.535156 9.152344 L 38.761719 22.835938 C 38.941406 23.566406 38.761719 24.324219 38.269531 24.902344 L 29.238281 35.863281 C 28.773438 36.445312 28.050781 36.773438 27.304688 36.773438 L 12.824219 36.773438 C 12.078125 36.773438 11.355469 36.445312 10.890625 35.863281 L 1.859375 24.902344 C 1.394531 24.324219 1.210938 23.566406 1.367188 22.835938 L 4.59375 9.152344 C 4.773438 8.421875 5.265625 7.816406 5.933594 7.511719 L 18.992188 1.414062 C 19.328125 1.289062 19.714844 1.210938 20.078125 1.210938 Z M 20.078125 0.0273438 C 19.535156 0.0273438 18.992188 0.152344 18.476562 0.378906 L 5.417969 6.480469 C 4.386719 6.957031 3.664062 7.839844 3.40625 8.925781 L 0.179688 22.609375 C -0.078125 23.691406 0.179688 24.800781 0.902344 25.683594 L 9.933594 36.644531 C 10.632812 37.503906 11.691406 37.980469 12.800781 37.980469 L 27.277344 37.980469 C 28.386719 37.980469 29.445312 37.503906 30.140625 36.644531 L 39.175781 25.683594 C 39.898438 24.828125 40.15625 23.691406 39.898438 22.609375 L 36.671875 8.925781 C 36.414062 7.839844 35.691406 6.957031 34.65625 6.480469 L 21.652344 0.378906 C 21.160156 0.152344 20.621094 0.0273438 20.078125 0.0273438 Z M 20.078125 0.0273438 "/>
<path style=" stroke:none;fill-rule:nonzero;fill:rgb(100%,100%,100%);fill-opacity:1;" d="M 33.160156 21.75 C 33.136719 21.75 33.136719 21.75 33.160156 21.75 L 33.136719 21.75 C 33.109375 21.75 33.082031 21.75 33.082031 21.726562 C 33.03125 21.726562 32.980469 21.703125 32.929688 21.703125 C 32.75 21.675781 32.59375 21.652344 32.4375 21.652344 C 32.359375 21.652344 32.285156 21.652344 32.179688 21.625 L 32.15625 21.625 C 31.613281 21.574219 31.175781 21.523438 30.761719 21.398438 C 30.582031 21.324219 30.527344 21.222656 30.476562 21.121094 C 30.476562 21.097656 30.453125 21.097656 30.453125 21.070312 L 30.117188 20.96875 C 30.273438 19.785156 30.214844 18.582031 29.933594 17.417969 C 29.652344 16.242188 29.164062 15.125 28.492188 14.117188 L 28.75 13.890625 L 28.75 13.839844 C 28.75 13.710938 28.773438 13.585938 28.878906 13.460938 C 29.1875 13.183594 29.574219 12.957031 30.039062 12.679688 C 30.117188 12.628906 30.195312 12.605469 30.269531 12.554688 C 30.425781 12.476562 30.554688 12.402344 30.710938 12.300781 C 30.734375 12.277344 30.785156 12.25 30.839844 12.199219 C 30.863281 12.175781 30.890625 12.175781 30.890625 12.148438 C 31.25 11.847656 31.328125 11.34375 31.070312 11.015625 C 30.941406 10.839844 30.710938 10.738281 30.476562 10.738281 C 30.269531 10.738281 30.089844 10.8125 29.910156 10.941406 L 29.859375 10.992188 C 29.804688 11.015625 29.78125 11.066406 29.730469 11.089844 C 29.601562 11.21875 29.496094 11.316406 29.394531 11.445312 C 29.34375 11.496094 29.289062 11.570312 29.214844 11.621094 C 28.851562 12 28.515625 12.300781 28.179688 12.527344 C 28.101562 12.578125 28.027344 12.605469 27.949219 12.605469 C 27.898438 12.605469 27.84375 12.605469 27.792969 12.578125 L 27.742188 12.578125 L 27.433594 12.78125 C 27.097656 12.425781 26.734375 12.125 26.375 11.824219 C 24.820312 10.636719 22.945312 9.910156 20.980469 9.730469 L 20.953125 9.402344 L 20.902344 9.351562 C 20.824219 9.277344 20.722656 9.203125 20.695312 9.023438 C 20.671875 8.621094 20.722656 8.167969 20.773438 7.664062 L 20.773438 7.640625 C 20.773438 7.5625 20.800781 7.460938 20.824219 7.386719 C 20.851562 7.234375 20.878906 7.085938 20.902344 6.90625 L 20.902344 6.679688 C 20.902344 6.226562 20.542969 5.851562 20.101562 5.851562 C 19.898438 5.851562 19.691406 5.949219 19.535156 6.101562 C 19.378906 6.253906 19.304688 6.453125 19.304688 6.679688 L 19.304688 6.882812 C 19.304688 7.058594 19.328125 7.210938 19.378906 7.363281 C 19.40625 7.4375 19.40625 7.511719 19.433594 7.613281 L 19.433594 7.640625 C 19.484375 8.144531 19.5625 8.597656 19.507812 9 C 19.484375 9.175781 19.378906 9.25 19.304688 9.328125 L 19.25 9.378906 L 19.226562 9.707031 C 18.761719 9.753906 18.296875 9.804688 17.832031 9.90625 C 15.84375 10.335938 14.089844 11.320312 12.722656 12.730469 L 12.464844 12.554688 L 12.414062 12.554688 C 12.363281 12.554688 12.308594 12.578125 12.257812 12.578125 C 12.179688 12.578125 12.101562 12.554688 12.027344 12.503906 C 11.691406 12.277344 11.355469 11.949219 10.992188 11.570312 C 10.941406 11.519531 10.890625 11.445312 10.8125 11.394531 C 10.710938 11.269531 10.605469 11.167969 10.476562 11.042969 C 10.453125 11.015625 10.398438 10.992188 10.347656 10.941406 C 10.324219 10.914062 10.296875 10.914062 10.296875 10.890625 C 10.136719 10.761719 9.9375 10.691406 9.730469 10.6875 C 9.496094 10.6875 9.265625 10.789062 9.136719 10.964844 C 8.878906 11.292969 8.953125 11.796875 9.316406 12.097656 C 9.34375 12.097656 9.34375 12.125 9.367188 12.125 C 9.417969 12.148438 9.445312 12.199219 9.496094 12.226562 C 9.652344 12.328125 9.78125 12.402344 9.933594 12.476562 C 10.011719 12.503906 10.089844 12.554688 10.167969 12.605469 C 10.632812 12.878906 11.019531 13.109375 11.328125 13.386719 C 11.457031 13.511719 11.457031 13.636719 11.457031 13.761719 L 11.457031 13.8125 L 11.714844 14.039062 C 11.664062 14.117188 11.613281 14.167969 11.585938 14.242188 C 10.296875 16.234375 9.804688 18.578125 10.140625 20.894531 L 9.804688 20.996094 C 9.804688 21.019531 9.78125 21.019531 9.78125 21.046875 C 9.730469 21.148438 9.652344 21.246094 9.496094 21.324219 C 9.109375 21.449219 8.644531 21.5 8.101562 21.550781 L 8.078125 21.550781 C 8 21.550781 7.898438 21.550781 7.820312 21.574219 C 7.664062 21.574219 7.507812 21.601562 7.328125 21.625 C 7.277344 21.625 7.226562 21.652344 7.175781 21.652344 C 7.148438 21.652344 7.121094 21.652344 7.097656 21.675781 C 6.632812 21.777344 6.347656 22.207031 6.425781 22.609375 C 6.503906 22.960938 6.839844 23.1875 7.25 23.1875 C 7.328125 23.1875 7.378906 23.1875 7.457031 23.164062 C 7.484375 23.164062 7.507812 23.164062 7.507812 23.136719 C 7.5625 23.136719 7.613281 23.113281 7.664062 23.113281 C 7.84375 23.0625 7.972656 23.011719 8.128906 22.9375 C 8.207031 22.910156 8.285156 22.859375 8.359375 22.835938 L 8.386719 22.835938 C 8.878906 22.660156 9.316406 22.507812 9.730469 22.457031 L 9.78125 22.457031 C 9.933594 22.457031 10.039062 22.53125 10.117188 22.582031 C 10.140625 22.582031 10.140625 22.609375 10.167969 22.609375 L 10.527344 22.558594 C 11.148438 24.421875 12.335938 26.085938 13.910156 27.296875 C 14.269531 27.574219 14.632812 27.800781 15.019531 28.027344 L 14.863281 28.355469 C 14.863281 28.378906 14.890625 28.378906 14.890625 28.40625 C 14.941406 28.503906 14.992188 28.632812 14.941406 28.808594 C 14.789062 29.1875 14.554688 29.5625 14.269531 29.992188 L 14.269531 30.019531 C 14.21875 30.09375 14.167969 30.144531 14.117188 30.21875 C 14.011719 30.34375 13.933594 30.472656 13.832031 30.621094 C 13.804688 30.648438 13.78125 30.699219 13.753906 30.75 C 13.753906 30.773438 13.730469 30.800781 13.730469 30.800781 C 13.523438 31.226562 13.675781 31.707031 14.066406 31.882812 C 14.167969 31.933594 14.269531 31.957031 14.375 31.957031 C 14.683594 31.957031 14.992188 31.757812 15.148438 31.480469 C 15.148438 31.453125 15.175781 31.429688 15.175781 31.429688 C 15.199219 31.378906 15.226562 31.328125 15.25 31.304688 C 15.328125 31.125 15.355469 31 15.40625 30.847656 L 15.484375 30.621094 C 15.664062 30.117188 15.792969 29.714844 16.027344 29.363281 C 16.128906 29.210938 16.257812 29.1875 16.359375 29.136719 C 16.386719 29.136719 16.386719 29.136719 16.414062 29.109375 L 16.59375 28.78125 C 17.730469 29.210938 18.96875 29.4375 20.207031 29.4375 C 20.953125 29.4375 21.730469 29.363281 22.453125 29.1875 C 22.90625 29.085938 23.355469 28.960938 23.792969 28.808594 L 23.949219 29.085938 C 23.972656 29.085938 23.972656 29.085938 24 29.109375 C 24.128906 29.136719 24.230469 29.1875 24.335938 29.335938 C 24.542969 29.691406 24.695312 30.117188 24.878906 30.597656 L 24.878906 30.621094 L 24.953125 30.847656 C 25.007812 31 25.03125 31.152344 25.109375 31.304688 C 25.136719 31.351562 25.160156 31.378906 25.1875 31.429688 C 25.1875 31.453125 25.214844 31.480469 25.214844 31.480469 C 25.367188 31.78125 25.675781 31.957031 25.988281 31.957031 C 26.089844 31.957031 26.195312 31.933594 26.296875 31.882812 C 26.476562 31.78125 26.632812 31.628906 26.683594 31.429688 C 26.734375 31.226562 26.734375 31 26.632812 30.800781 C 26.632812 30.773438 26.605469 30.773438 26.605469 30.75 C 26.582031 30.699219 26.554688 30.648438 26.527344 30.621094 C 26.453125 30.472656 26.347656 30.34375 26.246094 30.21875 C 26.195312 30.144531 26.140625 30.09375 26.089844 30.019531 L 26.089844 29.992188 C 25.804688 29.5625 25.546875 29.1875 25.417969 28.808594 C 25.367188 28.632812 25.417969 28.53125 25.445312 28.40625 C 25.445312 28.378906 25.472656 28.378906 25.472656 28.355469 L 25.34375 28.050781 C 26.710938 27.269531 27.871094 26.160156 28.75 24.800781 C 29.214844 24.09375 29.574219 23.3125 29.832031 22.53125 L 30.140625 22.582031 C 30.167969 22.582031 30.167969 22.558594 30.195312 22.558594 C 30.296875 22.507812 30.375 22.433594 30.527344 22.433594 L 30.582031 22.433594 C 30.992188 22.484375 31.433594 22.632812 31.921875 22.808594 L 31.949219 22.808594 C 32.027344 22.835938 32.101562 22.886719 32.179688 22.910156 C 32.335938 22.988281 32.464844 23.035156 32.644531 23.085938 C 32.695312 23.085938 32.75 23.113281 32.800781 23.113281 C 32.824219 23.113281 32.851562 23.113281 32.878906 23.136719 C 32.953125 23.164062 33.007812 23.164062 33.082031 23.164062 C 33.472656 23.164062 33.804688 22.910156 33.910156 22.582031 C 33.910156 22.28125 33.625 21.878906 33.160156 21.75 Z M 21.210938 20.515625 L 20.078125 21.046875 L 18.941406 20.515625 L 18.65625 19.332031 L 19.433594 18.375 L 20.695312 18.375 L 21.472656 19.332031 L 21.214844 20.515625 Z M 27.949219 17.894531 C 28.148438 18.730469 28.210938 19.589844 28.128906 20.441406 L 24.179688 19.332031 C 23.820312 19.230469 23.613281 18.878906 23.691406 18.527344 C 23.714844 18.425781 23.769531 18.324219 23.84375 18.25 L 26.96875 15.5 C 27.40625 16.207031 27.742188 17.015625 27.949219 17.894531 Z M 25.730469 13.988281 L 22.347656 16.332031 C 22.066406 16.511719 21.675781 16.460938 21.445312 16.183594 C 21.367188 16.105469 21.34375 16.003906 21.316406 15.90625 L 21.082031 11.796875 C 22.839844 11.996094 24.480469 12.765625 25.730469 13.988281 Z M 18.246094 11.921875 C 18.527344 11.871094 18.785156 11.820312 19.070312 11.773438 L 18.839844 15.804688 C 18.8125 16.15625 18.527344 16.460938 18.140625 16.460938 C 18.039062 16.460938 17.910156 16.433594 17.832031 16.382812 L 14.398438 13.988281 C 15.457031 12.957031 16.773438 12.25 18.246094 11.921875 Z M 13.160156 15.5 L 16.230469 18.171875 C 16.515625 18.398438 16.542969 18.828125 16.308594 19.105469 C 16.230469 19.207031 16.128906 19.28125 16 19.308594 L 12 20.441406 C 11.84375 18.726562 12.230469 16.988281 13.160156 15.5 Z M 12.464844 22.332031 L 16.566406 21.652344 C 16.902344 21.625 17.214844 21.851562 17.289062 22.179688 C 17.316406 22.332031 17.316406 22.457031 17.265625 22.582031 L 15.691406 26.289062 C 14.246094 25.378906 13.082031 23.996094 12.464844 22.332031 Z M 21.882812 27.347656 C 21.289062 27.472656 20.695312 27.546875 20.078125 27.546875 C 19.175781 27.546875 18.296875 27.398438 17.472656 27.144531 L 19.507812 23.539062 C 19.714844 23.3125 20.050781 23.214844 20.335938 23.363281 C 20.457031 23.4375 20.5625 23.53125 20.644531 23.640625 L 22.632812 27.144531 C 22.398438 27.21875 22.140625 27.269531 21.882812 27.347656 Z M 26.917969 23.84375 C 26.269531 24.851562 25.417969 25.65625 24.4375 26.289062 L 22.8125 22.480469 C 22.734375 22.179688 22.863281 21.851562 23.175781 21.699219 C 23.277344 21.652344 23.40625 21.625 23.535156 21.625 L 27.664062 22.304688 C 27.507812 22.859375 27.25 23.363281 26.917969 23.84375 Z M 26.917969 23.84375 "/>
</g>
</svg>
