<?xml version="1.0" encoding="UTF-8"?>
<svg xmlns="http://www.w3.org/2000/svg" xmlns:xlink="http://www.w3.org/1999/xlink" width="40px" height="40px" viewBox="0 0 40 31" version="1.1">
<g id="surface1">
<path style=" stroke:none;fill-rule:nonzero;fill:rgb(0%,69.01961%,100%);fill-opacity:1;" d="M 0 16.910156 L 0 0.00390625 L 15 8.457031 L 15 14.089844 L 5 8.457031 L 5 19.726562 Z M 0 16.910156 "/>
<path style=" stroke:none;fill-rule:nonzero;fill:rgb(0%,50.588238%,79.607844%);fill-opacity:1;" d="M 15 8.457031 L 30 0.00390625 L 30 16.910156 L 20 22.542969 L 15 19.726562 L 25 14.089844 L 25 8.457031 L 15 14.089844 Z M 15 8.457031 "/>
<path style=" stroke:none;fill-rule:nonzero;fill:rgb(0%,69.01961%,100%);fill-opacity:1;" d="M 15 19.726562 L 15 25.363281 L 25 30.996094 L 25 25.363281 Z M 15 19.726562 "/>
<path style=" stroke:none;fill-rule:nonzero;fill:rgb(0%,50.588238%,79.607844%);fill-opacity:1;" d="M 25 30.996094 L 40 22.542969 L 40 11.273438 L 35 14.089844 L 35 19.726562 L 25 25.363281 Z M 35 8.457031 L 35 2.820312 L 40 0.00390625 L 40 5.636719 Z M 35 8.457031 "/>
</g>
</svg>
