<?xml version="1.0" encoding="UTF-8"?>
<svg xmlns="http://www.w3.org/2000/svg" xmlns:xlink="http://www.w3.org/1999/xlink" width="40px" height="40px" viewBox="0 0 40 40" version="1.1">
<g id="surface1">
<path style=" stroke:none;fill-rule:nonzero;fill:rgb(34.901962%,58.823532%,21.176471%);fill-opacity:1;" d="M 18.410156 5.199219 L 19.273438 6.828125 C 19.46875 7.128906 19.679688 7.394531 19.929688 7.644531 C 20.660156 8.363281 21.339844 9.132812 21.964844 9.941406 C 23.433594 11.871094 24.421875 14.011719 25.132812 16.328125 C 25.554688 17.746094 25.785156 19.195312 25.804688 20.664062 C 25.875 25.050781 24.371094 28.820312 21.335938 31.953125 C 20.84375 32.449219 20.3125 32.902344 19.742188 33.3125 C 19.441406 33.3125 19.300781 33.082031 19.175781 32.871094 C 18.953125 32.476562 18.800781 32.046875 18.734375 31.597656 C 18.628906 31.066406 18.558594 30.535156 18.59375 29.988281 L 18.59375 29.738281 C 18.566406 29.6875 18.304688 5.324219 18.410156 5.199219 Z M 18.410156 5.199219 "/>
<path style=" stroke:none;fill-rule:nonzero;fill:rgb(42.352942%,67.450982%,28.235295%);fill-opacity:1;" d="M 18.410156 5.148438 C 18.371094 5.074219 18.335938 5.128906 18.300781 5.164062 C 18.320312 5.519531 18.195312 5.835938 18 6.136719 C 17.789062 6.4375 17.507812 6.667969 17.222656 6.917969 C 15.648438 8.277344 14.410156 9.925781 13.417969 11.765625 C 12.101562 14.242188 11.417969 16.894531 11.226562 19.691406 C 11.136719 20.699219 11.546875 24.253906 11.863281 25.28125 C 12.730469 28.007812 14.289062 30.289062 16.304688 32.269531 C 16.800781 32.746094 17.328125 33.191406 17.878906 33.617188 C 18.035156 33.617188 18.054688 33.472656 18.089844 33.367188 C 18.160156 33.140625 18.214844 32.910156 18.25 32.675781 L 18.605469 30.023438 Z M 18.410156 5.148438 "/>
<path style=" stroke:none;fill-rule:nonzero;fill:rgb(76.078433%,74.901962%,74.901962%);fill-opacity:1;" d="M 19.273438 34.390625 C 19.3125 33.984375 19.503906 33.648438 19.71875 33.3125 C 19.503906 33.222656 19.347656 33.050781 19.222656 32.851562 C 19.117188 32.667969 19.027344 32.472656 18.957031 32.269531 C 18.710938 31.527344 18.65625 30.746094 18.585938 29.988281 L 18.585938 29.527344 C 18.5 29.597656 18.480469 30.199219 18.480469 30.289062 C 18.429688 31.089844 18.324219 31.890625 18.160156 32.675781 C 18.109375 32.996094 18.074219 33.3125 17.878906 33.597656 C 17.878906 33.632812 17.878906 33.667969 17.894531 33.722656 C 18.214844 34.660156 18.300781 35.613281 18.355469 36.585938 L 18.355469 36.941406 C 18.355469 37.367188 18.335938 37.277344 18.691406 37.417969 C 18.832031 37.472656 18.988281 37.492188 19.132812 37.597656 C 19.238281 37.597656 19.257812 37.507812 19.257812 37.4375 L 19.203125 36.851562 L 19.203125 35.226562 C 19.1875 34.941406 19.238281 34.660156 19.273438 34.394531 Z M 19.273438 34.390625 "/>
</g>
</svg>
