<?xml version="1.0" encoding="UTF-8"?>
<svg xmlns="http://www.w3.org/2000/svg" xmlns:xlink="http://www.w3.org/1999/xlink" width="40px" height="40px" viewBox="0 0 40 38" version="1.1">
<g id="surface1">
<path style=" stroke:none;fill-rule:evenodd;fill:rgb(87.843138%,13.725491%,30.588236%);fill-opacity:1;" d="M 21.367188 1.226562 C 21.105469 1.226562 20.863281 1.28125 20.636719 1.355469 C 21.117188 1.667969 21.378906 2.082031 21.507812 2.550781 C 21.519531 2.617188 21.535156 2.664062 21.546875 2.726562 C 21.554688 2.78125 21.566406 2.839844 21.566406 2.894531 C 21.601562 3.703125 21.347656 3.804688 21.171875 4.285156 C 20.898438 4.902344 20.976562 5.566406 21.300781 6.101562 C 21.332031 6.164062 21.367188 6.238281 21.414062 6.304688 C 21.058594 3.972656 23.035156 3.621094 23.402344 2.894531 C 23.429688 2.257812 22.894531 1.832031 22.472656 1.539062 C 22.070312 1.300781 21.707031 1.226562 21.367188 1.226562 Z M 24.347656 1.75 C 24.3125 1.960938 24.339844 1.90625 24.328125 2.019531 C 24.320312 2.089844 24.320312 2.183594 24.3125 2.257812 C 24.292969 2.332031 24.273438 2.40625 24.246094 2.480469 C 24.226562 2.550781 24.199219 2.625 24.171875 2.699219 C 24.132812 2.773438 24.105469 2.839844 24.066406 2.910156 C 24.039062 2.949219 24.019531 2.984375 23.992188 3.023438 L 23.9375 3.105469 C 23.890625 3.171875 23.84375 3.234375 23.796875 3.289062 C 23.738281 3.34375 23.691406 3.410156 23.628906 3.457031 L 23.628906 3.464844 C 23.570312 3.511719 23.515625 3.566406 23.449219 3.613281 C 23.253906 3.761719 23.027344 3.871094 22.820312 4.007812 C 22.753906 4.054688 22.691406 4.089844 22.632812 4.148438 C 22.566406 4.191406 22.511719 4.238281 22.457031 4.292969 C 22.390625 4.351562 22.34375 4.40625 22.285156 4.46875 C 22.238281 4.523438 22.183594 4.589844 22.144531 4.652344 C 22.097656 4.71875 22.050781 4.78125 22.015625 4.847656 C 21.976562 4.921875 21.949219 4.984375 21.910156 5.058594 C 21.882812 5.132812 21.855469 5.199219 21.835938 5.269531 C 21.8125 5.347656 21.789062 5.425781 21.769531 5.503906 C 21.761719 5.539062 21.761719 5.585938 21.753906 5.621094 C 21.742188 5.660156 21.742188 5.695312 21.734375 5.730469 C 21.734375 5.804688 21.722656 5.890625 21.722656 5.960938 C 21.722656 6.019531 21.722656 6.074219 21.734375 6.128906 C 21.734375 6.203125 21.742188 6.277344 21.761719 6.359375 C 21.769531 6.433594 21.789062 6.507812 21.808594 6.582031 C 21.835938 6.652344 21.855469 6.726562 21.882812 6.800781 C 21.902344 6.847656 21.929688 6.894531 21.949219 6.929688 L 19.792969 6.109375 C 19.429688 6.007812 19.070312 5.917969 18.707031 5.832031 L 18.117188 5.695312 C 17.550781 5.585938 16.984375 5.5 16.410156 5.445312 C 16.390625 5.445312 16.382812 5.4375 16.363281 5.4375 C 15.800781 5.382812 15.25 5.355469 14.6875 5.355469 C 14.273438 5.355469 13.863281 5.371094 13.457031 5.402344 C 12.886719 5.4375 12.316406 5.511719 11.742188 5.601562 C 11.601562 5.621094 11.460938 5.648438 11.320312 5.675781 C 11.03125 5.730469 10.75 5.796875 10.476562 5.863281 L 10.054688 5.972656 C 9.914062 6.027344 9.785156 6.089844 9.652344 6.148438 L 9.34375 6.285156 C 9.324219 6.292969 9.304688 6.292969 9.296875 6.304688 C 9.203125 6.351562 9.117188 6.386719 9.035156 6.433594 C 9.007812 6.441406 8.988281 6.453125 8.96875 6.460938 C 8.867188 6.507812 8.761719 6.5625 8.679688 6.609375 C 8.613281 6.636719 8.546875 6.671875 8.492188 6.699219 C 8.464844 6.71875 8.425781 6.738281 8.40625 6.746094 C 8.324219 6.792969 8.238281 6.839844 8.164062 6.882812 C 8.078125 6.929688 8.003906 6.976562 7.9375 7.023438 C 7.871094 7.070312 7.808594 7.105469 7.75 7.152344 C 7.742188 7.160156 7.730469 7.160156 7.722656 7.171875 C 7.667969 7.207031 7.601562 7.253906 7.542969 7.300781 L 7.527344 7.316406 L 7.386719 7.429688 C 7.367188 7.4375 7.347656 7.457031 7.328125 7.464844 C 7.28125 7.503906 7.234375 7.546875 7.1875 7.585938 C 7.179688 7.601562 7.160156 7.613281 7.152344 7.621094 C 7.09375 7.675781 7.039062 7.722656 6.980469 7.777344 C 6.972656 7.777344 6.972656 7.789062 6.964844 7.796875 C 6.90625 7.84375 6.851562 7.898438 6.792969 7.953125 C 6.785156 7.960938 6.785156 7.972656 6.777344 7.972656 C 6.726562 8.019531 6.679688 8.066406 6.636719 8.121094 C 6.617188 8.136719 6.589844 8.15625 6.570312 8.175781 C 6.523438 8.230469 6.46875 8.285156 6.410156 8.339844 C 6.402344 8.359375 6.382812 8.367188 6.375 8.386719 C 6.296875 8.460938 6.234375 8.535156 6.15625 8.609375 L 6.128906 8.636719 C 5.980469 8.792969 5.820312 8.949219 5.652344 9.085938 C 5.484375 9.234375 5.308594 9.367188 5.125 9.492188 C 4.945312 9.617188 4.757812 9.734375 4.5625 9.84375 C 4.371094 9.945312 4.175781 10.039062 3.972656 10.121094 C 3.773438 10.203125 3.570312 10.277344 3.363281 10.339844 C 2.972656 10.421875 2.566406 10.582031 2.222656 10.609375 C 2.144531 10.609375 2.0625 10.625 1.988281 10.636719 C 1.902344 10.652344 1.828125 10.671875 1.753906 10.691406 L 1.527344 10.773438 C 1.453125 10.800781 1.378906 10.839844 1.300781 10.875 C 1.238281 10.921875 1.164062 10.957031 1.097656 11.003906 C 1.03125 11.050781 0.964844 11.105469 0.910156 11.160156 C 0.84375 11.207031 0.777344 11.273438 0.722656 11.328125 C 0.664062 11.390625 0.609375 11.445312 0.5625 11.511719 C 0.515625 11.585938 0.460938 11.648438 0.421875 11.722656 C 0.375 11.789062 0.328125 11.863281 0.289062 11.933594 C 0.253906 12.019531 0.214844 12.09375 0.1875 12.175781 C 0.15625 12.253906 0.128906 12.335938 0.101562 12.414062 C 0.0859375 12.488281 0.0664062 12.5625 0.0546875 12.636719 C 0.0546875 12.644531 0.046875 12.652344 0.046875 12.664062 C 0.0273438 12.746094 0.0273438 12.855469 0.0195312 12.914062 C 0.0078125 12.976562 0 13.03125 0 13.097656 C 0 13.132812 0 13.179688 0.0078125 13.214844 C 0.0195312 13.28125 0.0273438 13.335938 0.046875 13.390625 C 0.0664062 13.445312 0.0859375 13.503906 0.113281 13.558594 L 0.113281 13.566406 C 0.140625 13.621094 0.179688 13.675781 0.214844 13.734375 C 0.253906 13.789062 0.289062 13.84375 0.335938 13.898438 C 0.382812 13.945312 0.441406 14 0.496094 14.046875 C 0.554688 14.101562 0.609375 14.148438 0.675781 14.195312 C 0.898438 14.386719 0.957031 14.453125 1.246094 14.597656 C 1.292969 14.625 1.339844 14.644531 1.398438 14.671875 C 1.40625 14.671875 1.414062 14.683594 1.425781 14.683594 C 1.425781 14.699219 1.425781 14.710938 1.433594 14.726562 C 1.445312 14.800781 1.460938 14.875 1.480469 14.949219 C 1.5 15.023438 1.523438 15.097656 1.554688 15.171875 C 1.582031 15.226562 1.601562 15.28125 1.628906 15.335938 C 1.640625 15.355469 1.648438 15.375 1.660156 15.382812 C 1.695312 15.457031 1.734375 15.519531 1.769531 15.585938 L 1.910156 15.777344 C 1.957031 15.835938 2.015625 15.898438 2.070312 15.953125 C 2.128906 16.007812 2.183594 16.054688 2.25 16.109375 C 2.25 16.109375 2.257812 16.121094 2.269531 16.121094 C 2.324219 16.164062 2.378906 16.210938 2.4375 16.25 C 2.503906 16.292969 2.566406 16.332031 2.644531 16.367188 C 2.707031 16.40625 2.785156 16.441406 2.859375 16.46875 C 2.914062 16.496094 2.980469 16.515625 3.046875 16.535156 C 3.054688 16.542969 3.066406 16.542969 3.082031 16.554688 C 3.121094 16.5625 3.167969 16.570312 3.207031 16.582031 C 3.175781 17.078125 3.167969 17.546875 3.242188 17.714844 C 3.328125 17.898438 3.738281 17.335938 4.152344 16.691406 C 4.09375 17.328125 4.058594 18.074219 4.152344 18.292969 C 4.253906 18.523438 4.816406 17.804688 5.304688 17.015625 C 11.949219 15.503906 18.011719 20.019531 18.652344 26.398438 C 18.527344 25.402344 17.28125 24.847656 16.710938 24.984375 C 16.429688 25.667969 15.953125 26.542969 15.183594 27.085938 C 15.25 26.472656 15.21875 25.851562 15.089844 25.246094 C 14.882812 26.09375 14.480469 26.886719 13.925781 27.566406 C 13.035156 27.632812 12.144531 27.207031 11.679688 26.570312 C 11.640625 26.542969 11.632812 26.488281 11.601562 26.453125 C 11.574219 26.386719 11.546875 26.324219 11.527344 26.257812 C 11.5 26.195312 11.480469 26.132812 11.472656 26.066406 C 11.460938 26 11.460938 25.9375 11.460938 25.863281 L 11.460938 25.722656 C 11.472656 25.660156 11.488281 25.59375 11.507812 25.53125 C 11.527344 25.464844 11.546875 25.402344 11.574219 25.335938 C 11.613281 25.273438 11.640625 25.207031 11.6875 25.144531 C 11.847656 24.699219 11.847656 24.339844 11.554688 24.128906 C 11.5 24.09375 11.441406 24.0625 11.378906 24.035156 C 11.339844 24.027344 11.292969 24.007812 11.257812 24 C 11.226562 23.992188 11.210938 23.980469 11.179688 23.972656 C 11.117188 23.953125 11.050781 23.933594 10.984375 23.925781 C 10.921875 23.90625 10.855469 23.898438 10.789062 23.898438 C 10.722656 23.890625 10.648438 23.878906 10.582031 23.878906 C 10.535156 23.878906 10.488281 23.890625 10.441406 23.890625 C 10.367188 23.890625 10.300781 23.898438 10.234375 23.917969 C 10.167969 23.925781 10.101562 23.9375 10.039062 23.953125 C 9.972656 23.972656 9.90625 23.992188 9.839844 24.019531 C 9.773438 24.046875 9.71875 24.074219 9.652344 24.101562 C 9.597656 24.128906 9.539062 24.164062 9.476562 24.195312 C 7.292969 25.59375 8.59375 28.875 10.085938 29.824219 C 9.523438 29.925781 8.949219 30.046875 8.792969 30.167969 L 8.773438 30.183594 C 9.175781 30.425781 9.597656 30.628906 10.039062 30.800781 C 10.636719 30.996094 11.273438 31.171875 11.554688 31.246094 L 11.554688 31.253906 C 12.332031 31.410156 13.125 31.464844 13.917969 31.417969 C 18.070312 31.132812 21.472656 28.027344 22.089844 23.9375 C 22.109375 24.019531 22.128906 24.09375 22.144531 24.175781 C 22.175781 24.339844 22.210938 24.515625 22.230469 24.691406 L 22.230469 24.699219 C 22.25 24.785156 22.257812 24.867188 22.269531 24.941406 L 22.269531 24.976562 C 22.277344 25.058594 22.285156 25.144531 22.285156 25.21875 C 22.296875 25.316406 22.304688 25.417969 22.304688 25.519531 L 22.304688 25.667969 C 22.304688 25.714844 22.316406 25.769531 22.316406 25.816406 C 22.316406 25.871094 22.304688 25.925781 22.304688 25.980469 L 22.304688 26.109375 C 22.304688 26.175781 22.296875 26.230469 22.296875 26.296875 C 22.296875 26.332031 22.296875 26.367188 22.285156 26.414062 C 22.285156 26.480469 22.277344 26.542969 22.277344 26.617188 C 22.269531 26.644531 22.269531 26.671875 22.269531 26.699219 C 22.257812 26.773438 22.25 26.839844 22.238281 26.914062 C 22.238281 26.941406 22.238281 26.96875 22.230469 26.996094 C 22.222656 27.085938 22.203125 27.171875 22.191406 27.261719 L 22.191406 27.28125 C 22.175781 27.363281 22.15625 27.457031 22.136719 27.539062 L 22.136719 27.566406 L 22.082031 27.816406 C 22.082031 27.824219 22.070312 27.84375 22.070312 27.851562 C 22.050781 27.9375 22.035156 28.019531 22.003906 28.101562 L 22.003906 28.128906 C 21.976562 28.222656 21.949219 28.304688 21.929688 28.386719 C 21.921875 28.398438 21.921875 28.40625 21.921875 28.40625 L 21.835938 28.683594 C 21.800781 28.773438 21.769531 28.859375 21.734375 28.949219 C 21.695312 29.042969 21.667969 29.132812 21.628906 29.21875 C 21.59375 29.308594 21.554688 29.390625 21.519531 29.484375 L 21.507812 29.484375 C 21.472656 29.566406 21.433594 29.660156 21.386719 29.742188 C 21.378906 29.769531 21.367188 29.789062 21.359375 29.808594 C 21.347656 29.816406 21.347656 29.824219 21.339844 29.835938 C 20.730469 31.042969 19.832031 32.101562 18.707031 32.929688 C 18.632812 32.976562 18.554688 33.03125 18.480469 33.089844 C 18.464844 33.105469 18.433594 33.117188 18.417969 33.132812 C 18.351562 33.179688 18.285156 33.226562 18.210938 33.273438 L 18.238281 33.328125 L 18.246094 33.328125 L 18.640625 33.273438 L 18.652344 33.273438 C 18.894531 33.234375 19.136719 33.1875 19.382812 33.144531 C 19.445312 33.132812 19.523438 33.117188 19.585938 33.097656 C 19.632812 33.089844 19.671875 33.078125 19.71875 33.070312 C 19.785156 33.058594 19.851562 33.042969 19.914062 33.03125 C 19.972656 33.015625 20.027344 33.003906 20.085938 32.988281 C 21.023438 32.765625 21.929688 32.460938 22.800781 32.101562 C 21.3125 34.101562 19.316406 35.714844 16.980469 36.773438 C 18.058594 36.699219 19.136719 36.527344 20.179688 36.230469 C 23.957031 35.132812 27.132812 32.636719 29.035156 29.273438 C 28.648438 31.40625 27.789062 33.429688 26.511719 35.199219 C 27.421875 34.609375 28.261719 33.921875 29.015625 33.152344 C 31.117188 30.996094 32.492188 28.257812 32.960938 25.316406 C 33.28125 26.777344 33.371094 28.273438 33.234375 29.761719 C 40 20.480469 33.796875 10.855469 31.199219 8.324219 C 31.191406 8.304688 31.179688 8.292969 31.179688 8.277344 C 31.171875 8.285156 31.171875 8.285156 31.171875 8.292969 C 31.171875 8.285156 31.171875 8.285156 31.164062 8.277344 C 31.164062 8.386719 31.152344 8.496094 31.144531 8.609375 C 31.117188 8.820312 31.085938 9.023438 31.050781 9.226562 C 31.003906 9.429688 30.945312 9.632812 30.890625 9.832031 C 30.824219 10.035156 30.75 10.230469 30.664062 10.421875 C 30.578125 10.613281 30.484375 10.800781 30.382812 10.984375 C 30.28125 11.160156 30.167969 11.34375 30.046875 11.511719 C 29.925781 11.683594 29.796875 11.847656 29.664062 12.007812 C 29.523438 12.175781 29.371094 12.324219 29.222656 12.46875 C 29.132812 12.550781 29.042969 12.625 28.949219 12.699219 C 28.875 12.765625 28.808594 12.820312 28.734375 12.882812 C 28.566406 13.015625 28.398438 13.132812 28.210938 13.242188 C 28.03125 13.355469 27.84375 13.464844 27.65625 13.558594 C 27.460938 13.648438 27.261719 13.734375 27.066406 13.816406 C 26.871094 13.890625 26.664062 13.953125 26.457031 14.007812 C 26.25 14.0625 26.039062 14.109375 25.828125 14.148438 C 25.613281 14.183594 25.398438 14.203125 25.191406 14.222656 C 25.042969 14.230469 24.890625 14.238281 24.742188 14.238281 C 24.527344 14.238281 24.3125 14.222656 24.105469 14.203125 C 23.890625 14.183594 23.675781 14.15625 23.46875 14.109375 C 23.253906 14.074219 23.046875 14.019531 22.839844 13.953125 L 22.832031 13.953125 C 23.035156 13.933594 23.242188 13.917969 23.449219 13.878906 C 23.660156 13.84375 23.871094 13.796875 24.078125 13.742188 C 24.28125 13.6875 24.484375 13.621094 24.6875 13.546875 C 24.890625 13.472656 25.089844 13.382812 25.277344 13.289062 C 25.472656 13.199219 25.652344 13.097656 25.839844 12.984375 C 26.015625 12.867188 26.195312 12.746094 26.363281 12.617188 C 26.53125 12.488281 26.691406 12.351562 26.839844 12.203125 C 27 12.0625 27.140625 11.90625 27.28125 11.75 C 27.417969 11.589844 27.550781 11.421875 27.675781 11.253906 C 27.695312 11.226562 27.714844 11.1875 27.730469 11.160156 C 27.824219 11.011719 27.917969 10.867188 28.003906 10.71875 C 28.105469 10.535156 28.199219 10.347656 28.285156 10.15625 C 28.371094 9.964844 28.445312 9.765625 28.511719 9.566406 C 28.574219 9.371094 28.621094 9.171875 28.667969 8.96875 C 28.707031 8.753906 28.746094 8.554688 28.761719 8.351562 C 28.78125 8.136719 28.800781 7.925781 28.800781 7.722656 C 28.800781 7.574219 28.789062 7.429688 28.78125 7.28125 C 28.761719 7.070312 28.734375 6.867188 28.707031 6.664062 C 28.667969 6.457031 28.621094 6.25 28.566406 6.046875 C 28.5 5.851562 28.433594 5.648438 28.359375 5.457031 C 28.285156 5.261719 28.191406 5.070312 28.097656 4.882812 C 27.996094 4.699219 27.890625 4.515625 27.777344 4.339844 C 27.660156 4.167969 27.535156 4 27.402344 3.832031 C 27.261719 3.675781 27.121094 3.519531 26.972656 3.363281 C 26.894531 3.285156 26.8125 3.207031 26.730469 3.132812 C 26.308594 2.8125 25.875 2.511719 25.425781 2.230469 C 25.359375 2.191406 25.304688 2.164062 25.238281 2.136719 C 24.929688 1.945312 24.640625 1.84375 24.347656 1.75 Z M 24.347656 1.75 "/>
</g>
</svg>
