<?xml version="1.0" encoding="UTF-8"?>
<svg xmlns="http://www.w3.org/2000/svg" xmlns:xlink="http://www.w3.org/1999/xlink" width="40px" height="40px" viewBox="0 0 40 40" version="1.1">
<g id="surface1">
<path style=" stroke:none;fill-rule:evenodd;fill:rgb(25.490198%,15.686275%,27.450982%);fill-opacity:1;" d="M 20.039062 0 L 1.351562 6.488281 L 4.027344 31.277344 L 20.039062 40 Z M 20.039062 0 "/>
<path style=" stroke:none;fill-rule:evenodd;fill:rgb(29.411766%,19.215687%,30.980393%);fill-opacity:1;" d="M 19.960938 0 L 38.648438 6.488281 L 35.972656 31.277344 L 19.960938 40 Z M 19.960938 0 "/>
<path style=" stroke:none;fill-rule:evenodd;fill:rgb(72.941178%,16.862746%,82.352942%);fill-opacity:1;" d="M 29.3125 13.6875 L 29.3125 13.675781 C 30.164062 14.625 30.601562 15.753906 30.625 17.058594 C 30.648438 18.367188 30.210938 19.742188 29.300781 21.1875 C 29.980469 20.660156 30.765625 19.519531 31.652344 17.777344 C 32.039062 21.304688 30.613281 23.984375 27.363281 25.820312 C 28.402344 25.722656 29.777344 25.039062 31.484375 23.769531 C 29.664062 28.15625 26.3125 30.46875 21.433594 30.710938 C 16.71875 30.710938 13.664062 27.878906 13.667969 27.878906 C 11.730469 26.371094 10.394531 24.46875 9.671875 22.183594 C 8.511719 20.917969 8.5 20.78125 8.382812 20.277344 C 8.261719 19.769531 8.457031 19.628906 8.796875 19.132812 C 9.023438 18.804688 9.078125 18.328125 8.960938 17.71875 C 8.671875 17.316406 8.503906 16.691406 8.460938 15.835938 C 8.460938 15.425781 8.738281 14.988281 9.289062 14.53125 C 9.835938 14.074219 10.175781 13.722656 10.296875 13.480469 C 10.390625 13.347656 10.425781 12.773438 10.40625 11.757812 C 10.398438 10.765625 10.953125 10.222656 12.066406 10.132812 C 13.730469 10.003906 14.671875 8.75 15.195312 8.179688 C 15.546875 7.796875 16.0625 7.613281 16.714844 7.609375 C 17.632812 7.566406 18.46875 7.917969 19.1875 8.644531 C 20.976562 8.550781 22.8125 9.035156 24.671875 10.082031 C 27.316406 11.652344 28.757812 13.351562 29 15.171875 C 28.71875 17.570312 25.496094 17.507812 19.351562 14.984375 C 16.136719 15.894531 14.558594 17.867188 14.609375 20.90625 C 14.609375 23.691406 15.957031 25.714844 18.644531 26.976562 C 17.335938 25.6875 16.777344 24.609375 16.964844 23.710938 C 19.691406 26.941406 22.796875 28.148438 26.277344 27.332031 C 24.742188 27.386719 23.527344 26.894531 22.613281 25.84375 C 24.964844 25.789062 27.1875 24.695312 29.277344 22.558594 C 28.070312 23.519531 26.804688 23.882812 25.46875 23.652344 C 29.089844 20.804688 30.371094 17.484375 29.3125 13.6875 Z M 22.742188 13.25 C 23.035156 13.25 23.273438 13.011719 23.273438 12.71875 C 23.273438 12.425781 23.035156 12.1875 22.742188 12.1875 C 22.445312 12.1875 22.210938 12.425781 22.210938 12.71875 C 22.210938 13.011719 22.445312 13.25 22.742188 13.25 Z M 22.742188 13.25 "/>
</g>
</svg>
