<?xml version="1.0" encoding="UTF-8"?>
<svg xmlns="http://www.w3.org/2000/svg" xmlns:xlink="http://www.w3.org/1999/xlink" width="40px" height="40px" viewBox="0 0 40 44" version="1.1">
<g id="surface1">
<path style=" stroke:none;fill-rule:nonzero;fill:rgb(54.901963%,78.431374%,29.411766%);fill-opacity:1;" d="M 18.199219 0.558594 C 19.289062 -0.0625 20.703125 -0.0664062 21.789062 0.558594 C 27.257812 3.644531 32.726562 6.722656 38.191406 9.8125 C 39.21875 10.390625 39.90625 11.53125 39.898438 12.714844 L 39.898438 31.277344 C 39.90625 32.511719 39.148438 33.679688 38.0625 34.246094 C 32.617188 37.3125 27.167969 40.386719 21.722656 43.453125 C 20.613281 44.089844 19.167969 44.039062 18.089844 43.355469 C 16.457031 42.40625 14.820312 41.464844 13.1875 40.523438 C 12.855469 40.324219 12.476562 40.164062 12.242188 39.839844 C 12.449219 39.5625 12.824219 39.527344 13.125 39.402344 C 13.808594 39.1875 14.433594 38.839844 15.058594 38.5 C 15.21875 38.394531 15.410156 38.433594 15.5625 38.53125 C 16.960938 39.332031 18.34375 40.15625 19.746094 40.949219 C 20.046875 41.121094 20.347656 40.890625 20.605469 40.75 C 25.949219 37.730469 31.304688 34.722656 36.652344 31.703125 C 36.847656 31.609375 36.957031 31.398438 36.941406 31.183594 C 36.945312 25.058594 36.941406 18.933594 36.945312 12.8125 C 36.964844 12.566406 36.824219 12.339844 36.601562 12.238281 C 31.171875 9.183594 25.746094 6.125 20.316406 3.070312 C 20.121094 2.9375 19.867188 2.9375 19.675781 3.070312 C 14.246094 6.125 8.820312 9.1875 3.390625 12.242188 C 3.171875 12.34375 3.019531 12.5625 3.046875 12.8125 C 3.046875 18.933594 3.046875 25.058594 3.046875 31.183594 C 3.027344 31.398438 3.144531 31.605469 3.34375 31.699219 C 4.792969 32.519531 6.242188 33.332031 7.691406 34.152344 C 8.507812 34.589844 9.511719 34.851562 10.410156 34.515625 C 11.203125 34.230469 11.761719 33.421875 11.746094 32.578125 C 11.753906 26.492188 11.742188 20.402344 11.753906 14.316406 C 11.730469 14.046875 11.988281 13.824219 12.253906 13.847656 C 12.949219 13.84375 13.644531 13.839844 14.339844 13.851562 C 14.632812 13.84375 14.832031 14.132812 14.796875 14.40625 C 14.792969 20.53125 14.804688 26.660156 14.792969 32.785156 C 14.792969 34.417969 14.121094 36.195312 12.609375 36.992188 C 10.746094 37.957031 8.445312 37.753906 6.605469 36.828125 C 5.011719 36.035156 3.492188 35.097656 1.925781 34.246094 C 0.839844 33.683594 0.0859375 32.507812 0.09375 31.277344 L 0.09375 12.714844 C 0.0820312 11.507812 0.796875 10.34375 1.859375 9.773438 C 7.304688 6.703125 12.753906 3.628906 18.199219 0.558594 Z M 18.199219 0.558594 "/>
<path style=" stroke:none;fill-rule:nonzero;fill:rgb(54.901963%,78.431374%,29.411766%);fill-opacity:1;" d="M 22.953125 13.417969 C 25.328125 13.265625 27.871094 13.328125 30.011719 14.496094 C 31.664062 15.390625 32.582031 17.273438 32.613281 19.109375 C 32.566406 19.355469 32.308594 19.492188 32.070312 19.476562 C 31.382812 19.476562 30.691406 19.484375 30.003906 19.472656 C 29.710938 19.484375 29.539062 19.214844 29.503906 18.957031 C 29.304688 18.078125 28.824219 17.207031 27.996094 16.78125 C 26.726562 16.144531 25.25 16.179688 23.863281 16.191406 C 22.851562 16.246094 21.765625 16.332031 20.90625 16.925781 C 20.25 17.378906 20.046875 18.285156 20.285156 19.019531 C 20.503906 19.542969 21.113281 19.714844 21.609375 19.871094 C 24.472656 20.617188 27.507812 20.542969 30.316406 21.527344 C 31.480469 21.929688 32.617188 22.710938 33.015625 23.925781 C 33.535156 25.554688 33.308594 27.503906 32.144531 28.8125 C 31.203125 29.886719 29.832031 30.476562 28.464844 30.792969 C 26.644531 31.199219 24.757812 31.207031 22.910156 31.027344 C 21.171875 30.832031 19.363281 30.375 18.023438 29.191406 C 16.875 28.199219 16.316406 26.648438 16.371094 25.152344 C 16.386719 24.898438 16.636719 24.722656 16.878906 24.742188 C 17.574219 24.738281 18.269531 24.738281 18.960938 24.746094 C 19.238281 24.726562 19.445312 24.964844 19.460938 25.226562 C 19.585938 26.0625 19.902344 26.941406 20.632812 27.4375 C 22.042969 28.347656 23.816406 28.285156 25.429688 28.3125 C 26.769531 28.25 28.269531 28.234375 29.363281 27.351562 C 29.941406 26.847656 30.109375 26.003906 29.953125 25.277344 C 29.785156 24.664062 29.144531 24.378906 28.59375 24.191406 C 25.765625 23.300781 22.699219 23.625 19.898438 22.613281 C 18.761719 22.210938 17.664062 21.453125 17.226562 20.289062 C 16.617188 18.636719 16.898438 16.597656 18.179688 15.332031 C 19.429688 14.074219 21.234375 13.589844 22.953125 13.417969 Z M 22.953125 13.417969 "/>
</g>
</svg>
