<?xml version="1.0" encoding="UTF-8"?>
<svg xmlns="http://www.w3.org/2000/svg" xmlns:xlink="http://www.w3.org/1999/xlink" width="40px" height="40px" viewBox="0 0 40 40" version="1.1">
<g id="surface1">
<path style=" stroke:none;fill-rule:nonzero;fill:rgb(0%,0%,0%);fill-opacity:1;" d="M 36.65625 16.472656 C 37.539062 13.824219 37.234375 10.921875 35.824219 8.515625 C 33.703125 4.820312 29.4375 2.917969 25.269531 3.8125 C 23.417969 1.726562 20.753906 0.539062 17.964844 0.554688 C 13.707031 0.546875 9.925781 3.289062 8.617188 7.339844 C 5.878906 7.898438 3.519531 9.613281 2.136719 12.039062 C 0 15.722656 0.488281 20.367188 3.34375 23.527344 C 2.460938 26.175781 2.765625 29.078125 4.175781 31.484375 C 6.296875 35.179688 10.5625 37.082031 14.730469 36.1875 C 16.582031 38.273438 19.246094 39.460938 22.035156 39.445312 C 26.296875 39.453125 30.078125 36.710938 31.386719 32.65625 C 34.121094 32.097656 36.484375 30.382812 37.863281 27.957031 C 40 24.273438 39.511719 19.628906 36.65625 16.472656 Z M 22.039062 36.902344 C 20.335938 36.90625 18.683594 36.308594 17.375 35.21875 C 17.433594 35.183594 17.535156 35.128906 17.605469 35.085938 L 25.347656 30.613281 C 25.742188 30.390625 25.988281 29.96875 25.984375 29.511719 L 25.984375 18.59375 L 29.257812 20.484375 L 29.320312 29.613281 C 29.316406 33.636719 26.058594 36.894531 22.039062 36.902344 Z M 6.378906 30.214844 C 5.527344 28.738281 5.21875 27.011719 5.511719 25.332031 C 5.570312 25.367188 5.667969 25.429688 5.742188 25.46875 L 13.484375 29.941406 C 13.878906 30.171875 14.363281 30.171875 14.757812 29.941406 L 24.210938 24.484375 L 24.210938 28.261719 L 16.335938 32.882812 C 12.851562 34.890625 8.394531 33.699219 6.378906 30.214844 Z M 4.34375 13.3125 C 5.195312 11.835938 6.539062 10.703125 8.136719 10.117188 C 8.136719 10.183594 8.132812 10.300781 8.132812 10.382812 L 8.132812 19.328125 C 8.132812 19.78125 8.375 20.203125 8.769531 20.429688 L 18.222656 25.886719 L 14.949219 27.777344 L 7.011719 23.261719 C 3.53125 21.25 2.335938 16.796875 4.34375 13.3125 Z M 31.234375 19.570312 L 21.78125 14.109375 L 25.054688 12.222656 L 32.992188 16.730469 C 35.441406 18.144531 36.847656 20.847656 36.609375 23.664062 C 36.367188 26.480469 34.519531 28.90625 31.867188 29.882812 L 31.867188 20.671875 C 31.871094 20.214844 31.628906 19.796875 31.234375 19.570312 Z M 34.492188 14.667969 C 34.433594 14.632812 34.332031 14.570312 34.261719 14.53125 L 26.519531 10.058594 C 26.125 9.828125 25.640625 9.828125 25.246094 10.058594 L 15.792969 15.515625 L 15.792969 11.734375 L 23.667969 7.121094 C 26.113281 5.707031 29.15625 5.835938 31.476562 7.453125 C 33.796875 9.070312 34.96875 11.882812 34.492188 14.667969 Z M 14.011719 21.402344 L 10.738281 19.515625 L 10.675781 10.382812 C 10.679688 7.558594 12.3125 4.988281 14.875 3.789062 C 17.433594 2.589844 20.457031 2.980469 22.628906 4.789062 C 22.550781 4.828125 22.472656 4.871094 22.398438 4.917969 L 14.65625 9.390625 C 14.257812 9.613281 14.015625 10.035156 14.019531 10.492188 Z M 15.789062 17.570312 L 20 15.136719 L 24.210938 17.570312 L 24.210938 22.429688 L 20 24.859375 L 15.789062 22.429688 Z M 15.789062 17.570312 "/>
</g>
</svg>
