<?xml version="1.0" encoding="UTF-8"?>
<svg xmlns="http://www.w3.org/2000/svg" xmlns:xlink="http://www.w3.org/1999/xlink" width="40px" height="40px" viewBox="0 0 40 41" version="1.1">
<g id="surface1">
<path style=" stroke:none;fill-rule:nonzero;fill:rgb(0%,0%,0%);fill-opacity:1;" d="M 39.84375 24.546875 C 39.605469 23.828125 38.976562 23.324219 38.164062 23.203125 C 37.78125 23.148438 37.34375 23.171875 36.824219 23.277344 C 35.917969 23.460938 35.246094 23.535156 34.757812 23.546875 C 36.605469 20.445312 38.109375 16.90625 38.976562 13.574219 C 40.375 8.1875 39.628906 5.734375 38.753906 4.621094 C 36.441406 1.683594 33.066406 0.105469 28.992188 0.0585938 C 26.820312 0.03125 24.914062 0.457031 23.917969 0.765625 C 22.992188 0.601562 21.996094 0.511719 20.949219 0.496094 C 18.992188 0.464844 17.261719 0.886719 15.78125 1.761719 C 14.964844 1.484375 13.648438 1.097656 12.132812 0.847656 C 8.5625 0.265625 5.6875 0.71875 3.582031 2.199219 C 1.035156 3.988281 -0.144531 7.09375 0.0703125 11.433594 C 0.140625 12.8125 0.917969 17.003906 2.136719 20.980469 C 2.839844 23.265625 3.589844 25.164062 4.363281 26.625 C 5.460938 28.691406 6.636719 29.910156 7.953125 30.34375 C 8.695312 30.589844 10.035156 30.761719 11.449219 29.59375 C 11.628906 29.808594 11.867188 30.023438 12.183594 30.222656 C 12.585938 30.472656 13.078125 30.679688 13.570312 30.800781 C 15.34375 31.242188 17.003906 31.132812 18.417969 30.515625 C 18.429688 30.765625 18.433594 31.003906 18.441406 31.210938 C 18.449219 31.546875 18.460938 31.875 18.472656 32.179688 C 18.554688 34.257812 18.699219 35.875 19.117188 37.003906 C 19.140625 37.066406 19.171875 37.160156 19.207031 37.261719 C 19.414062 37.898438 19.765625 38.96875 20.660156 39.808594 C 21.585938 40.675781 22.707031 40.945312 23.734375 40.945312 C 24.246094 40.945312 24.738281 40.875 25.167969 40.785156 C 26.703125 40.457031 28.445312 39.960938 29.707031 38.175781 C 30.898438 36.488281 31.476562 33.949219 31.582031 29.949219 C 31.59375 29.835938 31.609375 29.726562 31.621094 29.625 L 31.644531 29.410156 L 31.925781 29.4375 L 32 29.441406 C 33.5625 29.511719 35.472656 29.183594 36.644531 28.640625 C 37.574219 28.214844 40.542969 26.652344 39.84375 24.546875 "/>
<path style=" stroke:none;fill-rule:nonzero;fill:rgb(20%,40.392157%,56.862748%);fill-opacity:1;" d="M 37.171875 24.957031 C 32.527344 25.910156 32.207031 24.347656 32.207031 24.347656 C 37.113281 17.113281 39.164062 7.929688 37.394531 5.679688 C 32.566406 -0.453125 24.207031 2.449219 24.066406 2.523438 L 24.023438 2.53125 C 23.105469 2.34375 22.078125 2.230469 20.921875 2.210938 C 18.820312 2.175781 17.222656 2.757812 16.015625 3.671875 C 16.015625 3.671875 1.101562 -2.433594 1.796875 11.347656 C 1.945312 14.28125 6.027344 33.535156 10.894531 27.71875 C 12.671875 25.59375 14.390625 23.792969 14.390625 23.792969 C 15.246094 24.359375 16.269531 24.644531 17.339844 24.542969 L 17.421875 24.472656 C 17.398438 24.738281 17.410156 24.996094 17.457031 25.300781 C 16.203125 26.691406 16.570312 26.9375 14.0625 27.449219 C 11.527344 27.96875 13.015625 28.894531 13.988281 29.136719 C 15.167969 29.429688 17.898438 29.84375 19.742188 27.28125 L 19.667969 27.574219 C 20.160156 27.964844 20.503906 30.117188 20.445312 32.066406 C 20.390625 34.019531 20.351562 35.359375 20.738281 36.40625 C 21.125 37.453125 21.511719 39.808594 24.804688 39.105469 C 27.558594 38.519531 28.988281 37 29.183594 34.464844 C 29.328125 32.664062 29.644531 32.929688 29.664062 31.316406 L 29.921875 30.554688 C 30.214844 28.113281 29.96875 27.324219 31.664062 27.691406 L 32.078125 27.726562 C 33.324219 27.78125 34.960938 27.527344 35.917969 27.082031 C 37.984375 26.128906 39.210938 24.539062 37.171875 24.957031 "/>
<path style=" stroke:none;fill-rule:nonzero;fill:rgb(100%,100%,100%);fill-opacity:1;" d="M 16.886719 12.660156 C 16.46875 12.601562 16.089844 12.65625 15.898438 12.800781 C 15.789062 12.882812 15.753906 12.976562 15.746094 13.039062 C 15.722656 13.210938 15.84375 13.402344 15.917969 13.5 C 16.128906 13.777344 16.433594 13.964844 16.738281 14.007812 C 16.785156 14.015625 16.828125 14.015625 16.871094 14.015625 C 17.378906 14.015625 17.839844 13.625 17.878906 13.335938 C 17.929688 12.972656 17.402344 12.730469 16.886719 12.660156 M 30.757812 12.671875 C 30.71875 12.386719 30.210938 12.304688 29.726562 12.371094 C 29.246094 12.441406 28.777344 12.65625 28.816406 12.941406 C 28.847656 13.164062 29.25 13.539062 29.726562 13.539062 C 29.765625 13.539062 29.808594 13.539062 29.847656 13.53125 C 30.167969 13.488281 30.398438 13.289062 30.511719 13.171875 C 30.679688 12.996094 30.777344 12.800781 30.757812 12.671875 "/>
<path style=" stroke:none;fill-rule:nonzero;fill:rgb(100%,100%,100%);fill-opacity:1;" d="M 38.71875 24.851562 C 38.542969 24.316406 37.972656 24.144531 37.023438 24.339844 C 34.210938 24.917969 33.203125 24.519531 32.871094 24.277344 C 35.058594 20.964844 36.859375 16.964844 37.828125 13.230469 C 38.289062 11.460938 38.542969 9.816406 38.5625 8.480469 C 38.585938 7.007812 38.335938 5.929688 37.816406 5.269531 C 35.71875 2.609375 32.648438 1.183594 28.925781 1.144531 C 26.371094 1.117188 24.207031 1.765625 23.789062 1.949219 C 22.90625 1.730469 21.945312 1.597656 20.898438 1.582031 C 18.976562 1.550781 17.320312 2.007812 15.945312 2.9375 C 15.347656 2.71875 13.804688 2.191406 11.917969 1.890625 C 8.65625 1.367188 6.066406 1.761719 4.214844 3.066406 C 2.011719 4.617188 0.992188 7.394531 1.1875 11.320312 C 1.253906 12.640625 2.011719 16.699219 3.207031 20.589844 C 4.777344 25.707031 6.488281 28.605469 8.285156 29.203125 C 8.496094 29.273438 8.738281 29.320312 9.007812 29.320312 C 9.664062 29.320312 10.464844 29.027344 11.304688 28.027344 C 12.324219 26.8125 13.378906 25.625 14.46875 24.46875 C 15.175781 24.84375 15.953125 25.054688 16.746094 25.078125 C 16.75 25.097656 16.75 25.117188 16.753906 25.136719 C 16.617188 25.300781 16.480469 25.464844 16.351562 25.632812 C 15.800781 26.324219 15.6875 26.46875 13.914062 26.832031 C 13.410156 26.9375 12.070312 27.210938 12.050781 28.140625 C 12.03125 29.160156 13.632812 29.589844 13.816406 29.632812 C 14.453125 29.792969 15.066406 29.871094 15.652344 29.871094 C 17.074219 29.871094 18.324219 29.40625 19.328125 28.507812 C 19.296875 32.140625 19.449219 35.71875 19.886719 36.808594 C 20.246094 37.699219 21.125 39.882812 23.898438 39.882812 C 24.304688 39.882812 24.75 39.835938 25.242188 39.730469 C 28.136719 39.113281 29.394531 37.839844 29.878906 35.039062 C 30.140625 33.542969 30.585938 29.964844 30.796875 28.046875 C 31.242188 28.183594 31.8125 28.246094 32.425781 28.246094 C 33.714844 28.246094 35.199219 27.976562 36.128906 27.546875 C 37.175781 27.0625 39.0625 25.878906 38.71875 24.851562 Z M 31.828125 11.886719 C 31.816406 12.453125 31.738281 12.96875 31.65625 13.503906 C 31.566406 14.082031 31.472656 14.675781 31.449219 15.402344 C 31.429688 16.105469 31.515625 16.839844 31.601562 17.550781 C 31.777344 18.980469 31.953125 20.453125 31.265625 21.910156 C 31.152344 21.707031 31.050781 21.5 30.960938 21.285156 C 30.875 21.082031 30.691406 20.75 30.433594 20.292969 C 29.433594 18.511719 27.089844 14.335938 28.289062 12.632812 C 28.648438 12.128906 29.554688 11.605469 31.828125 11.886719 Z M 29.070312 2.292969 C 32.402344 2.363281 35.039062 3.605469 36.90625 5.976562 C 38.339844 7.792969 36.761719 16.070312 32.199219 23.207031 C 32.152344 23.148438 32.105469 23.089844 32.058594 23.035156 L 32.003906 22.960938 C 33.183594 21.027344 32.949219 19.109375 32.746094 17.414062 C 32.660156 16.714844 32.582031 16.058594 32.601562 15.4375 C 32.621094 14.785156 32.710938 14.222656 32.792969 13.679688 C 32.898438 13.007812 33.003906 12.316406 32.972656 11.5 C 32.996094 11.414062 33.003906 11.3125 32.992188 11.191406 C 32.917969 10.40625 32.019531 8.0625 30.183594 5.941406 C 29.179688 4.78125 27.71875 3.480469 25.71875 2.605469 C 26.578125 2.429688 27.753906 2.261719 29.070312 2.292969 Z M 10.417969 27.296875 C 9.496094 28.398438 8.859375 28.1875 8.648438 28.117188 C 7.285156 27.664062 5.703125 24.800781 4.308594 20.257812 C 3.101562 16.324219 2.394531 12.371094 2.339844 11.261719 C 2.164062 7.757812 3.015625 5.3125 4.878906 4 C 7.914062 1.863281 12.898438 3.140625 14.898438 3.789062 C 14.871094 3.820312 14.839844 3.84375 14.8125 3.875 C 11.527344 7.171875 11.605469 12.808594 11.613281 13.152344 C 11.613281 13.285156 11.621094 13.476562 11.636719 13.734375 C 11.695312 14.683594 11.800781 16.445312 11.519531 18.445312 C 11.257812 20.300781 11.832031 22.117188 13.097656 23.429688 C 13.230469 23.566406 13.363281 23.691406 13.507812 23.8125 C 12.945312 24.414062 11.71875 25.738281 10.417969 27.296875 Z M 13.929688 22.636719 C 12.910156 21.582031 12.449219 20.109375 12.660156 18.601562 C 12.957031 16.492188 12.847656 14.652344 12.789062 13.667969 C 12.78125 13.527344 12.773438 13.40625 12.769531 13.3125 C 13.25 12.886719 15.472656 11.703125 17.058594 12.066406 C 17.785156 12.230469 18.226562 12.71875 18.410156 13.5625 C 19.359375 17.925781 18.535156 19.746094 17.871094 21.207031 C 17.734375 21.507812 17.605469 21.792969 17.496094 22.085938 L 17.410156 22.316406 C 17.195312 22.890625 16.996094 23.425781 16.871094 23.933594 C 15.785156 23.929688 14.730469 23.46875 13.929688 22.636719 Z M 14.097656 28.523438 C 13.78125 28.445312 13.496094 28.308594 13.328125 28.195312 C 13.46875 28.128906 13.714844 28.042969 14.148438 27.953125 C 16.230469 27.527344 16.550781 27.226562 17.253906 26.339844 C 17.417969 26.136719 17.597656 25.90625 17.851562 25.625 C 18.230469 25.207031 18.402344 25.277344 18.714844 25.40625 C 18.96875 25.507812 19.214844 25.824219 19.3125 26.171875 C 19.359375 26.335938 19.414062 26.648438 19.242188 26.890625 C 17.773438 28.933594 15.632812 28.90625 14.097656 28.523438 Z M 25.003906 38.609375 C 22.453125 39.152344 21.550781 37.859375 20.957031 36.382812 C 20.570312 35.429688 20.382812 31.125 20.515625 26.375 C 20.519531 26.3125 20.507812 26.25 20.492188 26.191406 C 20.476562 26.078125 20.453125 25.96875 20.421875 25.855469 C 20.222656 25.164062 19.738281 24.585938 19.15625 24.347656 C 18.921875 24.253906 18.5 24.078125 17.988281 24.207031 C 18.097656 23.761719 18.285156 23.257812 18.492188 22.714844 L 18.578125 22.484375 C 18.671875 22.226562 18.792969 21.960938 18.921875 21.675781 C 19.617188 20.148438 20.5625 18.050781 19.535156 13.320312 C 19.148438 11.546875 17.859375 10.683594 15.910156 10.882812 C 14.738281 11.003906 13.667969 11.472656 13.132812 11.742188 C 13.019531 11.800781 12.914062 11.855469 12.816406 11.910156 C 12.964844 10.125 13.527344 6.789062 15.632812 4.675781 C 16.960938 3.347656 18.726562 2.691406 20.878906 2.726562 C 25.121094 2.792969 27.839844 4.957031 29.375 6.757812 C 30.695312 8.3125 31.414062 9.875 31.699219 10.722656 C 29.550781 10.503906 28.085938 10.925781 27.347656 11.976562 C 25.734375 14.269531 28.226562 18.714844 29.425781 20.847656 C 29.648438 21.242188 29.835938 21.578125 29.894531 21.722656 C 30.285156 22.664062 30.792969 23.289062 31.160156 23.75 C 31.273438 23.890625 31.382812 24.027344 31.46875 24.144531 C 30.816406 24.332031 29.648438 24.761719 29.753906 26.914062 C 29.667969 27.996094 29.054688 33.058594 28.746094 34.84375 C 28.335938 37.207031 27.460938 38.085938 25.003906 38.609375 Z M 35.644531 26.507812 C 34.976562 26.816406 33.863281 27.046875 32.804688 27.09375 C 31.636719 27.148438 31.042969 26.964844 30.902344 26.851562 C 30.835938 25.507812 31.339844 25.367188 31.871094 25.21875 C 31.957031 25.195312 32.035156 25.171875 32.117188 25.144531 C 32.164062 25.1875 32.21875 25.226562 32.277344 25.265625 C 33.214844 25.878906 34.890625 25.945312 37.257812 25.460938 L 37.28125 25.457031 C 36.964844 25.753906 36.417969 26.152344 35.644531 26.507812 Z M 35.644531 26.507812 "/>
</g>
</svg>
