<?xml version="1.0" encoding="UTF-8"?>
<svg xmlns="http://www.w3.org/2000/svg" xmlns:xlink="http://www.w3.org/1999/xlink" width="40px" height="40px" viewBox="0 0 40 39" version="1.1">
<defs>
<linearGradient id="linear0" gradientUnits="userSpaceOnUse" x1="0.12959" y1="0.12039" x2="0.79639" y2="0.78201" gradientTransform="matrix(29.574219,0,0,29.027344,0.0234375,0.0117188)">
<stop offset="0" style="stop-color:rgb(21.960784%,49.411765%,72.156863%);stop-opacity:1;"/>
<stop offset="1" style="stop-color:rgb(21.176471%,41.176471%,58.039216%);stop-opacity:1;"/>
</linearGradient>
<linearGradient id="linear1" gradientUnits="userSpaceOnUse" x1="0.19128" y1="0.20579" x2="0.90742" y2="0.88429" gradientTransform="matrix(29.574219,0,0,29.027344,10.347656,9.839844)">
<stop offset="0" style="stop-color:rgb(100%,87.843137%,32.156863%);stop-opacity:1;"/>
<stop offset="1" style="stop-color:rgb(100%,76.470588%,19.215686%);stop-opacity:1;"/>
</linearGradient>
</defs>
<g id="surface1">
<path style=" stroke:none;fill-rule:nonzero;fill:url(#linear0);" d="M 19.828125 0.0117188 C 9.699219 0.0117188 10.332031 4.3125 10.332031 4.3125 L 10.34375 8.765625 L 20.007812 8.765625 L 20.007812 10.101562 L 6.503906 10.101562 C 6.503906 10.101562 0.0234375 9.382812 0.0234375 19.386719 C 0.0234375 29.394531 5.679688 29.039062 5.679688 29.039062 L 9.054688 29.039062 L 9.054688 24.394531 C 9.054688 24.394531 8.875 18.859375 14.625 18.859375 L 24.210938 18.859375 C 24.210938 18.859375 29.597656 18.941406 29.597656 13.761719 L 29.597656 5.195312 C 29.597656 5.195312 30.414062 0.0117188 19.828125 0.0117188 Z M 14.5 3.007812 C 14.960938 3.007812 15.402344 3.1875 15.730469 3.503906 C 16.054688 3.824219 16.238281 4.257812 16.238281 4.710938 C 16.238281 5.160156 16.054688 5.59375 15.730469 5.914062 C 15.402344 6.234375 14.960938 6.410156 14.5 6.410156 C 14.039062 6.410156 13.59375 6.234375 13.269531 5.914062 C 12.941406 5.59375 12.757812 5.160156 12.761719 4.710938 C 12.757812 4.257812 12.941406 3.824219 13.269531 3.503906 C 13.59375 3.1875 14.039062 3.007812 14.5 3.007812 Z M 14.5 3.007812 "/>
<path style=" stroke:none;fill-rule:nonzero;fill:url(#linear1);" d="M 20.117188 38.867188 C 30.246094 38.867188 29.613281 34.566406 29.613281 34.566406 L 29.601562 30.113281 L 19.9375 30.113281 L 19.9375 28.773438 L 33.441406 28.773438 C 33.441406 28.773438 39.921875 29.492188 39.921875 19.488281 C 39.921875 9.484375 34.265625 9.839844 34.265625 9.839844 L 30.890625 9.839844 L 30.890625 14.480469 C 30.890625 14.480469 31.070312 20.019531 25.320312 20.019531 L 15.734375 20.019531 C 15.734375 20.019531 10.347656 19.933594 10.347656 25.117188 L 10.347656 33.683594 C 10.347656 33.683594 9.53125 38.867188 20.117188 38.867188 Z M 25.445312 35.871094 C 24.984375 35.871094 24.542969 35.691406 24.214844 35.371094 C 23.890625 35.054688 23.707031 34.621094 23.707031 34.167969 C 23.707031 33.71875 23.890625 33.285156 24.214844 32.964844 C 24.542969 32.644531 24.984375 32.464844 25.445312 32.464844 C 25.90625 32.464844 26.351562 32.644531 26.675781 32.964844 C 27.003906 33.285156 27.183594 33.71875 27.183594 34.167969 C 27.183594 34.621094 27.003906 35.054688 26.675781 35.371094 C 26.351562 35.691406 25.90625 35.871094 25.445312 35.871094 Z M 25.445312 35.871094 "/>
</g>
</svg>
