<?xml version="1.0" encoding="UTF-8"?>
<svg xmlns="http://www.w3.org/2000/svg" xmlns:xlink="http://www.w3.org/1999/xlink" width="80px" height="80px" viewBox="0 0 80 80" version="1.1">
<g id="surface1">
<path style=" stroke:none;fill-rule:nonzero;fill:rgb(99.607843%,99.607843%,99.607843%);fill-opacity:1;" d="M 0 0 C 26.398438 0 52.800781 0 80 0 C 80 26.398438 80 52.800781 80 80 C 53.601562 80 27.199219 80 0 80 C 0 53.601562 0 27.199219 0 0 Z M 0 0 "/>
<path style=" stroke:none;fill-rule:nonzero;fill:rgb(0.392157%,0.392157%,24.705882%);fill-opacity:1;" d="M 56.230469 8.410156 C 59.054688 10.734375 61.222656 13.34375 63.289062 16.355469 C 63.171875 16.589844 63.054688 16.824219 62.933594 17.066406 C 62.730469 16.933594 62.527344 16.800781 62.316406 16.664062 C 53.941406 11.375 41.886719 9.183594 32.132812 10.910156 C 27.617188 12.019531 24.246094 14.164062 20.976562 17.421875 C 20.730469 17.664062 20.480469 17.902344 20.222656 18.152344 C 15.378906 23.167969 13.636719 29.609375 13.699219 36.421875 C 13.898438 42.929688 16.007812 47.984375 20.621094 52.621094 C 20.804688 52.820312 20.992188 53.015625 21.179688 53.21875 C 25.367188 57.285156 31.164062 58.472656 36.753906 58.464844 C 41.667969 58.378906 45.421875 56.929688 49.421875 54.042969 C 48.125 52.015625 46.761719 50.152344 45.15625 48.355469 C 45.273438 48.121094 45.390625 47.886719 45.511719 47.644531 C 45.949219 47.796875 46.390625 47.945312 46.84375 48.101562 C 51.695312 49.75 56.585938 51.222656 61.511719 52.621094 C 61.878906 55.1875 62.039062 57.761719 62.199219 60.347656 C 62.246094 61.105469 62.292969 61.867188 62.34375 62.625 C 62.507812 65.21875 62.617188 67.800781 62.578125 70.398438 C 61.230469 69.109375 60.09375 67.757812 58.976562 66.265625 C 57.679688 64.511719 57.679688 64.511719 56.179688 62.933594 C 55.863281 63.144531 55.550781 63.355469 55.226562 63.570312 C 52.664062 65.265625 50.144531 66.753906 47.289062 67.910156 C 46.929688 68.070312 46.929688 68.070312 46.566406 68.230469 C 40.140625 70.90625 31.527344 70.371094 25.15625 67.785156 C 20.964844 65.976562 17.523438 63.597656 14.222656 60.445312 C 14.007812 60.257812 13.792969 60.070312 13.570312 59.875 C 10.070312 56.683594 7.539062 52.078125 6.042969 47.644531 C 5.914062 47.265625 5.914062 47.265625 5.785156 46.878906 C 2.953125 38.144531 3.535156 28.359375 7.542969 20.082031 C 11.796875 11.777344 18.402344 5.5 27.355469 2.601562 C 37.675781 -0.242188 47.789062 1.875 56.230469 8.410156 Z M 56.230469 8.410156 "/>
<path style=" stroke:none;fill-rule:nonzero;fill:rgb(63.529414%,72.549021%,87.843138%);fill-opacity:1;" d="M 51.910156 16.355469 C 56.589844 16.914062 62.199219 18.386719 65.265625 22.214844 C 67.800781 26.652344 67.457031 33.746094 66.246094 38.578125 C 64.785156 43.871094 62.363281 47.890625 58.667969 51.910156 C 58.136719 51.734375 58.136719 51.734375 57.601562 51.554688 C 57.996094 51.136719 57.996094 51.136719 58.398438 50.710938 C 61.890625 46.546875 61.5 40.632812 61.15625 35.554688 C 60.191406 28.304688 56.4375 21.941406 51.910156 16.355469 Z M 51.910156 16.355469 "/>
<path style=" stroke:none;fill-rule:nonzero;fill:rgb(18.82353%,29.019609%,46.666667%);fill-opacity:1;" d="M 51.910156 16.355469 C 56.75 16.933594 62.109375 18.4375 65.289062 22.335938 C 66.457031 24.191406 66.597656 26.292969 66.488281 28.445312 C 66.269531 28.304688 66.050781 28.160156 65.824219 28.015625 C 63.574219 26.609375 61.355469 25.335938 58.660156 25.183594 C 57.601562 24.890625 57.601562 24.890625 56.871094 23.878906 C 56.648438 23.449219 56.433594 23.015625 56.222656 22.578125 C 55.171875 20.558594 54.023438 18.921875 52.433594 17.269531 C 51.910156 16.710938 51.910156 16.710938 51.910156 16.355469 Z M 51.910156 16.355469 "/>
<path style=" stroke:none;fill-rule:nonzero;fill:rgb(18.82353%,18.82353%,32.941177%);fill-opacity:1;" d="M 61.867188 64 C 61.984375 64 62.101562 64 62.222656 64 C 62.539062 66.152344 62.617188 68.226562 62.578125 70.398438 C 62.039062 70.039062 62.039062 70.039062 61.511719 69.332031 C 61.492188 68.382812 61.523438 67.535156 61.621094 66.601562 C 61.644531 66.351562 61.664062 66.101562 61.6875 65.84375 C 61.742188 65.230469 61.804688 64.613281 61.867188 64 Z M 61.867188 64 "/>
</g>
</svg>
