<?xml version="1.0" encoding="UTF-8"?>
<svg xmlns="http://www.w3.org/2000/svg" xmlns:xlink="http://www.w3.org/1999/xlink" width="40px" height="40px" viewBox="0 0 40 42" version="1.1">
<g id="surface1">
<path style=" stroke:none;fill-rule:nonzero;fill:rgb(100%,40.000001%,0%);fill-opacity:1;" d="M 38.347656 16.785156 L 25.054688 16.785156 C 24.386719 16.785156 23.847656 16.25 23.84375 15.585938 L 23.84375 1.84375 C 23.84375 0.824219 23.011719 0 21.988281 0 L 17.242188 0 C 16.214844 0 15.386719 0.824219 15.386719 1.84375 L 15.386719 15.503906 C 15.386719 16.210938 14.808594 16.789062 14.09375 16.792969 L 9.738281 16.8125 C 9.015625 16.816406 8.429688 16.238281 8.433594 15.523438 L 8.460938 1.847656 C 8.460938 0.828125 7.628906 0 6.601562 0 L 1.859375 0 C 0.835938 0 0.00390625 0.824219 0.00390625 1.84375 L 0.00390625 40.328125 C 0.00390625 41.230469 0.742188 41.964844 1.652344 41.964844 L 38.347656 41.964844 C 39.257812 41.964844 39.996094 41.230469 39.996094 40.328125 L 39.996094 18.421875 C 39.996094 17.519531 39.257812 16.785156 38.347656 16.785156 Z M 32.113281 31.234375 C 32.113281 32.421875 31.144531 33.378906 29.949219 33.378906 L 26.199219 33.378906 C 25.007812 33.378906 24.039062 32.421875 24.039062 31.234375 L 24.039062 27.515625 C 24.039062 26.328125 25.007812 25.371094 26.199219 25.371094 L 29.949219 25.371094 C 31.144531 25.371094 32.113281 26.328125 32.113281 27.515625 Z M 32.113281 31.234375 "/>
</g>
</svg>
