<?xml version="1.0" encoding="UTF-8"?>
<svg xmlns="http://www.w3.org/2000/svg" xmlns:xlink="http://www.w3.org/1999/xlink" width="40px" height="40px" viewBox="0 0 40 45" version="1.1">
<g id="surface1">
<path style=" stroke:none;fill-rule:nonzero;fill:rgb(38.039216%,85.490197%,98.431373%);fill-opacity:1;" d="M 40 22.503906 C 40 19.886719 36.679688 17.410156 31.59375 15.871094 C 32.769531 10.75 32.246094 6.679688 29.945312 5.375 C 29.417969 5.066406 28.796875 4.921875 28.121094 4.921875 L 28.121094 6.71875 C 28.496094 6.71875 28.796875 6.789062 29.050781 6.929688 C 30.160156 7.554688 30.640625 9.945312 30.265625 13.019531 C 30.175781 13.777344 30.027344 14.574219 29.847656 15.386719 C 28.25 15 26.507812 14.703125 24.671875 14.511719 C 23.570312 13.019531 22.429688 11.667969 21.28125 10.484375 C 23.9375 8.046875 26.433594 6.710938 28.128906 6.710938 L 28.128906 4.914062 C 25.886719 4.914062 22.953125 6.492188 19.984375 9.230469 C 17.015625 6.507812 14.082031 4.949219 11.839844 4.949219 L 11.839844 6.742188 C 13.527344 6.742188 16.03125 8.070312 18.6875 10.492188 C 17.546875 11.675781 16.40625 13.019531 15.320312 14.511719 C 13.476562 14.703125 11.734375 15 10.132812 15.394531 C 9.945312 14.589844 9.808594 13.808594 9.710938 13.0625 C 9.328125 9.988281 9.800781 7.597656 10.902344 6.960938 C 11.144531 6.816406 11.464844 6.75 11.839844 6.75 L 11.839844 4.957031 C 11.152344 4.957031 10.535156 5.101562 9.996094 5.40625 C 7.703125 6.710938 7.191406 10.777344 8.375 15.878906 C 3.300781 17.425781 0 19.894531 0 22.503906 C 0 25.121094 3.320312 27.597656 8.40625 29.136719 C 7.230469 34.257812 7.753906 38.328125 10.054688 39.632812 C 10.582031 39.941406 11.203125 40.085938 11.886719 40.085938 C 14.128906 40.085938 17.066406 38.507812 20.03125 35.769531 C 23 38.492188 25.9375 40.050781 28.179688 40.050781 C 28.863281 40.050781 29.480469 39.90625 30.019531 39.601562 C 32.3125 38.296875 32.824219 34.234375 31.644531 29.128906 C 36.699219 27.589844 40 25.113281 40 22.503906 Z M 29.382812 17.136719 C 29.082031 18.171875 28.707031 19.242188 28.285156 20.316406 C 27.949219 19.671875 27.597656 19.027344 27.214844 18.382812 C 26.839844 17.738281 26.441406 17.109375 26.042969 16.5 C 27.199219 16.667969 28.316406 16.878906 29.382812 17.136719 Z M 25.648438 25.707031 C 25.015625 26.792969 24.363281 27.824219 23.683594 28.78125 C 22.46875 28.886719 21.238281 28.945312 20 28.945312 C 18.769531 28.945312 17.539062 28.886719 16.332031 28.789062 C 15.65625 27.832031 14.992188 26.8125 14.359375 25.730469 C 13.738281 24.675781 13.175781 23.605469 12.660156 22.527344 C 13.167969 21.449219 13.738281 20.371094 14.351562 19.316406 C 14.984375 18.230469 15.636719 17.199219 16.316406 16.242188 C 17.53125 16.136719 18.761719 16.082031 20 16.082031 C 21.230469 16.082031 22.460938 16.136719 23.667969 16.234375 C 24.34375 17.191406 25.007812 18.214844 25.640625 19.292969 C 26.261719 20.347656 26.824219 21.417969 27.339844 22.496094 C 26.824219 23.574219 26.261719 24.652344 25.648438 25.707031 Z M 28.285156 24.660156 C 28.722656 25.738281 29.097656 26.820312 29.410156 27.863281 C 28.339844 28.121094 27.214844 28.339844 26.050781 28.507812 C 26.449219 27.890625 26.847656 27.253906 27.222656 26.601562 C 27.597656 25.957031 27.949219 25.304688 28.285156 24.660156 Z M 20.015625 33.25 C 19.257812 32.476562 18.5 31.617188 17.75 30.675781 C 18.484375 30.707031 19.234375 30.730469 19.992188 30.730469 C 20.757812 30.730469 21.515625 30.714844 22.257812 30.675781 C 21.523438 31.617188 20.765625 32.476562 20.015625 33.25 Z M 13.949219 28.507812 C 12.792969 28.339844 11.675781 28.128906 10.605469 27.875 C 10.910156 26.835938 11.285156 25.765625 11.707031 24.695312 C 12.042969 25.335938 12.394531 25.980469 12.777344 26.625 C 13.160156 27.269531 13.550781 27.898438 13.949219 28.507812 Z M 19.976562 11.757812 C 20.734375 12.53125 21.492188 13.390625 22.242188 14.332031 C 21.507812 14.300781 20.757812 14.277344 20 14.277344 C 19.234375 14.277344 18.476562 14.292969 17.734375 14.332031 C 18.46875 13.390625 19.226562 12.53125 19.976562 11.757812 Z M 13.941406 16.5 C 13.542969 17.117188 13.144531 17.753906 12.769531 18.40625 C 12.394531 19.050781 12.042969 19.695312 11.707031 20.339844 C 11.269531 19.261719 10.894531 18.179688 10.582031 17.136719 C 11.652344 16.886719 12.777344 16.667969 13.941406 16.5 Z M 6.5625 26.578125 C 3.675781 25.363281 1.808594 23.769531 1.808594 22.503906 C 1.808594 21.238281 3.675781 19.636719 6.5625 18.429688 C 7.265625 18.132812 8.03125 17.867188 8.820312 17.617188 C 9.285156 19.195312 9.898438 20.835938 10.65625 22.519531 C 9.90625 24.195312 9.304688 25.828125 8.847656 27.398438 C 8.039062 27.148438 7.273438 26.875 6.5625 26.578125 Z M 10.949219 38.082031 C 9.839844 37.453125 9.359375 35.0625 9.734375 31.988281 C 9.824219 31.230469 9.972656 30.433594 10.152344 29.621094 C 11.75 30.007812 13.492188 30.304688 15.328125 30.496094 C 16.429688 31.988281 17.570312 33.339844 18.71875 34.523438 C 16.0625 36.960938 13.566406 38.296875 11.871094 38.296875 C 11.503906 38.289062 11.195312 38.21875 10.949219 38.082031 Z M 30.289062 31.945312 C 30.671875 35.019531 30.199219 37.414062 29.097656 38.046875 C 28.855469 38.191406 28.535156 38.257812 28.160156 38.257812 C 26.472656 38.257812 23.96875 36.929688 21.3125 34.507812 C 22.453125 33.324219 23.59375 31.980469 24.679688 30.488281 C 26.523438 30.296875 28.265625 30 29.867188 29.605469 C 30.054688 30.417969 30.199219 31.199219 30.289062 31.945312 Z M 33.429688 26.578125 C 32.726562 26.875 31.960938 27.140625 31.171875 27.390625 C 30.707031 25.8125 30.09375 24.171875 29.335938 22.488281 C 30.085938 20.8125 30.6875 19.179688 31.144531 17.609375 C 31.953125 17.859375 32.71875 18.132812 33.4375 18.429688 C 36.324219 19.644531 38.191406 21.238281 38.191406 22.503906 C 38.183594 23.769531 36.316406 25.371094 33.429688 26.578125 Z M 33.429688 26.578125 "/>
<path style=" stroke:none;fill-rule:nonzero;fill:rgb(38.039216%,85.490197%,98.431373%);fill-opacity:1;" d="M 23.71875 22.503906 C 23.71875 20.472656 22.050781 18.824219 19.992188 18.824219 C 17.933594 18.824219 16.265625 20.472656 16.265625 22.503906 C 16.265625 24.535156 17.933594 26.183594 19.992188 26.183594 C 22.050781 26.183594 23.71875 24.535156 23.71875 22.503906 Z M 23.71875 22.503906 "/>
</g>
</svg>
