<?xml version="1.0" encoding="UTF-8"?>
<svg xmlns="http://www.w3.org/2000/svg" xmlns:xlink="http://www.w3.org/1999/xlink" width="40px" height="40px" viewBox="0 0 40 34" version="1.1">
<g id="surface1">
<path style=" stroke:none;fill-rule:nonzero;fill:rgb(56.862748%,14.901961%,14.901961%);fill-opacity:1;" d="M 38.425781 26.109375 C 36.289062 27.210938 25.234375 31.707031 22.882812 32.921875 C 20.527344 34.136719 19.21875 34.125 17.359375 33.242188 C 15.5 32.363281 3.734375 27.664062 1.617188 26.660156 C 0.558594 26.160156 0 25.738281 0 25.335938 L 0 21.339844 C 0 21.339844 15.316406 18.039062 17.789062 17.164062 C 20.261719 16.285156 21.121094 16.253906 23.226562 17.015625 C 25.328125 17.777344 37.914062 20.023438 39.992188 20.777344 L 39.992188 24.71875 C 39.992188 25.117188 39.511719 25.550781 38.425781 26.109375 "/>
<path style=" stroke:none;fill-rule:nonzero;fill:rgb(77.64706%,18.82353%,16.862746%);fill-opacity:1;" d="M 38.425781 22.132812 C 36.289062 23.234375 25.234375 27.730469 22.878906 28.945312 C 20.527344 30.160156 19.21875 30.148438 17.359375 29.269531 C 15.5 28.390625 3.734375 23.6875 1.617188 22.683594 C -0.503906 21.683594 -0.546875 20.992188 1.535156 20.1875 C 3.617188 19.378906 15.316406 14.839844 17.789062 13.960938 C 20.261719 13.082031 21.121094 13.050781 23.226562 13.816406 C 25.328125 14.578125 36.320312 18.90625 38.398438 19.65625 C 40.476562 20.414062 40.558594 21.035156 38.425781 22.132812 "/>
<path style=" stroke:none;fill-rule:nonzero;fill:rgb(56.862748%,14.901961%,14.901961%);fill-opacity:1;" d="M 38.425781 19.640625 C 36.289062 20.738281 25.234375 25.238281 22.882812 26.449219 C 20.527344 27.664062 19.21875 27.652344 17.359375 26.773438 C 15.5 25.894531 3.734375 21.191406 1.617188 20.191406 C 0.558594 19.6875 0 19.265625 0 18.867188 L 0 14.867188 C 0 14.867188 15.316406 11.570312 17.789062 10.691406 C 20.261719 9.8125 21.121094 9.78125 23.226562 10.546875 C 25.328125 11.308594 37.914062 13.554688 39.992188 14.308594 L 39.992188 18.25 C 39.992188 18.644531 39.511719 19.078125 38.425781 19.640625 "/>
<path style=" stroke:none;fill-rule:nonzero;fill:rgb(77.64706%,18.82353%,16.862746%);fill-opacity:1;" d="M 38.425781 15.664062 C 36.289062 16.765625 25.234375 21.261719 22.878906 22.476562 C 20.527344 23.6875 19.21875 23.675781 17.359375 22.796875 C 15.5 21.917969 3.734375 17.214844 1.617188 16.214844 C -0.503906 15.210938 -0.546875 14.523438 1.535156 13.714844 C 3.617188 12.910156 15.316406 8.367188 17.789062 7.492188 C 20.261719 6.613281 21.121094 6.582031 23.226562 7.34375 C 25.328125 8.105469 36.320312 12.433594 38.398438 13.1875 C 40.476562 13.941406 40.558594 14.5625 38.425781 15.664062 "/>
<path style=" stroke:none;fill-rule:nonzero;fill:rgb(56.862748%,14.901961%,14.901961%);fill-opacity:1;" d="M 38.425781 12.929688 C 36.289062 14.027344 25.234375 18.527344 22.882812 19.742188 C 20.527344 20.953125 19.21875 20.941406 17.359375 20.0625 C 15.5 19.183594 3.734375 14.480469 1.617188 13.480469 C 0.558594 12.980469 0 12.554688 0 12.15625 L 0 8.15625 C 0 8.15625 15.316406 4.859375 17.789062 3.980469 C 20.261719 3.105469 21.121094 3.074219 23.226562 3.835938 C 25.328125 4.597656 37.914062 6.84375 39.992188 7.597656 L 39.992188 11.539062 C 39.992188 11.933594 39.511719 12.367188 38.425781 12.929688 "/>
<path style=" stroke:none;fill-rule:nonzero;fill:rgb(77.64706%,18.82353%,16.862746%);fill-opacity:1;" d="M 38.425781 8.953125 C 36.289062 10.054688 25.234375 14.550781 22.878906 15.765625 C 20.527344 16.976562 19.21875 16.964844 17.359375 16.085938 C 15.5 15.207031 3.734375 10.507812 1.617188 9.503906 C -0.503906 8.503906 -0.546875 7.8125 1.535156 7.003906 C 3.617188 6.199219 15.316406 1.660156 17.789062 0.78125 C 20.261719 -0.0976562 21.121094 -0.128906 23.226562 0.632812 C 25.328125 1.398438 36.320312 5.722656 38.398438 6.476562 C 40.476562 7.230469 40.558594 7.851562 38.425781 8.953125 "/>
<path style=" stroke:none;fill-rule:nonzero;fill:rgb(100%,100%,100%);fill-opacity:1;" d="M 24.882812 5.0625 L 21.445312 5.414062 L 20.675781 7.246094 L 19.433594 5.203125 L 15.460938 4.851562 L 18.425781 3.792969 L 17.535156 2.171875 L 20.308594 3.242188 L 22.921875 2.398438 L 22.214844 4.074219 L 24.882812 5.0625 M 20.46875 13.953125 L 14.050781 11.320312 L 23.246094 9.921875 L 20.46875 13.953125 M 11.574219 6.082031 C 14.289062 6.082031 16.488281 6.925781 16.488281 7.964844 C 16.488281 9.007812 14.289062 9.851562 11.574219 9.851562 C 8.859375 9.851562 6.660156 9.007812 6.660156 7.964844 C 6.660156 6.925781 8.859375 6.082031 11.574219 6.082031 "/>
<path style=" stroke:none;fill-rule:nonzero;fill:rgb(38.431373%,10.588235%,10.980392%);fill-opacity:1;" d="M 28.945312 5.5625 L 34.386719 7.691406 L 28.949219 9.816406 L 28.945312 5.5625 "/>
<path style=" stroke:none;fill-rule:nonzero;fill:rgb(60.392159%,16.078432%,15.686275%);fill-opacity:1;" d="M 22.925781 7.917969 L 28.945312 5.5625 L 28.949219 9.816406 L 28.359375 10.042969 L 22.925781 7.917969 "/>
</g>
</svg>
