<?xml version="1.0" encoding="UTF-8"?>
<svg xmlns="http://www.w3.org/2000/svg" xmlns:xlink="http://www.w3.org/1999/xlink" width="40px" height="40px" viewBox="0 0 40 42" version="1.1">
<defs>
<linearGradient id="linear0" gradientUnits="userSpaceOnUse" x1="53.495998" y1="247.701004" x2="177.932007" y2="115.322998" gradientTransform="matrix(0.152207,0,0,0.15189,-1.841705,-0.948166)">
<stop offset="0" style="stop-color:rgb(87.843137%,11.372549%,51.764706%);stop-opacity:1;"/>
<stop offset="0.401" style="stop-color:rgb(87.45098%,11.372549%,52.156863%);stop-opacity:1;"/>
<stop offset="0.77" style="stop-color:rgb(57.647059%,17.254902%,52.941176%);stop-opacity:1;"/>
<stop offset="1" style="stop-color:rgb(36.470588%,18.431373%,53.333333%);stop-opacity:1;"/>
</linearGradient>
<radialGradient id="radial0" gradientUnits="userSpaceOnUse" cx="190.455994" cy="80.199997" fx="190.455994" fy="80.199997" r="121.582001" gradientTransform="matrix(0.152207,0.000363018,-0.000304414,0.127011,-1.817352,0.978564)">
<stop offset="0" style="stop-color:rgb(87.843137%,11.372549%,51.764706%);stop-opacity:1;"/>
<stop offset="0.139" style="stop-color:rgb(87.058824%,11.764706%,52.156863%);stop-opacity:1;"/>
<stop offset="0.285" style="stop-color:rgb(83.921569%,12.54902%,52.156863%);stop-opacity:1;"/>
<stop offset="0.434" style="stop-color:rgb(78.823529%,13.72549%,52.54902%);stop-opacity:1;"/>
<stop offset="0.586" style="stop-color:rgb(71.764706%,15.294118%,52.54902%);stop-opacity:1;"/>
<stop offset="0.739" style="stop-color:rgb(61.568627%,16.862745%,52.941176%);stop-opacity:1;"/>
<stop offset="0.891" style="stop-color:rgb(48.627451%,18.039216%,53.333333%);stop-opacity:1;"/>
<stop offset="1" style="stop-color:rgb(36.470588%,18.431373%,53.333333%);stop-opacity:1;"/>
</radialGradient>
<linearGradient id="linear1" gradientUnits="userSpaceOnUse" x1="83.211998" y1="62.335999" x2="137.371002" y2="62.335999" gradientTransform="matrix(0.152207,0,0,0.15189,-1.841705,-0.948166)">
<stop offset="0" style="stop-color:rgb(87.843137%,11.372549%,51.764706%);stop-opacity:1;"/>
<stop offset="0.238" style="stop-color:rgb(85.490196%,11.764706%,52.156863%);stop-opacity:1;"/>
<stop offset="0.658" style="stop-color:rgb(78.039216%,12.54902%,52.156863%);stop-opacity:1;"/>
<stop offset="0.999" style="stop-color:rgb(70.980392%,13.333333%,51.764706%);stop-opacity:1;"/>
</linearGradient>
</defs>
<g id="surface1">
<path style=" stroke:none;fill-rule:nonzero;fill:rgb(89.019608%,13.333334%,52.549022%);fill-opacity:1;" d="M 2.664062 25.679688 C 1.871094 23.21875 1.644531 20.621094 2.101562 17.945312 C 2.296875 16.839844 2.601562 15.773438 2.9375 14.695312 C 2.9375 14.695312 5.039062 7.816406 12.144531 4.671875 C 12.144531 4.671875 14.597656 3.378906 18.28125 3.289062 C 18.28125 3.289062 17.777344 2.804688 17.457031 2.589844 C 15.722656 1.4375 13.136719 1.058594 11.566406 2.683594 C 11.097656 3.167969 10.699219 3.699219 10.257812 4.1875 C 9.757812 4.734375 9.148438 5.1875 8.449219 5.445312 C 7.839844 5.675781 7.230469 5.628906 6.605469 5.734375 C 5.964844 5.839844 5.3125 6.070312 4.792969 6.480469 C 4.230469 6.933594 4.003906 7.542969 3.941406 8.242188 C 3.882812 8.789062 3.898438 9.351562 3.867188 9.898438 C 3.789062 11.507812 3.273438 11.960938 2.117188 12.859375 C 1.628906 13.222656 1.21875 13.710938 0.914062 14.226562 C 0 15.835938 1.460938 17.507812 1.539062 19.132812 C 1.550781 19.464844 1.523438 19.800781 1.398438 20.117188 C 1.277344 20.46875 1.035156 20.695312 0.835938 20.984375 C 0.5625 21.363281 0.378906 21.820312 0.457031 22.292969 C 0.53125 22.761719 0.777344 23.203125 1.003906 23.613281 C 1.445312 24.339844 1.992188 24.996094 2.574219 25.617188 C 2.601562 25.617188 2.632812 25.648438 2.664062 25.679688 "/>
<path style=" stroke:none;fill-rule:nonzero;fill:url(#linear0);" d="M 31.703125 31.511719 C 35.207031 29.992188 36.695312 27.363281 36.695312 27.363281 C 39.96875 22.914062 38.859375 18.21875 38.859375 18.21875 C 36.773438 22.746094 34.871094 23.992188 34.871094 23.992188 C 40 16.199219 34.902344 11.492188 34.902344 11.492188 C 36.984375 15.925781 34.214844 21.335938 34.214844 21.335938 C 31.886719 26.226562 28.585938 27.972656 28.585938 27.972656 C 32.269531 28.65625 34.976562 26.179688 34.976562 26.179688 C 29.695312 31.875 23.972656 31.601562 23.972656 31.601562 C 26.378906 34.289062 29.984375 34.0625 29.984375 34.0625 C 25.265625 35.171875 20.835938 33.605469 17.199219 30.585938 C 16.515625 30.023438 15.859375 29.414062 15.25 28.761719 C 15.25 28.761719 14.703125 28.183594 14.597656 28.03125 L 14.582031 28.015625 C 14.503906 30.828125 17.441406 33.441406 17.441406 33.441406 C 13.757812 31.921875 12.070312 28.625 12.070312 28.625 C 12.070312 28.625 9.589844 24.402344 11.386719 19.585938 C 13.179688 14.773438 18.613281 13.738281 18.613281 13.738281 C 23.105469 15.910156 26.910156 16.59375 26.910156 16.59375 C 34.929688 17.933594 34.476562 14.011719 34.476562 14.011719 C 34.550781 10.640625 29.453125 7.054688 29.453125 7.054688 C 20.367188 0.328125 12.144531 4.671875 12.144531 4.671875 C 5.039062 7.816406 2.9375 14.695312 2.9375 14.695312 C 2.601562 15.773438 2.296875 16.839844 2.101562 17.945312 C 1.324219 22.457031 2.496094 26.726562 5.039062 30.523438 C 8.996094 36.417969 15.417969 38.453125 15.417969 38.453125 C 24.929688 41.671875 31.429688 36.933594 31.429688 36.933594 C 37.414062 32.832031 38.613281 28.09375 38.613281 28.09375 C 33.789062 31.859375 31.703125 31.511719 31.703125 31.511719 Z M 24.277344 9.351562 C 24.734375 9.351562 25.097656 9.714844 25.097656 10.171875 C 25.097656 10.625 24.734375 10.992188 24.277344 10.992188 C 23.820312 10.992188 23.457031 10.625 23.457031 10.171875 C 23.457031 9.714844 23.820312 9.351562 24.277344 9.351562 Z M 24.277344 9.351562 "/>
<path style=" stroke:none;fill-rule:nonzero;fill:url(#radial0);" d="M 34.460938 13.996094 C 34.535156 10.625 29.4375 7.042969 29.4375 7.042969 C 20.351562 0.328125 12.132812 4.671875 12.132812 4.671875 C 5.023438 7.816406 2.921875 14.695312 2.921875 14.695312 C 2.511719 15.867188 2.144531 17.660156 2.144531 17.660156 C 1.703125 19.90625 1.902344 21.988281 1.902344 21.988281 C 2.085938 23.976562 2.527344 25.3125 2.527344 25.3125 C 2.984375 26.742188 3.195312 27.183594 3.195312 27.183594 C 3.179688 27.136719 3.105469 26.800781 3.105469 26.800781 C 3.105469 26.800781 2.464844 23.734375 3.058594 20.789062 C 3.058594 20.789062 3.578125 17.71875 5.675781 15.351562 C 5.675781 15.351562 9.085938 10.503906 15.433594 12.402344 C 15.433594 12.402344 16.804688 12.890625 17.277344 13.132812 C 17.746094 13.359375 18.570312 13.710938 18.570312 13.710938 C 23.058594 15.882812 26.863281 16.566406 26.863281 16.566406 C 34.917969 17.917969 34.460938 13.996094 34.460938 13.996094 Z M 24.277344 11.003906 C 23.820312 11.003906 23.457031 10.640625 23.457031 10.183594 C 23.457031 9.730469 23.820312 9.363281 24.277344 9.363281 C 24.734375 9.363281 25.097656 9.730469 25.097656 10.183594 C 25.097656 10.640625 24.734375 11.003906 24.277344 11.003906 Z M 24.277344 11.003906 "/>
<path style=" stroke:none;fill-rule:nonzero;fill:url(#linear1);" d="M 19.070312 7.890625 L 13.882812 6.28125 C 13.851562 6.28125 13.699219 6.207031 13.425781 6.28125 C 13.425781 6.28125 10.367188 7.054688 10.898438 8.726562 C 10.898438 8.726562 11.21875 9.773438 12.085938 10.792969 L 17.792969 10.519531 Z M 19.070312 7.890625 "/>
</g>
</svg>
