<?xml version="1.0" encoding="UTF-8"?>
<svg xmlns="http://www.w3.org/2000/svg" xmlns:xlink="http://www.w3.org/1999/xlink" width="40px" height="40px" viewBox="0 0 40 30" version="1.1">
<g id="surface1">
<path style=" stroke:none;fill-rule:nonzero;fill:rgb(81.176472%,39.215687%,60.392159%);fill-opacity:1;" d="M 34.421875 17.234375 C 33.023438 17.242188 31.8125 17.578125 30.796875 18.078125 C 30.421875 17.335938 30.046875 16.6875 29.984375 16.203125 C 29.914062 15.640625 29.828125 15.296875 29.914062 14.625 C 30 13.953125 30.390625 13 30.390625 12.921875 C 30.382812 12.851562 30.304688 12.507812 29.5 12.5 C 28.695312 12.492188 28 12.65625 27.921875 12.867188 C 27.84375 13.078125 27.6875 13.5625 27.585938 14.0625 C 27.445312 14.796875 25.976562 17.398438 25.140625 18.765625 C 24.867188 18.234375 24.632812 17.765625 24.585938 17.390625 C 24.515625 16.828125 24.429688 16.484375 24.515625 15.8125 C 24.601562 15.140625 24.992188 14.1875 24.992188 14.109375 C 24.984375 14.039062 24.90625 13.695312 24.101562 13.6875 C 23.296875 13.679688 22.601562 13.84375 22.523438 14.054688 C 22.445312 14.265625 22.359375 14.765625 22.1875 15.25 C 22.023438 15.734375 20.070312 20.078125 19.5625 21.210938 C 19.304688 21.789062 19.078125 22.25 18.914062 22.5625 C 18.75 22.875 18.90625 22.585938 18.890625 22.617188 C 18.75 22.882812 18.671875 23.03125 18.671875 23.03125 L 18.671875 23.039062 C 18.5625 23.234375 18.445312 23.421875 18.390625 23.421875 C 18.351562 23.421875 18.273438 22.898438 18.40625 22.179688 C 18.695312 20.671875 19.398438 18.320312 19.390625 18.234375 C 19.390625 18.195312 19.523438 17.78125 18.9375 17.570312 C 18.367188 17.359375 18.164062 17.710938 18.117188 17.710938 C 18.070312 17.710938 18.03125 17.835938 18.03125 17.835938 C 18.03125 17.835938 18.664062 15.1875 16.820312 15.1875 C 15.664062 15.1875 14.070312 16.445312 13.28125 17.59375 C 12.78125 17.867188 11.71875 18.445312 10.59375 19.0625 C 10.164062 19.296875 9.71875 19.546875 9.296875 19.773438 L 9.210938 19.679688 C 6.976562 17.296875 2.84375 15.609375 3.015625 12.40625 C 3.078125 11.242188 3.484375 8.171875 10.953125 4.453125 C 17.070312 1.40625 21.96875 2.242188 22.820312 4.101562 C 24.03125 6.757812 20.203125 11.695312 13.84375 12.40625 C 11.421875 12.679688 10.148438 11.742188 9.828125 11.390625 C 9.492188 11.023438 9.445312 11.007812 9.320312 11.078125 C 9.117188 11.1875 9.242188 11.515625 9.320312 11.710938 C 9.507812 12.203125 10.289062 13.078125 11.617188 13.515625 C 12.78125 13.898438 15.625 14.109375 19.0625 12.78125 C 22.914062 11.289062 25.921875 7.148438 25.039062 3.6875 C 24.140625 0.164062 18.296875 -0.992188 12.773438 0.96875 C 9.484375 2.140625 5.921875 3.96875 3.359375 6.367188 C 0.3125 9.210938 -0.171875 11.695312 0.03125 12.726562 C 0.742188 16.40625 5.8125 18.804688 7.84375 20.578125 C 7.742188 20.632812 7.648438 20.6875 7.5625 20.734375 C 6.546875 21.234375 2.679688 23.257812 1.710938 25.398438 C 0.617188 27.820312 1.882812 29.5625 2.726562 29.796875 C 5.335938 30.523438 8.007812 29.21875 9.453125 27.070312 C 10.890625 24.921875 10.71875 22.132812 10.054688 20.859375 L 10.03125 20.8125 L 10.828125 20.34375 C 11.34375 20.039062 11.851562 19.757812 12.296875 19.515625 C 12.046875 20.195312 11.867188 21 11.773438 22.171875 C 11.664062 23.546875 12.226562 25.328125 12.96875 26.03125 C 13.296875 26.335938 13.6875 26.34375 13.929688 26.34375 C 14.789062 26.34375 15.179688 25.632812 15.609375 24.78125 C 16.140625 23.742188 16.609375 22.539062 16.609375 22.539062 C 16.609375 22.539062 16.023438 25.796875 17.625 25.796875 C 18.210938 25.796875 18.796875 25.039062 19.0625 24.648438 L 19.0625 24.65625 C 19.0625 24.65625 19.078125 24.632812 19.109375 24.578125 C 19.140625 24.53125 19.171875 24.480469 19.203125 24.429688 L 19.203125 24.414062 C 19.4375 24.007812 19.960938 23.078125 20.742188 21.539062 C 21.75 19.554688 22.71875 17.070312 22.71875 17.070312 C 22.71875 17.070312 22.8125 17.679688 23.101562 18.679688 C 23.273438 19.273438 23.648438 19.921875 23.9375 20.554688 C 23.703125 20.882812 23.5625 21.070312 23.5625 21.070312 L 23.570312 21.078125 C 23.382812 21.328125 23.171875 21.59375 22.953125 21.859375 C 22.15625 22.8125 21.203125 23.898438 21.078125 24.210938 C 20.929688 24.578125 20.960938 24.851562 21.25 25.070312 C 21.460938 25.226562 21.835938 25.257812 22.234375 25.226562 C 22.953125 25.179688 23.453125 25 23.703125 24.890625 C 24.09375 24.75 24.539062 24.539062 24.96875 24.226562 C 25.75 23.648438 26.226562 22.828125 26.179688 21.734375 C 26.15625 21.132812 25.960938 20.539062 25.71875 19.976562 C 25.789062 19.875 25.859375 19.773438 25.929688 19.664062 C 27.164062 17.859375 28.117188 15.875 28.117188 15.875 C 28.117188 15.875 28.210938 16.484375 28.5 17.484375 C 28.648438 17.992188 28.945312 18.546875 29.210938 19.09375 C 28.054688 20.039062 27.328125 21.132812 27.078125 21.851562 C 26.617188 23.179688 26.976562 23.78125 27.65625 23.921875 C 27.960938 23.984375 28.398438 23.84375 28.726562 23.703125 C 29.132812 23.570312 29.625 23.34375 30.078125 23.007812 C 30.859375 22.429688 31.609375 21.625 31.570312 20.539062 C 31.546875 20.039062 31.414062 19.546875 31.234375 19.078125 C 32.21875 18.671875 33.492188 18.4375 35.109375 18.632812 C 38.585938 19.039062 39.273438 21.210938 39.140625 22.117188 C 39.007812 23.023438 38.28125 23.523438 38.039062 23.679688 C 37.796875 23.828125 37.71875 23.882812 37.742188 23.992188 C 37.773438 24.15625 37.882812 24.148438 38.09375 24.117188 C 38.382812 24.070312 39.921875 23.375 39.984375 21.703125 C 40.078125 19.554688 38.039062 17.210938 34.421875 17.234375 Z M 7.609375 26.273438 C 6.460938 27.53125 4.84375 28.007812 4.15625 27.601562 C 3.414062 27.171875 3.703125 25.320312 5.117188 23.984375 C 5.976562 23.171875 7.09375 22.421875 7.828125 21.960938 C 7.992188 21.859375 8.242188 21.710938 8.539062 21.53125 C 8.585938 21.5 8.617188 21.484375 8.617188 21.484375 C 8.671875 21.453125 8.734375 21.414062 8.796875 21.375 C 9.320312 23.28125 8.820312 24.953125 7.609375 26.273438 Z M 16.007812 20.5625 C 15.609375 21.539062 14.765625 24.046875 14.257812 23.90625 C 13.820312 23.789062 13.554688 21.890625 14.171875 20.015625 C 14.484375 19.070312 15.148438 17.945312 15.539062 17.507812 C 16.171875 16.804688 16.859375 16.570312 17.03125 16.859375 C 17.234375 17.234375 16.257812 19.953125 16.007812 20.5625 Z M 22.9375 23.875 C 22.765625 23.960938 22.609375 24.023438 22.539062 23.976562 C 22.484375 23.945312 22.609375 23.828125 22.609375 23.828125 C 22.609375 23.828125 23.476562 22.898438 23.820312 22.46875 C 24.015625 22.21875 24.25 21.929688 24.5 21.601562 L 24.5 21.695312 C 24.5 22.820312 23.421875 23.570312 22.9375 23.875 Z M 28.28125 22.65625 C 28.15625 22.5625 28.171875 22.273438 28.59375 21.367188 C 28.757812 21.007812 29.132812 20.40625 29.78125 19.835938 C 29.859375 20.070312 29.90625 20.296875 29.898438 20.507812 C 29.890625 21.914062 28.890625 22.4375 28.28125 22.65625 Z M 28.28125 22.65625 "/>
</g>
</svg>
