<?xml version="1.0" encoding="UTF-8"?>
<svg xmlns="http://www.w3.org/2000/svg" xmlns:xlink="http://www.w3.org/1999/xlink" width="40px" height="40px" viewBox="0 0 40 40" version="1.1">
<g id="surface1">
<path style=" stroke:none;fill-rule:nonzero;fill:rgb(0.392157%,0.392157%,0.392157%);fill-opacity:1;" d="M 15.070312 1.152344 C 20.113281 -0.140625 25.683594 0.613281 30.128906 3.359375 C 35.730469 6.707031 39.386719 13.042969 39.480469 19.5625 C 39.683594 26.148438 36.25 32.679688 30.734375 36.261719 C 24.59375 40.390625 16.101562 40.550781 9.832031 36.625 C 3.441406 32.808594 -0.289062 25.117188 0.667969 17.730469 C 1.441406 9.925781 7.46875 3.042969 15.070312 1.152344 Z M 15.070312 1.152344 "/>
<path style=" stroke:none;fill-rule:nonzero;fill:rgb(100%,100%,100%);fill-opacity:1;" d="M 14.296875 4.34375 C 23.824219 0.53125 35.507812 7.570312 36.492188 17.785156 C 38.027344 26.976562 30.398438 36.316406 21.089844 36.585938 C 12.234375 37.46875 3.675781 29.960938 3.421875 21.070312 C 2.761719 13.871094 7.507812 6.726562 14.296875 4.34375 Z M 14.296875 4.34375 "/>
<path style=" stroke:none;fill-rule:nonzero;fill:rgb(0.392157%,0.392157%,0.392157%);fill-opacity:1;" d="M 15.253906 19.015625 C 19.527344 15.527344 23.703125 11.917969 28.066406 8.53125 C 25.777344 12.046875 23.421875 15.515625 21.136719 19.03125 C 19.171875 19.042969 17.210938 19.042969 15.253906 19.015625 Z M 18.863281 20.957031 C 20.835938 20.957031 22.800781 20.957031 24.761719 20.984375 C 20.464844 24.457031 16.308594 28.09375 11.933594 31.46875 C 14.222656 27.953125 16.578125 24.472656 18.863281 20.957031 Z M 18.863281 20.957031 "/>
</g>
</svg>
