<?xml version="1.0" encoding="UTF-8"?>
<svg xmlns="http://www.w3.org/2000/svg" xmlns:xlink="http://www.w3.org/1999/xlink" width="40px" height="40px" viewBox="0 0 40 23" version="1.1">
<g id="surface1">
<path style=" stroke:none;fill-rule:nonzero;fill:rgb(2.352941%,71.372551%,83.137256%);fill-opacity:1;" d="M 20 0 C 14.667969 0 11.335938 2.554688 10.003906 7.667969 C 12.003906 5.109375 14.335938 4.152344 17 4.792969 C 18.523438 5.15625 19.609375 6.214844 20.8125 7.386719 C 22.773438 9.292969 25.039062 11.5 29.996094 11.5 C 35.328125 11.5 38.660156 8.945312 39.992188 3.832031 C 37.992188 6.386719 35.660156 7.347656 32.996094 6.707031 C 31.472656 6.34375 30.386719 5.285156 29.183594 4.113281 C 27.222656 2.207031 24.953125 0 20 0 Z M 10.003906 11.5 C 4.671875 11.5 1.339844 14.054688 0.0078125 19.167969 C 2.007812 16.609375 4.339844 15.652344 7.003906 16.292969 C 8.527344 16.65625 9.613281 17.714844 10.816406 18.882812 C 12.777344 20.792969 15.046875 23 20 23 C 25.332031 23 28.664062 20.445312 29.996094 15.332031 C 27.996094 17.890625 25.664062 18.847656 23 18.207031 C 21.476562 17.84375 20.390625 16.785156 19.1875 15.613281 C 17.226562 13.707031 14.960938 11.5 10.003906 11.5 Z M 10.003906 11.5 "/>
</g>
</svg>
